ISO-10303-21;
HEADER;
FILE_DESCRIPTION (( 'STEP AP214' ),
    '1' );
FILE_NAME ('Q235-5.0-BAN7-N1.STEP',
    '2026-07-03T06:18:20',
    ( '' ),
    ( '' ),
    'SwSTEP 2.0',
    'SolidWorks 2016',
    '' );
FILE_SCHEMA (( 'AUTOMOTIVE_DESIGN' ));
ENDSEC;

DATA;
#1 = CARTESIAN_POINT ( 'NONE',  ( 0.0000000000000000000, -1.780972450961721500, 9.999999999999998200 ) ) ;
#2 = DIRECTION ( 'NONE',  ( 1.000000000000000000, 0.0000000000000000000, 0.0000000000000000000 ) ) ;
#3 =( GEOMETRIC_REPRESENTATION_CONTEXT ( 3 ) GLOBAL_UNCERTAINTY_ASSIGNED_CONTEXT ( ( #487 ) ) GLOBAL_UNIT_ASSIGNED_CONTEXT ( ( #774, #301, #857 ) ) REPRESENTATION_CONTEXT ( 'NONE', 'WORKASPACE' ) );
#4 = CARTESIAN_POINT ( 'NONE',  ( 53.25000000000000700, 38.79999999999999700, 0.0000000000000000000 ) ) ;
#5 = SURFACE_STYLE_FILL_AREA ( #757 ) ;
#6 = DIRECTION ( 'NONE',  ( -1.000000000000000000, 0.0000000000000000000, 0.0000000000000000000 ) ) ;
#7 = LINE ( 'NONE', #288, #959 ) ;
#8 = ORIENTED_EDGE ( 'NONE', *, *, #302, .T. ) ;
#9 = ORIENTED_EDGE ( 'NONE', *, *, #207, .F. ) ;
#10 = CARTESIAN_POINT ( 'NONE',  ( 30.00000000000000400, -46.78097245096172700, 1.702522263657449100E-014 ) ) ;
#11 = CARTESIAN_POINT ( 'NONE',  ( 34.99999999999999300, -61.78097245096172700, 5.000000000000023100 ) ) ;
#12 = VERTEX_POINT ( 'NONE', #866 ) ;
#13 =( GEOMETRIC_REPRESENTATION_CONTEXT ( 3 ) GLOBAL_UNCERTAINTY_ASSIGNED_CONTEXT ( ( #233 ) ) GLOBAL_UNIT_ASSIGNED_CONTEXT ( ( #477, #717, #967 ) ) REPRESENTATION_CONTEXT ( 'NONE', 'WORKASPACE' ) );
#14 = LINE ( 'NONE', #1032, #360 ) ;
#15 = EDGE_CURVE ( 'NONE', #637, #295, #564, .T. ) ;
#16 = CARTESIAN_POINT ( 'NONE',  ( 159.9999999999999700, 71.50000000000000000, 0.0000000000000000000 ) ) ;
#17 = SURFACE_STYLE_FILL_AREA ( #113 ) ;
#18 = CARTESIAN_POINT ( 'NONE',  ( 56.55000000000000400, 64.19999999999998900, 0.0000000000000000000 ) ) ;
#19 = ORIENTED_EDGE ( 'NONE', *, *, #302, .F. ) ;
#20 = VECTOR ( 'NONE', #608, 1000.000000000000000 ) ;
#21 = ORIENTED_EDGE ( 'NONE', *, *, #890, .T. ) ;
#22 = EDGE_CURVE ( 'NONE', #12, #680, #31, .T. ) ;
#23 = MECHANICAL_DESIGN_GEOMETRIC_PRESENTATION_REPRESENTATION (  '', ( #490 ), #590 ) ;
#24 = DIRECTION ( 'NONE',  ( 0.0000000000000000000, -3.828568698926949400E-016, -1.000000000000000000 ) ) ;
#25 = CARTESIAN_POINT ( 'NONE',  ( 0.0000000000000000000, -56.78097245096172700, 2.105712784409822700E-014 ) ) ;
#26 =( GEOMETRIC_REPRESENTATION_CONTEXT ( 3 ) GLOBAL_UNCERTAINTY_ASSIGNED_CONTEXT ( ( #829 ) ) GLOBAL_UNIT_ASSIGNED_CONTEXT ( ( #205, #376, #192 ) ) REPRESENTATION_CONTEXT ( 'NONE', 'WORKASPACE' ) );
#27 = STYLED_ITEM ( 'NONE', ( #159 ), #362 ) ;
#28 = DIRECTION ( 'NONE',  ( 0.0000000000000000000, 0.0000000000000000000, 1.000000000000000000 ) ) ;
#29 = ORIENTED_EDGE ( 'NONE', *, *, #792, .F. ) ;
#30 = DIRECTION ( 'NONE',  ( 0.0000000000000000000, -1.000000000000000000, 3.854941057726235100E-016 ) ) ;
#31 = LINE ( 'NONE', #1026, #82 ) ;
#32 = ORIENTED_EDGE ( 'NONE', *, *, #38, .T. ) ;
#33 = VECTOR ( 'NONE', #706, 1000.000000000000100 ) ;
#34 = ORIENTED_EDGE ( 'NONE', *, *, #633, .F. ) ;
#35 = SURFACE_STYLE_USAGE ( .BOTH. , #270 ) ;
#36 = CIRCLE ( 'NONE', #77, 4.999999999999997300 ) ;
#37 = CARTESIAN_POINT ( 'NONE',  ( 156.7000000000000200, 38.79999999999999700, 0.0000000000000000000 ) ) ;
#38 = EDGE_CURVE ( 'NONE', #150, #280, #648, .T. ) ;
#39 = CARTESIAN_POINT ( 'NONE',  ( 0.0000000000000000000, -56.78097245096172700, 5.000000000000022200 ) ) ;
#40 = PRESENTATION_STYLE_ASSIGNMENT (( #684 ) ) ;
#41 = MECHANICAL_DESIGN_GEOMETRIC_PRESENTATION_REPRESENTATION (  '', ( #486 ), #433 ) ;
#42 = VERTEX_POINT ( 'NONE', #941 ) ;
#43 = ORIENTED_EDGE ( 'NONE', *, *, #535, .T. ) ;
#44 = CARTESIAN_POINT ( 'NONE',  ( 10.00000000000000200, -46.78097245096172700, 5.000000000000017800 ) ) ;
#45 = ADVANCED_FACE ( 'NONE', ( #104 ), #397, .F. ) ;
#46 = PRESENTATION_STYLE_ASSIGNMENT (( #284 ) ) ;
#47 = DIRECTION ( 'NONE',  ( 0.0000000000000000000, 0.0000000000000000000, -1.000000000000000000 ) ) ;
#48 = AXIS2_PLACEMENT_3D ( 'NONE', #735, #269, #438 ) ;
#49 =( LENGTH_UNIT ( ) NAMED_UNIT ( * ) SI_UNIT ( .MILLI., .METRE. ) );
#50 = CARTESIAN_POINT ( 'NONE',  ( 30.00000000000000400, -46.78097245096172700, -4.999999999999983100 ) ) ;
#51 = DIRECTION ( 'NONE',  ( 1.000000000000000000, 0.0000000000000000000, 0.0000000000000000000 ) ) ;
#52 = SURFACE_SIDE_STYLE ('',( #98 ) ) ;
#53 = EDGE_CURVE ( 'NONE', #907, #584, #503, .T. ) ;
#54 = COLOUR_RGB ( '',1.000000000000000000, 0.0000000000000000000, 0.0000000000000000000 ) ;
#55 = ORIENTED_EDGE ( 'NONE', *, *, #340, .T. ) ;
#56 = FILL_AREA_STYLE_COLOUR ( '', #1005 ) ;
#57 = EDGE_LOOP ( 'NONE', ( #811, #666, #585, #59 ) ) ;
#58 = FACE_OUTER_BOUND ( 'NONE', #161, .T. ) ;
#59 = ORIENTED_EDGE ( 'NONE', *, *, #726, .F. ) ;
#60 = COLOUR_RGB ( '',1.000000000000000000, 0.0000000000000000000, 0.0000000000000000000 ) ;
#61 = FILL_AREA_STYLE ('',( #1030 ) ) ;
#62 = EDGE_CURVE ( 'NONE', #344, #808, #343, .T. ) ;
#63 = UNCERTAINTY_MEASURE_WITH_UNIT (LENGTH_MEASURE( 1.000000000000000100E-005 ), #577, 'distance_accuracy_value', 'NONE');
#64 = DIRECTION ( 'NONE',  ( 0.0000000000000000000, -1.000000000000000000, 5.053215498074302900E-016 ) ) ;
#65 = DIRECTION ( 'NONE',  ( -1.000000000000000000, 0.0000000000000000000, 0.0000000000000000000 ) ) ;
#66 = DIRECTION ( 'NONE',  ( 0.0000000000000000000, 0.0000000000000000000, 1.000000000000000000 ) ) ;
#67 = SURFACE_SIDE_STYLE ('',( #273 ) ) ;
#68 = CARTESIAN_POINT ( 'NONE',  ( 10.00000000000000200, -51.28097245096173400, 5.000000000000019500 ) ) ;
#69 = PRESENTATION_LAYER_ASSIGNMENT (  '', '', ( #999 ) ) ;
#70 = VECTOR ( 'NONE', #1041, 1000.000000000000000 ) ;
#71 = ORIENTED_EDGE ( 'NONE', *, *, #22, .T. ) ;
#72 = DIRECTION ( 'NONE',  ( 0.0000000000000000000, 0.0000000000000000000, 1.000000000000000000 ) ) ;
#73 = CARTESIAN_POINT ( 'NONE',  ( 40.00000000000000000, 8.219027549038273200, -3.828568698926949600E-015 ) ) ;
#74 = ORIENTED_EDGE ( 'NONE', *, *, #836, .T. ) ;
#75 =( NAMED_UNIT ( * ) SI_UNIT ( $, .STERADIAN. ) SOLID_ANGLE_UNIT ( ) );
#76 = CARTESIAN_POINT ( 'NONE',  ( 0.0000000000000000000, 61.50000000000001400, 5.000000000000000000 ) ) ;
#77 = AXIS2_PLACEMENT_3D ( 'NONE', #950, #463, #65 ) ;
#78 = DIRECTION ( 'NONE',  ( 1.000000000000000000, 0.0000000000000000000, 0.0000000000000000000 ) ) ;
#79 = CARTESIAN_POINT ( 'NONE',  ( 40.00000000000000000, 8.219027549038274900, 4.999999999999996400 ) ) ;
#80 = SURFACE_STYLE_FILL_AREA ( #930 ) ;
#81 = AXIS2_PLACEMENT_3D ( 'NONE', #156, #858, #876 ) ;
#82 = VECTOR ( 'NONE', #539, 1000.000000000000000 ) ;
#83 = ORIENTED_EDGE ( 'NONE', *, *, #949, .F. ) ;
#84 = ORIENTED_EDGE ( 'NONE', *, *, #422, .F. ) ;
#85 = MECHANICAL_DESIGN_GEOMETRIC_PRESENTATION_REPRESENTATION (  '', ( #27 ), #296 ) ;
#86 = UNCERTAINTY_MEASURE_WITH_UNIT (LENGTH_MEASURE( 1.000000000000000100E-005 ), #913, 'distance_accuracy_value', 'NONE');
#87 = ORIENTED_EDGE ( 'NONE', *, *, #327, .T. ) ;
#88 = LINE ( 'NONE', #18, #216 ) ;
#89 = CIRCLE ( 'NONE', #153, 4.500000000000003600 ) ;
#90 = CARTESIAN_POINT ( 'NONE',  ( 10.00000000000000200, -42.28097245096172700, -4.999999999999984900 ) ) ;
#91 = EDGE_CURVE ( 'NONE', #882, #746, #662, .T. ) ;
#92 = CARTESIAN_POINT ( 'NONE',  ( 158.3500000000000200, 38.79999999999999700, 0.0000000000000000000 ) ) ;
#93 = ORIENTED_EDGE ( 'NONE', *, *, #499, .T. ) ;
#94 = CARTESIAN_POINT ( 'NONE',  ( 53.25000000000000700, 38.79999999999999700, 0.0000000000000000000 ) ) ;
#95 = CIRCLE ( 'NONE', #449, 1.649999999999998600 ) ;
#96 = CIRCLE ( 'NONE', #1014, 1.649999999999998600 ) ;
#97 = EDGE_LOOP ( 'NONE', ( #546, #762 ) ) ;
#98 = SURFACE_STYLE_FILL_AREA ( #434 ) ;
#99 = EDGE_LOOP ( 'NONE', ( #32, #440 ) ) ;
#100 = PRESENTATION_LAYER_ASSIGNMENT (  '', '', ( #402 ) ) ;
#101 = CIRCLE ( 'NONE', #559, 1.650000000000012600 ) ;
#102 = AXIS2_PLACEMENT_3D ( 'NONE', #909, #595, #432 ) ;
#103 = CIRCLE ( 'NONE', #670, 1.649999999999998600 ) ;
#104 = FACE_OUTER_BOUND ( 'NONE', #663, .T. ) ;
#105 = ORIENTED_EDGE ( 'NONE', *, *, #824, .F. ) ;
#106 = FACE_OUTER_BOUND ( 'NONE', #198, .T. ) ;
#107 = EDGE_CURVE ( 'NONE', #323, #444, #333, .T. ) ;
#108 = ADVANCED_FACE ( 'NONE', ( #944 ), #874, .T. ) ;
#109 = AXIS2_PLACEMENT_3D ( 'NONE', #537, #525, #300 ) ;
#110 = CARTESIAN_POINT ( 'NONE',  ( 45.00000000000000000, 26.49999999999998900, 10.00000000000000000 ) ) ;
#111 = SURFACE_SIDE_STYLE ('',( #17 ) ) ;
#112 = ADVANCED_FACE ( 'NONE', ( #465 ), #320, .F. ) ;
#113 = FILL_AREA_STYLE ('',( #189 ) ) ;
#114 = AXIS2_PLACEMENT_3D ( 'NONE', #243, #238, #802 ) ;
#115 = CYLINDRICAL_SURFACE ( 'NONE', #470, 4.500000000000010700 ) ;
#116 = DIRECTION ( 'NONE',  ( -0.7071067811865455700, -0.7071067811865493500, 2.707206889249810000E-016 ) ) ;
#117 = VECTOR ( 'NONE', #536, 1000.000000000000000 ) ;
#118 = LINE ( 'NONE', #556, #542 ) ;
#119 = ORIENTED_EDGE ( 'NONE', *, *, #230, .T. ) ;
#120 = ORIENTED_EDGE ( 'NONE', *, *, #949, .T. ) ;
#121 = ORIENTED_EDGE ( 'NONE', *, *, #617, .F. ) ;
#122 = DIRECTION ( 'NONE',  ( 0.0000000000000000000, 3.828568698926949400E-016, 1.000000000000000000 ) ) ;
#123 = DIRECTION ( 'NONE',  ( 1.000000000000000000, 0.0000000000000000000, 0.0000000000000000000 ) ) ;
#124 = EDGE_CURVE ( 'NONE', #544, #637, #692, .T. ) ;
#125 = CARTESIAN_POINT ( 'NONE',  ( 53.25000000000000700, 64.19999999999998900, 5.000000000000000000 ) ) ;
#126 = SURFACE_STYLE_USAGE ( .BOTH. , #374 ) ;
#127 = ADVANCED_FACE ( 'NONE', ( #914 ), #1038, .T. ) ;
#128 = DIRECTION ( 'NONE',  ( 0.0000000000000000000, 0.0000000000000000000, 1.000000000000000000 ) ) ;
#129 = UNCERTAINTY_MEASURE_WITH_UNIT (LENGTH_MEASURE( 1.000000000000000100E-005 ), #141, 'distance_accuracy_value', 'NONE');
#130 = EDGE_CURVE ( 'NONE', #901, #42, #275, .T. ) ;
#131 =( NAMED_UNIT ( * ) PLANE_ANGLE_UNIT ( ) SI_UNIT ( $, .RADIAN. ) );
#132 = AXIS2_PLACEMENT_3D ( 'NONE', #139, #195, #868 ) ;
#133 = DIRECTION ( 'NONE',  ( -0.0000000000000000000, -0.0000000000000000000, -1.000000000000000000 ) ) ;
#134 = ORIENTED_EDGE ( 'NONE', *, *, #956, .F. ) ;
#135 = ORIENTED_EDGE ( 'NONE', *, *, #815, .T. ) ;
#136 = COLOUR_RGB ( '',1.000000000000000000, 0.0000000000000000000, 0.0000000000000000000 ) ;
#137 = CARTESIAN_POINT ( 'NONE',  ( 40.00000000000000000, -61.78097245096172700, 2.297141219356170600E-014 ) ) ;
#138 = LINE ( 'NONE', #510, #938 ) ;
#139 = CARTESIAN_POINT ( 'NONE',  ( 54.90000000000000600, 64.19999999999998900, 0.0000000000000000000 ) ) ;
#140 = EDGE_CURVE ( 'NONE', #150, #907, #118, .T. ) ;
#141 =( LENGTH_UNIT ( ) NAMED_UNIT ( * ) SI_UNIT ( .MILLI., .METRE. ) );
#142 = CARTESIAN_POINT ( 'NONE',  ( 30.00000000000000400, -46.78097245096172700, 5.000000000000017800 ) ) ;
#143 = EDGE_CURVE ( 'NONE', #291, #780, #96, .T. ) ;
#144 = VECTOR ( 'NONE', #316, 1000.000000000000000 ) ;
#145 = COLOUR_RGB ( '',1.000000000000000000, 0.0000000000000000000, 0.0000000000000000000 ) ;
#146 = ORIENTED_EDGE ( 'NONE', *, *, #475, .F. ) ;
#147 = ORIENTED_EDGE ( 'NONE', *, *, #607, .T. ) ;
#148 = FILL_AREA_STYLE_COLOUR ( '', #943 ) ;
#149 = FACE_BOUND ( 'NONE', #635, .T. ) ;
#150 = VERTEX_POINT ( 'NONE', #790 ) ;
#151 = DIRECTION ( 'NONE',  ( 0.0000000000000000000, 0.0000000000000000000, 1.000000000000000000 ) ) ;
#152 = CARTESIAN_POINT ( 'NONE',  ( 0.0000000000000000000, 8.219027549038273200, -3.828568698926949600E-015 ) ) ;
#153 = AXIS2_PLACEMENT_3D ( 'NONE', #472, #1034, #627 ) ;
#154 =( GEOMETRIC_REPRESENTATION_CONTEXT ( 3 ) GLOBAL_UNCERTAINTY_ASSIGNED_CONTEXT ( ( #871 ) ) GLOBAL_UNIT_ASSIGNED_CONTEXT ( ( #579, #351, #655 ) ) REPRESENTATION_CONTEXT ( 'NONE', 'WORKASPACE' ) );
#155 =( NAMED_UNIT ( * ) PLANE_ANGLE_UNIT ( ) SI_UNIT ( $, .RADIAN. ) );
#156 = CARTESIAN_POINT ( 'NONE',  ( 156.7000000000000200, 64.19999999999998900, 0.0000000000000000000 ) ) ;
#157 = DIRECTION ( 'NONE',  ( 0.0000000000000000000, 0.0000000000000000000, 1.000000000000000000 ) ) ;
#158 =( LENGTH_UNIT ( ) NAMED_UNIT ( * ) SI_UNIT ( .MILLI., .METRE. ) );
#159 = PRESENTATION_STYLE_ASSIGNMENT (( #737 ) ) ;
#160 = AXIS2_PLACEMENT_3D ( 'NONE', #963, #1040, #798 ) ;
#161 = EDGE_LOOP ( 'NONE', ( #839, #777, #334, #419 ) ) ;
#162 = COLOUR_RGB ( '',1.000000000000000000, 0.0000000000000000000, 0.0000000000000000000 ) ;
#163 = DIRECTION ( 'NONE',  ( -1.000000000000000000, 0.0000000000000000000, 0.0000000000000000000 ) ) ;
#164 = EDGE_CURVE ( 'NONE', #444, #323, #512, .T. ) ;
#165 = PRESENTATION_LAYER_ASSIGNMENT (  '', '', ( #328 ) ) ;
#166 = DIRECTION ( 'NONE',  ( 0.0000000000000000000, 0.0000000000000000000, 1.000000000000000000 ) ) ;
#167 = DIRECTION ( 'NONE',  ( 0.0000000000000000000, 1.000000000000000000, -3.828568698926945500E-016 ) ) ;
#168 = ORIENTED_EDGE ( 'NONE', *, *, #970, .F. ) ;
#169 = CYLINDRICAL_SURFACE ( 'NONE', #646, 1.649999999999998600 ) ;
#170 = EDGE_LOOP ( 'NONE', ( #377, #681, #266, #693 ) ) ;
#171 = EDGE_LOOP ( 'NONE', ( #698, #337, #649, #701 ) ) ;
#172 = ORIENTED_EDGE ( 'NONE', *, *, #164, .F. ) ;
#173 = DIRECTION ( 'NONE',  ( 0.0000000000000000000, 0.0000000000000000000, 1.000000000000000000 ) ) ;
#174 = UNCERTAINTY_MEASURE_WITH_UNIT (LENGTH_MEASURE( 1.000000000000000100E-005 ), #770, 'distance_accuracy_value', 'NONE');
#175 = MECHANICAL_DESIGN_GEOMETRIC_PRESENTATION_REPRESENTATION (  '', ( #999 ), #407 ) ;
#176 = EDGE_CURVE ( 'NONE', #456, #293, #278, .T. ) ;
#177 = EDGE_LOOP ( 'NONE', ( #643, #93, #71, #716 ) ) ;
#178 = ORIENTED_EDGE ( 'NONE', *, *, #422, .T. ) ;
#179 = ADVANCED_FACE ( 'NONE', ( #411, #386, #106, #586, #1024, #650, #764 ), #704, .F. ) ;
#180 = MECHANICAL_DESIGN_GEOMETRIC_PRESENTATION_REPRESENTATION (  '', ( #727 ), #977 ) ;
#181 = FACE_OUTER_BOUND ( 'NONE', #918, .T. ) ;
#182 = EDGE_CURVE ( 'NONE', #505, #196, #324, .T. ) ;
#183 = MANIFOLD_SOLID_BREP ( '平板型式', #598 ) ;
#184 =( NAMED_UNIT ( * ) SI_UNIT ( $, .STERADIAN. ) SOLID_ANGLE_UNIT ( ) );
#185 = ADVANCED_FACE ( 'NONE', ( #459 ), #894, .F. ) ;
#186 = ORIENTED_EDGE ( 'NONE', *, *, #355, .F. ) ;
#187 = ORIENTED_EDGE ( 'NONE', *, *, #899, .T. ) ;
#188 = VERTEX_POINT ( 'NONE', #68 ) ;
#189 = FILL_AREA_STYLE_COLOUR ( '', #581 ) ;
#190 = VECTOR ( 'NONE', #28, 1000.000000000000000 ) ;
#191 =( NAMED_UNIT ( * ) PLANE_ANGLE_UNIT ( ) SI_UNIT ( $, .RADIAN. ) );
#192 =( NAMED_UNIT ( * ) SI_UNIT ( $, .STERADIAN. ) SOLID_ANGLE_UNIT ( ) );
#193 = SURFACE_STYLE_USAGE ( .BOTH. , #659 ) ;
#194 = CARTESIAN_POINT ( 'NONE',  ( 159.9999999999999700, 71.50000000000000000, 5.000000000000000000 ) ) ;
#195 = DIRECTION ( 'NONE',  ( 0.0000000000000000000, 0.0000000000000000000, 1.000000000000000000 ) ) ;
#196 = VERTEX_POINT ( 'NONE', #775 ) ;
#197 = FILL_AREA_STYLE ('',( #56 ) ) ;
#198 = EDGE_LOOP ( 'NONE', ( #134, #915, #640, #822, #484, #241, #245, #223, #119, #853 ) ) ;
#199 = SURFACE_SIDE_STYLE ('',( #5 ) ) ;
#200 = EDGE_CURVE ( 'NONE', #528, #206, #532, .T. ) ;
#201 = SURFACE_STYLE_FILL_AREA ( #524 ) ;
#202 = CARTESIAN_POINT ( 'NONE',  ( 40.00000000000000000, 8.219027549038274900, 4.999999999999996400 ) ) ;
#203 = SURFACE_SIDE_STYLE ('',( #760 ) ) ;
#204 = CARTESIAN_POINT ( 'NONE',  ( 160.0000000000000000, 31.49999999999999300, 5.000000000000000000 ) ) ;
#205 =( LENGTH_UNIT ( ) NAMED_UNIT ( * ) SI_UNIT ( .MILLI., .METRE. ) );
#206 = VERTEX_POINT ( 'NONE', #830 ) ;
#207 = EDGE_CURVE ( 'NONE', #808, #212, #682, .T. ) ;
#208 = AXIS2_PLACEMENT_3D ( 'NONE', #50, #1015, #1000 ) ;
#209 = DIRECTION ( 'NONE',  ( 0.0000000000000000000, -1.000000000000000000, 3.854941057726228700E-016 ) ) ;
#210 = LINE ( 'NONE', #771, #321 ) ;
#211 = ORIENTED_EDGE ( 'NONE', *, *, #399, .F. ) ;
#212 = VERTEX_POINT ( 'NONE', #76 ) ;
#213 = FACE_OUTER_BOUND ( 'NONE', #934, .T. ) ;
#214 = ORIENTED_EDGE ( 'NONE', *, *, #399, .T. ) ;
#215 = SURFACE_SIDE_STYLE ('',( #879 ) ) ;
#216 = VECTOR ( 'NONE', #173, 1000.000000000000000 ) ;
#217 = STYLED_ITEM ( 'NONE', ( #902 ), #183 ) ;
#218 = CARTESIAN_POINT ( 'NONE',  ( 0.0000000000000000000, 61.50000000000001400, 0.0000000000000000000 ) ) ;
#219 = DIRECTION ( 'NONE',  ( 0.0000000000000000000, 0.0000000000000000000, -1.000000000000000000 ) ) ;
#220 = AXIS2_PLACEMENT_3D ( 'NONE', #363, #122, #600 ) ;
#221 = CARTESIAN_POINT ( 'NONE',  ( 156.7000000000000200, 38.79999999999999700, 0.0000000000000000000 ) ) ;
#222 = DIRECTION ( 'NONE',  ( 0.0000000000000000000, 3.828568698926949400E-016, 1.000000000000000000 ) ) ;
#223 = ORIENTED_EDGE ( 'NONE', *, *, #207, .T. ) ;
#224 = SURFACE_STYLE_USAGE ( .BOTH. , #67 ) ;
#225 = ORIENTED_EDGE ( 'NONE', *, *, #230, .F. ) ;
#226 = ORIENTED_EDGE ( 'NONE', *, *, #246, .T. ) ;
#227 = CARTESIAN_POINT ( 'NONE',  ( 40.00000000000000000, 31.49999999999999300, -126.4911064067351700 ) ) ;
#228 = LINE ( 'NONE', #16, #1039 ) ;
#229 =( LENGTH_UNIT ( ) NAMED_UNIT ( * ) SI_UNIT ( .MILLI., .METRE. ) );
#230 = EDGE_CURVE ( 'NONE', #212, #945, #917, .T. ) ;
#231 = CARTESIAN_POINT ( 'NONE',  ( 156.7000000000000200, 64.19999999999998900, 0.0000000000000000000 ) ) ;
#232 = DIRECTION ( 'NONE',  ( 0.0000000000000000000, 0.0000000000000000000, 1.000000000000000000 ) ) ;
#233 = UNCERTAINTY_MEASURE_WITH_UNIT (LENGTH_MEASURE( 1.000000000000000100E-005 ), #477, 'distance_accuracy_value', 'NONE');
#234 = CARTESIAN_POINT ( 'NONE',  ( 30.00000000000000400, -51.28097245096174100, -4.999999999999981300 ) ) ;
#235 = SURFACE_SIDE_STYLE ('',( #1008 ) ) ;
#236 = EDGE_LOOP ( 'NONE', ( #621, #87 ) ) ;
#237 = DIRECTION ( 'NONE',  ( 0.0000000000000000000, -3.828568698926949400E-016, -1.000000000000000000 ) ) ;
#238 = DIRECTION ( 'NONE',  ( 0.0000000000000000000, 0.0000000000000000000, 1.000000000000000000 ) ) ;
#239 = AXIS2_PLACEMENT_3D ( 'NONE', #969, #401, #6 ) ;
#240 = LINE ( 'NONE', #604, #454 ) ;
#241 = ORIENTED_EDGE ( 'NONE', *, *, #617, .T. ) ;
#242 = ORIENTED_EDGE ( 'NONE', *, *, #130, .T. ) ;
#243 = CARTESIAN_POINT ( 'NONE',  ( 156.7000000000000200, 38.79999999999999700, 5.000000000000000000 ) ) ;
#244 = FACE_BOUND ( 'NONE', #936, .T. ) ;
#245 = ORIENTED_EDGE ( 'NONE', *, *, #62, .T. ) ;
#246 = EDGE_CURVE ( 'NONE', #280, #584, #745, .T. ) ;
#247 = DIRECTION ( 'NONE',  ( 0.0000000000000000000, 0.0000000000000000000, -1.000000000000000000 ) ) ;
#248 = VECTOR ( 'NONE', #787, 1000.000000000000100 ) ;
#249 = VECTOR ( 'NONE', #699, 1000.000000000000100 ) ;
#250 = ORIENTED_EDGE ( 'NONE', *, *, #15, .T. ) ;
#251 = MECHANICAL_DESIGN_GEOMETRIC_PRESENTATION_REPRESENTATION (  '', ( #623 ), #603 ) ;
#252 = CIRCLE ( 'NONE', #509, 1.649999999999998600 ) ;
#253 = ORIENTED_EDGE ( 'NONE', *, *, #828, .F. ) ;
#254 = VECTOR ( 'NONE', #303, 1000.000000000000000 ) ;
#255 =( GEOMETRIC_REPRESENTATION_CONTEXT ( 3 ) GLOBAL_UNCERTAINTY_ASSIGNED_CONTEXT ( ( #276 ) ) GLOBAL_UNIT_ASSIGNED_CONTEXT ( ( #673, #191, #929 ) ) REPRESENTATION_CONTEXT ( 'NONE', 'WORKASPACE' ) );
#256 = CARTESIAN_POINT ( 'NONE',  ( -12.49999999999999100, -44.28097245096171300, 1.627141697043953000E-014 ) ) ;
#257 = DIRECTION ( 'NONE',  ( -1.000000000000000000, 0.0000000000000000000, 0.0000000000000000000 ) ) ;
#258 = PRESENTATION_STYLE_ASSIGNMENT (( #665 ) ) ;
#259 = UNCERTAINTY_MEASURE_WITH_UNIT (LENGTH_MEASURE( 1.000000000000000100E-005 ), #508, 'distance_accuracy_value', 'NONE');
#260 = VECTOR ( 'NONE', #695, 1000.000000000000000 ) ;
#261 = CARTESIAN_POINT ( 'NONE',  ( 159.9999999999999700, 71.50000000000000000, -126.4911064067351700 ) ) ;
#262 = EDGE_LOOP ( 'NONE', ( #172, #410 ) ) ;
#263 = ORIENTED_EDGE ( 'NONE', *, *, #784, .T. ) ;
#264 = CIRCLE ( 'NONE', #844, 1.650000000000012600 ) ;
#265 = PRESENTATION_LAYER_ASSIGNMENT (  '', '', ( #809 ) ) ;
#266 = ORIENTED_EDGE ( 'NONE', *, *, #447, .F. ) ;
#267 = FILL_AREA_STYLE_COLOUR ( '', #60 ) ;
#268 = LINE ( 'NONE', #580, #190 ) ;
#269 = DIRECTION ( 'NONE',  ( 0.0000000000000000000, 0.0000000000000000000, 1.000000000000000000 ) ) ;
#270 = SURFACE_SIDE_STYLE ('',( #812 ) ) ;
#271 =( GEOMETRIC_REPRESENTATION_CONTEXT ( 3 ) GLOBAL_UNCERTAINTY_ASSIGNED_CONTEXT ( ( #174 ) ) GLOBAL_UNIT_ASSIGNED_CONTEXT ( ( #770, #1003, #606 ) ) REPRESENTATION_CONTEXT ( 'NONE', 'WORKASPACE' ) );
#272 = CARTESIAN_POINT ( 'NONE',  ( 155.0499999999999800, 38.79999999999999700, 5.000000000000000000 ) ) ;
#273 = SURFACE_STYLE_FILL_AREA ( #61 ) ;
#274 = CIRCLE ( 'NONE', #500, 4.500000000000010700 ) ;
#275 = LINE ( 'NONE', #797, #70 ) ;
#276 = UNCERTAINTY_MEASURE_WITH_UNIT (LENGTH_MEASURE( 1.000000000000000100E-005 ), #673, 'distance_accuracy_value', 'NONE');
#277 = VERTEX_POINT ( 'NONE', #795 ) ;
#278 = LINE ( 'NONE', #234, #779 ) ;
#279 = ADVANCED_FACE ( 'NONE', ( #149, #514, #310, #696, #664, #467, #244 ), #1035, .T. ) ;
#280 = VERTEX_POINT ( 'NONE', #474 ) ;
#281 = AXIS2_PLACEMENT_3D ( 'NONE', #616, #679, #862 ) ;
#282 = CYLINDRICAL_SURFACE ( 'NONE', #132, 1.649999999999998600 ) ;
#283 = CARTESIAN_POINT ( 'NONE',  ( 54.90000000000000600, 64.19999999999998900, 0.0000000000000000000 ) ) ;
#284 = SURFACE_STYLE_USAGE ( .BOTH. , #597 ) ;
#285 = EDGE_CURVE ( 'NONE', #277, #1017, #264, .T. ) ;
#286 = DIRECTION ( 'NONE',  ( -1.000000000000000000, 0.0000000000000000000, 0.0000000000000000000 ) ) ;
#287 = AXIS2_PLACEMENT_3D ( 'NONE', #37, #128, #368 ) ;
#288 = CARTESIAN_POINT ( 'NONE',  ( 30.00000000000000400, -42.28097245096172000, -4.999999999999984900 ) ) ;
#289 = CIRCLE ( 'NONE', #709, 4.999999999999997300 ) ;
#290 = LINE ( 'NONE', #1009, #144 ) ;
#291 = VERTEX_POINT ( 'NONE', #749 ) ;
#292 = ORIENTED_EDGE ( 'NONE', *, *, #1037, .F. ) ;
#293 = VERTEX_POINT ( 'NONE', #406 ) ;
#294 = CIRCLE ( 'NONE', #393, 1.649999999999998600 ) ;
#295 = VERTEX_POINT ( 'NONE', #886 ) ;
#296 =( GEOMETRIC_REPRESENTATION_CONTEXT ( 3 ) GLOBAL_UNCERTAINTY_ASSIGNED_CONTEXT ( ( #86 ) ) GLOBAL_UNIT_ASSIGNED_CONTEXT ( ( #913, #754, #184 ) ) REPRESENTATION_CONTEXT ( 'NONE', 'WORKASPACE' ) );
#297 = LINE ( 'NONE', #256, #686 ) ;
#298 = CYLINDRICAL_SURFACE ( 'NONE', #81, 1.650000000000012600 ) ;
#299 = DIRECTION ( 'NONE',  ( -6.938893903907228400E-016, 1.000000000000000000, 0.0000000000000000000 ) ) ;
#300 = DIRECTION ( 'NONE',  ( 0.0000000000000000000, -5.053215498074302900E-016, -1.000000000000000000 ) ) ;
#301 =( NAMED_UNIT ( * ) PLANE_ANGLE_UNIT ( ) SI_UNIT ( $, .RADIAN. ) );
#302 = EDGE_CURVE ( 'NONE', #796, #567, #252, .T. ) ;
#303 = DIRECTION ( 'NONE',  ( 0.0000000000000000000, 0.0000000000000000000, -1.000000000000000000 ) ) ;
#304 = APPLICATION_PROTOCOL_DEFINITION ( 'draft international standard', 'automotive_design', 1998, #791 ) ;
#305 = CARTESIAN_POINT ( 'NONE',  ( 156.7000000000000200, 64.19999999999998900, 0.0000000000000000000 ) ) ;
#306 = CARTESIAN_POINT ( 'NONE',  ( 53.25000000000000700, 38.79999999999999700, 5.000000000000000000 ) ) ;
#307 = VECTOR ( 'NONE', #628, 1000.000000000000000 ) ;
#308 = EDGE_LOOP ( 'NONE', ( #723, #187, #428, #794 ) ) ;
#309 = DIRECTION ( 'NONE',  ( 0.0000000000000000000, 0.0000000000000000000, 1.000000000000000000 ) ) ;
#310 = FACE_OUTER_BOUND ( 'NONE', #651, .T. ) ;
#311 = ORIENTED_EDGE ( 'NONE', *, *, #668, .T. ) ;
#312 = AXIS2_PLACEMENT_3D ( 'NONE', #479, #488, #247 ) ;
#313 = VECTOR ( 'NONE', #700, 1000.000000000000000 ) ;
#314 = LINE ( 'NONE', #820, #799 ) ;
#315 = AXIS2_PLACEMENT_3D ( 'NONE', #641, #529, #861 ) ;
#316 = DIRECTION ( 'NONE',  ( 0.0000000000000000000, 0.0000000000000000000, 1.000000000000000000 ) ) ;
#317 = CARTESIAN_POINT ( 'NONE',  ( 40.00000000000000000, -56.78097245096169800, 10.00000000000002700 ) ) ;
#318 = MECHANICAL_DESIGN_GEOMETRIC_PRESENTATION_REPRESENTATION (  '', ( #576 ), #13 ) ;
#319 = COLOUR_RGB ( '',1.000000000000000000, 0.0000000000000000000, 0.0000000000000000000 ) ;
#320 = PLANE ( 'NONE',  #927 ) ;
#321 = VECTOR ( 'NONE', #299, 1000.000000000000000 ) ;
#322 = PRESENTATION_STYLE_ASSIGNMENT (( #326 ) ) ;
#323 = VERTEX_POINT ( 'NONE', #272 ) ;
#324 = LINE ( 'NONE', #667, #825 ) ;
#325 = CARTESIAN_POINT ( 'NONE',  ( 54.90000000000000600, 64.19999999999998900, 0.0000000000000000000 ) ) ;
#326 = SURFACE_STYLE_USAGE ( .BOTH. , #235 ) ;
#327 = EDGE_CURVE ( 'NONE', #882, #622, #294, .T. ) ;
#328 = STYLED_ITEM ( 'NONE', ( #258 ), #435 ) ;
#329 =( GEOMETRIC_REPRESENTATION_CONTEXT ( 3 ) GLOBAL_UNCERTAINTY_ASSIGNED_CONTEXT ( ( #720 ) ) GLOBAL_UNIT_ASSIGNED_CONTEXT ( ( #158, #155, #382 ) ) REPRESENTATION_CONTEXT ( 'NONE', 'WORKASPACE' ) );
#330 = FACE_OUTER_BOUND ( 'NONE', #171, .T. ) ;
#331 = MECHANICAL_DESIGN_GEOMETRIC_PRESENTATION_REPRESENTATION (  '', ( #982 ), #3 ) ;
#332 = PRESENTATION_STYLE_ASSIGNMENT (( #385 ) ) ;
#333 = CIRCLE ( 'NONE', #114, 1.650000000000012600 ) ;
#334 = ORIENTED_EDGE ( 'NONE', *, *, #140, .T. ) ;
#335 = ORIENTED_EDGE ( 'NONE', *, *, #552, .T. ) ;
#336 = FACE_OUTER_BOUND ( 'NONE', #457, .T. ) ;
#337 = ORIENTED_EDGE ( 'NONE', *, *, #940, .T. ) ;
#338 = LINE ( 'NONE', #90, #517 ) ;
#339 = DIRECTION ( 'NONE',  ( 1.000000000000000000, 0.0000000000000000000, 0.0000000000000000000 ) ) ;
#340 = EDGE_CURVE ( 'NONE', #974, #344, #851, .T. ) ;
#341 = COLOUR_RGB ( '',1.000000000000000000, 0.0000000000000000000, 0.0000000000000000000 ) ;
#342 = MECHANICAL_DESIGN_GEOMETRIC_PRESENTATION_REPRESENTATION (  '', ( #402 ), #841 ) ;
#343 = LINE ( 'NONE', #404, #722 ) ;
#344 = VERTEX_POINT ( 'NONE', #194 ) ;
#345 = DIRECTION ( 'NONE',  ( -0.7071067811865474600, 0.7071067811865474600, -2.707206889249803100E-016 ) ) ;
#346 = ADVANCED_FACE ( 'NONE', ( #213 ), #519, .T. ) ;
#347 = ORIENTED_EDGE ( 'NONE', *, *, #687, .T. ) ;
#348 = CARTESIAN_POINT ( 'NONE',  ( 54.90000000000000600, 38.79999999999999700, 5.000000000000000000 ) ) ;
#349 = CARTESIAN_POINT ( 'NONE',  ( 56.55000000000000400, 38.79999999999999700, 0.0000000000000000000 ) ) ;
#350 = LINE ( 'NONE', #349, #501 ) ;
#351 =( NAMED_UNIT ( * ) PLANE_ANGLE_UNIT ( ) SI_UNIT ( $, .RADIAN. ) );
#352 = SURFACE_STYLE_FILL_AREA ( #843 ) ;
#353 = ADVANCED_FACE ( 'NONE', ( #58 ), #988, .F. ) ;
#354 = DIRECTION ( 'NONE',  ( 0.0000000000000000000, 0.0000000000000000000, 1.000000000000000000 ) ) ;
#355 = EDGE_CURVE ( 'NONE', #622, #972, #350, .T. ) ;
#356 = ORIENTED_EDGE ( 'NONE', *, *, #124, .F. ) ;
#357 = ORIENTED_EDGE ( 'NONE', *, *, #828, .T. ) ;
#358 = UNCERTAINTY_MEASURE_WITH_UNIT (LENGTH_MEASURE( 1.000000000000000100E-005 ), #522, 'distance_accuracy_value', 'NONE');
#359 = DIRECTION ( 'NONE',  ( -1.000000000000000000, 0.0000000000000000000, 0.0000000000000000000 ) ) ;
#360 = VECTOR ( 'NONE', #1018, 1000.000000000000000 ) ;
#361 = CARTESIAN_POINT ( 'NONE',  ( 40.00000000000000000, 26.49999999999998900, 0.0000000000000000000 ) ) ;
#362 = ADVANCED_FACE ( 'NONE', ( #631 ), #958, .F. ) ;
#363 = CARTESIAN_POINT ( 'NONE',  ( 10.00000000000000200, -46.78097245096172700, -4.999999999999983100 ) ) ;
#364 = MECHANICAL_DESIGN_GEOMETRIC_PRESENTATION_REPRESENTATION (  '', ( #939 ), #26 ) ;
#365 =( NAMED_UNIT ( * ) PLANE_ANGLE_UNIT ( ) SI_UNIT ( $, .RADIAN. ) );
#366 = AXIS2_PLACEMENT_3D ( 'NONE', #137, #64, #51 ) ;
#367 = CARTESIAN_POINT ( 'NONE',  ( 34.99999999999999300, -61.78097245096172700, 5.000000000000023100 ) ) ;
#368 = DIRECTION ( 'NONE',  ( 1.000000000000000000, 0.0000000000000000000, 0.0000000000000000000 ) ) ;
#369 = CIRCLE ( 'NONE', #767, 4.500000000000003600 ) ;
#370 = DIRECTION ( 'NONE',  ( 0.0000000000000000000, 3.828568698926949400E-016, 1.000000000000000000 ) ) ;
#371 = EDGE_LOOP ( 'NONE', ( #34, #120, #8, #978 ) ) ;
#372 = CARTESIAN_POINT ( 'NONE',  ( 30.00000000000000400, -46.78097245096172700, -4.999999999999983100 ) ) ;
#373 = STYLED_ITEM ( 'NONE', ( #492 ), #353 ) ;
#374 = SURFACE_SIDE_STYLE ('',( #352 ) ) ;
#375 = DIRECTION ( 'NONE',  ( 0.0000000000000000000, 3.828568698926949400E-016, 1.000000000000000000 ) ) ;
#376 =( NAMED_UNIT ( * ) PLANE_ANGLE_UNIT ( ) SI_UNIT ( $, .RADIAN. ) );
#377 = ORIENTED_EDGE ( 'NONE', *, *, #875, .F. ) ;
#378 = PRESENTATION_LAYER_ASSIGNMENT (  '', '', ( #486 ) ) ;
#379 = APPLICATION_CONTEXT ( 'automotive_design' ) ;
#380 = CARTESIAN_POINT ( 'NONE',  ( 0.0000000000000000000, -56.78097245096172700, 5.000000000000021300 ) ) ;
#381 = FACE_OUTER_BOUND ( 'NONE', #837, .T. ) ;
#382 =( NAMED_UNIT ( * ) SI_UNIT ( $, .STERADIAN. ) SOLID_ANGLE_UNIT ( ) );
#383 = VERTEX_POINT ( 'NONE', #922 ) ;
#384 = ORIENTED_EDGE ( 'NONE', *, *, #475, .T. ) ;
#385 = SURFACE_STYLE_USAGE ( .BOTH. , #215 ) ;
#386 = FACE_BOUND ( 'NONE', #979, .T. ) ;
#387 = EDGE_LOOP ( 'NONE', ( #743, #250, #1036, #806 ) ) ;
#388 = DIRECTION ( 'NONE',  ( 0.0000000000000000000, -1.000000000000000000, 0.0000000000000000000 ) ) ;
#389 = FACE_OUTER_BOUND ( 'NONE', #177, .T. ) ;
#390 = DIRECTION ( 'NONE',  ( 1.000000000000000000, 0.0000000000000000000, 0.0000000000000000000 ) ) ;
#391 =( NAMED_UNIT ( * ) PLANE_ANGLE_UNIT ( ) SI_UNIT ( $, .RADIAN. ) );
#392 = DIRECTION ( 'NONE',  ( 1.000000000000000000, 0.0000000000000000000, 0.0000000000000000000 ) ) ;
#393 = AXIS2_PLACEMENT_3D ( 'NONE', #592, #354, #123 ) ;
#394 = PLANE ( 'NONE',  #691 ) ;
#395 = PRODUCT_DEFINITION_SHAPE ( 'NONE', 'NONE',  #976 ) ;
#396 = CARTESIAN_POINT ( 'NONE',  ( 0.0000000000000000000, 0.0000000000000000000, 0.0000000000000000000 ) ) ;
#397 = CYLINDRICAL_SURFACE ( 'NONE', #676, 1.649999999999998600 ) ;
#398 = ORIENTED_EDGE ( 'NONE', *, *, #981, .F. ) ;
#399 = EDGE_CURVE ( 'NONE', #188, #513, #369, .T. ) ;
#400 = DIRECTION ( 'NONE',  ( 0.0000000000000000000, 0.0000000000000000000, 1.000000000000000000 ) ) ;
#401 = DIRECTION ( 'NONE',  ( 0.0000000000000000000, 0.0000000000000000000, -1.000000000000000000 ) ) ;
#402 = STYLED_ITEM ( 'NONE', ( #423 ), #421 ) ;
#403 = FILL_AREA_STYLE ('',( #1028 ) ) ;
#404 = CARTESIAN_POINT ( 'NONE',  ( 40.00000000000000000, 71.50000000000000000, 5.000000000000000000 ) ) ;
#405 = PRESENTATION_LAYER_ASSIGNMENT (  '', '', ( #939 ) ) ;
#406 = CARTESIAN_POINT ( 'NONE',  ( 30.00000000000000400, -51.28097245096174100, 5.000000000000019500 ) ) ;
#407 =( GEOMETRIC_REPRESENTATION_CONTEXT ( 3 ) GLOBAL_UNCERTAINTY_ASSIGNED_CONTEXT ( ( #755 ) ) GLOBAL_UNIT_ASSIGNED_CONTEXT ( ( #49, #752, #925 ) ) REPRESENTATION_CONTEXT ( 'NONE', 'WORKASPACE' ) );
#408 = VECTOR ( 'NONE', #924, 1000.000000000000000 ) ;
#409 = ORIENTED_EDGE ( 'NONE', *, *, #285, .T. ) ;
#410 = ORIENTED_EDGE ( 'NONE', *, *, #107, .F. ) ;
#411 = FACE_BOUND ( 'NONE', #1010, .T. ) ;
#412 = ORIENTED_EDGE ( 'NONE', *, *, #875, .T. ) ;
#413 = LINE ( 'NONE', #614, #645 ) ;
#414 = CARTESIAN_POINT ( 'NONE',  ( 158.3500000000000200, 64.19999999999998900, 5.000000000000000000 ) ) ;
#415 =( GEOMETRIC_REPRESENTATION_CONTEXT ( 3 ) GLOBAL_UNCERTAINTY_ASSIGNED_CONTEXT ( ( #63 ) ) GLOBAL_UNIT_ASSIGNED_CONTEXT ( ( #577, #847, #955 ) ) REPRESENTATION_CONTEXT ( 'NONE', 'WORKASPACE' ) );
#416 = AXIS2_PLACEMENT_3D ( 'NONE', #688, #615, #946 ) ;
#417 = EDGE_LOOP ( 'NONE', ( #168, #805, #356, #683 ) ) ;
#418 = ORIENTED_EDGE ( 'NONE', *, *, #899, .F. ) ;
#419 = ORIENTED_EDGE ( 'NONE', *, *, #53, .T. ) ;
#420 = EDGE_CURVE ( 'NONE', #196, #493, #289, .T. ) ;
#421 = ADVANCED_FACE ( 'NONE', ( #330 ), #478, .F. ) ;
#422 = EDGE_CURVE ( 'NONE', #383, #42, #738, .T. ) ;
#423 = PRESENTATION_STYLE_ASSIGNMENT (( #840 ) ) ;
#424 = LINE ( 'NONE', #152, #117 ) ;
#425 = AXIS2_PLACEMENT_3D ( 'NONE', #589, #591, #920 ) ;
#426 = ORIENTED_EDGE ( 'NONE', *, *, #956, .T. ) ;
#427 = VERTEX_POINT ( 'NONE', #761 ) ;
#428 = ORIENTED_EDGE ( 'NONE', *, *, #176, .T. ) ;
#429 = DIRECTION ( 'NONE',  ( 0.0000000000000000000, 0.0000000000000000000, 1.000000000000000000 ) ) ;
#430 = SURFACE_STYLE_FILL_AREA ( #789 ) ;
#431 = FILL_AREA_STYLE_COLOUR ( '', #136 ) ;
#432 = DIRECTION ( 'NONE',  ( -6.938893903907227400E-016, 1.000000000000000000, 0.0000000000000000000 ) ) ;
#433 =( GEOMETRIC_REPRESENTATION_CONTEXT ( 3 ) GLOBAL_UNCERTAINTY_ASSIGNED_CONTEXT ( ( #1029 ) ) GLOBAL_UNIT_ASSIGNED_CONTEXT ( ( #229, #968, #75 ) ) REPRESENTATION_CONTEXT ( 'NONE', 'WORKASPACE' ) );
#434 = FILL_AREA_STYLE ('',( #736 ) ) ;
#435 = ADVANCED_FACE ( 'NONE', ( #1033 ), #115, .F. ) ;
#436 = CARTESIAN_POINT ( 'NONE',  ( 10.00000000000000200, -42.28097245096172700, 5.000000000000016000 ) ) ;
#437 = DIRECTION ( 'NONE',  ( 0.0000000000000000000, 0.0000000000000000000, 1.000000000000000000 ) ) ;
#438 = DIRECTION ( 'NONE',  ( 1.000000000000000000, 0.0000000000000000000, 0.0000000000000000000 ) ) ;
#439 = PRESENTATION_LAYER_ASSIGNMENT (  '', '', ( #373 ) ) ;
#440 = ORIENTED_EDGE ( 'NONE', *, *, #1037, .T. ) ;
#441 = ORIENTED_EDGE ( 'NONE', *, *, #420, .F. ) ;
#442 = SURFACE_SIDE_STYLE ('',( #80 ) ) ;
#443 = ADVANCED_FACE ( 'NONE', ( #573 ), #169, .F. ) ;
#444 = VERTEX_POINT ( 'NONE', #759 ) ;
#445 = COLOUR_RGB ( '',1.000000000000000000, 0.0000000000000000000, 0.0000000000000000000 ) ;
#446 =( NAMED_UNIT ( * ) PLANE_ANGLE_UNIT ( ) SI_UNIT ( $, .RADIAN. ) );
#447 = EDGE_CURVE ( 'NONE', #945, #901, #464, .T. ) ;
#448 = CARTESIAN_POINT ( 'NONE',  ( 45.00000000000000000, 26.49999999999998900, 5.000000000000000000 ) ) ;
#449 = AXIS2_PLACEMENT_3D ( 'NONE', #928, #450, #677 ) ;
#450 = DIRECTION ( 'NONE',  ( 0.0000000000000000000, 0.0000000000000000000, 1.000000000000000000 ) ) ;
#451 = CARTESIAN_POINT ( 'NONE',  ( 10.00000000000000200, -51.28097245096173400, -4.999999999999981300 ) ) ;
#452 =( NAMED_UNIT ( * ) SI_UNIT ( $, .STERADIAN. ) SOLID_ANGLE_UNIT ( ) );
#453 = PRESENTATION_LAYER_ASSIGNMENT (  '', '', ( #912 ) ) ;
#454 = VECTOR ( 'NONE', #133, 1000.000000000000000 ) ;
#455 = SURFACE_STYLE_FILL_AREA ( #904 ) ;
#456 = VERTEX_POINT ( 'NONE', #523 ) ;
#457 = EDGE_LOOP ( 'NONE', ( #83, #708, #21, #384 ) ) ;
#458 = EDGE_CURVE ( 'NONE', #609, #772, #7, .T. ) ;
#459 = FACE_OUTER_BOUND ( 'NONE', #995, .T. ) ;
#460 = ORIENTED_EDGE ( 'NONE', *, *, #765, .T. ) ;
#461 = VECTOR ( 'NONE', #647, 1000.000000000000000 ) ;
#462 = CARTESIAN_POINT ( 'NONE',  ( 53.25000000000000700, 64.19999999999998900, 0.0000000000000000000 ) ) ;
#463 = DIRECTION ( 'NONE',  ( -0.0000000000000000000, -0.0000000000000000000, 1.000000000000000000 ) ) ;
#464 = LINE ( 'NONE', #521, #707 ) ;
#465 = FACE_OUTER_BOUND ( 'NONE', #895, .T. ) ;
#466 = ORIENTED_EDGE ( 'NONE', *, *, #499, .F. ) ;
#467 = FACE_BOUND ( 'NONE', #893, .T. ) ;
#468 = EDGE_LOOP ( 'NONE', ( #253, #466, #441, #961 ) ) ;
#469 =( LENGTH_UNIT ( ) NAMED_UNIT ( * ) SI_UNIT ( .MILLI., .METRE. ) );
#470 = AXIS2_PLACEMENT_3D ( 'NONE', #372, #926, #832 ) ;
#471 = DIRECTION ( 'NONE',  ( 0.0000000000000000000, 1.000000000000000000, -5.053215498074302900E-016 ) ) ;
#472 = CARTESIAN_POINT ( 'NONE',  ( 10.00000000000000200, -46.78097245096172700, 1.702522263657449100E-014 ) ) ;
#473 = PRODUCT_DEFINITION_CONTEXT ( 'detailed design', #379, 'design' ) ;
#474 = CARTESIAN_POINT ( 'NONE',  ( 155.0499999999999800, 64.19999999999998900, 0.0000000000000000000 ) ) ;
#475 = EDGE_CURVE ( 'NONE', #567, #796, #95, .T. ) ;
#476 = CARTESIAN_POINT ( 'NONE',  ( 40.00000000000000000, 31.49999999999999300, 5.000000000000000000 ) ) ;
#477 =( LENGTH_UNIT ( ) NAMED_UNIT ( * ) SI_UNIT ( .MILLI., .METRE. ) );
#478 = CYLINDRICAL_SURFACE ( 'NONE', #287, 1.650000000000012600 ) ;
#479 = CARTESIAN_POINT ( 'NONE',  ( 0.0000000000000000000, 61.50000000000001400, 9.999999999999998200 ) ) ;
#480 = FACE_OUTER_BOUND ( 'NONE', #57, .T. ) ;
#481 = EDGE_LOOP ( 'NONE', ( #731, #554, #311, #186 ) ) ;
#482 = DIRECTION ( 'NONE',  ( 1.000000000000000000, 0.0000000000000000000, 0.0000000000000000000 ) ) ;
#483 = VECTOR ( 'NONE', #881, 1000.000000000000000 ) ;
#484 = ORIENTED_EDGE ( 'NONE', *, *, #568, .T. ) ;
#485 = DIRECTION ( 'NONE',  ( 0.0000000000000000000, 0.0000000000000000000, 1.000000000000000000 ) ) ;
#486 = STYLED_ITEM ( 'NONE', ( #658 ), #750 ) ;
#487 = UNCERTAINTY_MEASURE_WITH_UNIT (LENGTH_MEASURE( 1.000000000000000100E-005 ), #774, 'distance_accuracy_value', 'NONE');
#488 = DIRECTION ( 'NONE',  ( 0.7071067811865455700, -0.7071067811865495700, 0.0000000000000000000 ) ) ;
#489 = PRODUCT_DEFINITION_FORMATION_WITH_SPECIFIED_SOURCE ( '任何', '', #804, .NOT_KNOWN. ) ;
#490 = STYLED_ITEM ( 'NONE', ( #921 ), #819 ) ;
#491 = CIRCLE ( 'NONE', #817, 4.500000000000010700 ) ;
#492 = PRESENTATION_STYLE_ASSIGNMENT (( #831 ) ) ;
#493 = VERTEX_POINT ( 'NONE', #596 ) ;
#494 = ORIENTED_EDGE ( 'NONE', *, *, #970, .T. ) ;
#495 = LINE ( 'NONE', #73, #313 ) ;
#496 =( GEOMETRIC_REPRESENTATION_CONTEXT ( 3 ) GLOBAL_UNCERTAINTY_ASSIGNED_CONTEXT ( ( #259 ) ) GLOBAL_UNIT_ASSIGNED_CONTEXT ( ( #508, #365, #996 ) ) REPRESENTATION_CONTEXT ( 'NONE', 'WORKASPACE' ) );
#497 = PRESENTATION_STYLE_ASSIGNMENT (( #781 ) ) ;
#498 = DIRECTION ( 'NONE',  ( 0.0000000000000000000, -1.000000000000000000, 3.854941057726235100E-016 ) ) ;
#499 = EDGE_CURVE ( 'NONE', #493, #12, #240, .T. ) ;
#500 = AXIS2_PLACEMENT_3D ( 'NONE', #605, #1019, #931 ) ;
#501 = VECTOR ( 'NONE', #987, 1000.000000000000000 ) ;
#502 = CARTESIAN_POINT ( 'NONE',  ( 40.00000000000000000, -61.78097245096172700, 5.000000000000023100 ) ) ;
#503 = CIRCLE ( 'NONE', #810, 1.650000000000012600 ) ;
#504 = ORIENTED_EDGE ( 'NONE', *, *, #91, .F. ) ;
#505 = VERTEX_POINT ( 'NONE', #361 ) ;
#506 = ORIENTED_EDGE ( 'NONE', *, *, #535, .F. ) ;
#507 = CYLINDRICAL_SURFACE ( 'NONE', #957, 4.500000000000003600 ) ;
#508 =( LENGTH_UNIT ( ) NAMED_UNIT ( * ) SI_UNIT ( .MILLI., .METRE. ) );
#509 = AXIS2_PLACEMENT_3D ( 'NONE', #583, #652, #511 ) ;
#510 = CARTESIAN_POINT ( 'NONE',  ( 53.25000000000000700, 64.19999999999998900, 0.0000000000000000000 ) ) ;
#511 = DIRECTION ( 'NONE',  ( 1.000000000000000000, 0.0000000000000000000, 0.0000000000000000000 ) ) ;
#512 = CIRCLE ( 'NONE', #560, 1.650000000000012600 ) ;
#513 = VERTEX_POINT ( 'NONE', #436 ) ;
#514 = FACE_BOUND ( 'NONE', #719, .T. ) ;
#515 = ORIENTED_EDGE ( 'NONE', *, *, #140, .F. ) ;
#516 = LINE ( 'NONE', #785, #254 ) ;
#517 = VECTOR ( 'NONE', #563, 1000.000000000000000 ) ;
#518 = ADVANCED_FACE ( 'NONE', ( #660 ), #582, .F. ) ;
#519 = PLANE ( 'NONE',  #102 ) ;
#520 = PRESENTATION_LAYER_ASSIGNMENT (  '', '', ( #982 ) ) ;
#521 = CARTESIAN_POINT ( 'NONE',  ( -3.061616997868386100E-016, -56.78097245096172700, 5.000000000000022200 ) ) ;
#522 =( LENGTH_UNIT ( ) NAMED_UNIT ( * ) SI_UNIT ( .MILLI., .METRE. ) );
#523 = CARTESIAN_POINT ( 'NONE',  ( 30.00000000000000400, -51.28097245096174100, 1.874807855109162200E-014 ) ) ;
#524 = FILL_AREA_STYLE ('',( #827 ) ) ;
#525 = DIRECTION ( 'NONE',  ( -0.7071067811865475700, -0.7071067811865475700, 3.573162945485297100E-016 ) ) ;
#526 = EDGE_CURVE ( 'NONE', #196, #637, #527, .T. ) ;
#527 = LINE ( 'NONE', #202, #408 ) ;
#528 = VERTEX_POINT ( 'NONE', #593 ) ;
#529 = DIRECTION ( 'NONE',  ( -0.7071067811865494600, 0.7071067811865455700, -3.573162945485287200E-016 ) ) ;
#530 = ORIENTED_EDGE ( 'NONE', *, *, #355, .T. ) ;
#531 = DIRECTION ( 'NONE',  ( 0.0000000000000000000, 0.0000000000000000000, 1.000000000000000000 ) ) ;
#532 = CIRCLE ( 'NONE', #281, 4.500000000000003600 ) ;
#533 = DIRECTION ( 'NONE',  ( 0.0000000000000000000, 0.0000000000000000000, 1.000000000000000000 ) ) ;
#534 = DIRECTION ( 'NONE',  ( 1.000000000000000000, 0.0000000000000000000, 0.0000000000000000000 ) ) ;
#535 = EDGE_CURVE ( 'NONE', #624, #427, #678, .T. ) ;
#536 = DIRECTION ( 'NONE',  ( 0.0000000000000000000, -1.000000000000000000, 3.828568698926949400E-016 ) ) ;
#537 = CARTESIAN_POINT ( 'NONE',  ( 0.0000000000000000000, -56.78097245096172700, 10.00000000000002700 ) ) ;
#538 = FILL_AREA_STYLE_COLOUR ( '', #725 ) ;
#539 = DIRECTION ( 'NONE',  ( 1.000000000000000000, 0.0000000000000000000, 0.0000000000000000000 ) ) ;
#540 = CARTESIAN_POINT ( 'NONE',  ( 30.00000000000000400, -42.28097245096172000, 1.530236672205735700E-014 ) ) ;
#541 = CIRCLE ( 'NONE', #935, 1.649999999999998600 ) ;
#542 = VECTOR ( 'NONE', #548, 1000.000000000000000 ) ;
#543 = CARTESIAN_POINT ( 'NONE',  ( 54.90000000000000600, 38.79999999999999700, 0.0000000000000000000 ) ) ;
#544 = VERTEX_POINT ( 'NONE', #367 ) ;
#545 = PRESENTATION_LAYER_ASSIGNMENT (  '', '', ( #490 ) ) ;
#546 = ORIENTED_EDGE ( 'NONE', *, *, #53, .F. ) ;
#547 = APPLICATION_PROTOCOL_DEFINITION ( 'draft international standard', 'automotive_design', 1998, #379 ) ;
#548 = DIRECTION ( 'NONE',  ( 0.0000000000000000000, 0.0000000000000000000, 1.000000000000000000 ) ) ;
#549 = EDGE_CURVE ( 'NONE', #427, #808, #290, .T. ) ;
#550 =( NAMED_UNIT ( * ) SI_UNIT ( $, .STERADIAN. ) SOLID_ANGLE_UNIT ( ) );
#551 = CARTESIAN_POINT ( 'NONE',  ( 156.7000000000000200, 64.19999999999998900, 5.000000000000000000 ) ) ;
#552 = EDGE_CURVE ( 'NONE', #456, #609, #491, .T. ) ;
#553 = COLOUR_RGB ( '',1.000000000000000000, 0.0000000000000000000, 0.0000000000000000000 ) ;
#554 = ORIENTED_EDGE ( 'NONE', *, *, #91, .T. ) ;
#555 = AXIS2_PLACEMENT_3D ( 'NONE', #657, #429, #747 ) ;
#556 = CARTESIAN_POINT ( 'NONE',  ( 158.3500000000000200, 64.19999999999998900, 0.0000000000000000000 ) ) ;
#557 = CARTESIAN_POINT ( 'NONE',  ( 155.0499999999999800, 64.19999999999998900, 0.0000000000000000000 ) ) ;
#558 = DIRECTION ( 'NONE',  ( 0.0000000000000000000, 0.0000000000000000000, 1.000000000000000000 ) ) ;
#559 = AXIS2_PLACEMENT_3D ( 'NONE', #231, #400, #629 ) ;
#560 = AXIS2_PLACEMENT_3D ( 'NONE', #786, #309, #865 ) ;
#561 = CARTESIAN_POINT ( 'NONE',  ( 156.7000000000000200, 38.79999999999999700, 0.0000000000000000000 ) ) ;
#562 = COLOUR_RGB ( '',1.000000000000000000, 0.0000000000000000000, 0.0000000000000000000 ) ;
#563 = DIRECTION ( 'NONE',  ( 0.0000000000000000000, 3.828568698926949400E-016, 1.000000000000000000 ) ) ;
#564 = LINE ( 'NONE', #317, #20 ) ;
#565 = EDGE_LOOP ( 'NONE', ( #948, #870, #611, #602 ) ) ;
#566 = CARTESIAN_POINT ( 'NONE',  ( 10.00000000000000200, -46.78097245096172700, -4.999999999999983100 ) ) ;
#567 = VERTEX_POINT ( 'NONE', #782 ) ;
#568 = EDGE_CURVE ( 'NONE', #493, #625, #1020, .T. ) ;
#569 = CIRCLE ( 'NONE', #748, 4.500000000000010700 ) ;
#570 = UNCERTAINTY_MEASURE_WITH_UNIT (LENGTH_MEASURE( 1.000000000000000100E-005 ), #675, 'distance_accuracy_value', 'NONE');
#571 = AXIS2_PLACEMENT_3D ( 'NONE', #888, #485, #2 ) ;
#572 = DIRECTION ( 'NONE',  ( -6.938893903907227400E-016, 1.000000000000000000, 0.0000000000000000000 ) ) ;
#573 = FACE_OUTER_BOUND ( 'NONE', #371, .T. ) ;
#574 = DIRECTION ( 'NONE',  ( 0.0000000000000000000, 0.0000000000000000000, 1.000000000000000000 ) ) ;
#575 = ORIENTED_EDGE ( 'NONE', *, *, #176, .F. ) ;
#576 = STYLED_ITEM ( 'NONE', ( #322 ), #45 ) ;
#577 =( LENGTH_UNIT ( ) NAMED_UNIT ( * ) SI_UNIT ( .MILLI., .METRE. ) );
#578 = CARTESIAN_POINT ( 'NONE',  ( 10.00000000000003700, 71.50000000000000000, 5.000000000000000000 ) ) ;
#579 =( LENGTH_UNIT ( ) NAMED_UNIT ( * ) SI_UNIT ( .MILLI., .METRE. ) );
#580 = CARTESIAN_POINT ( 'NONE',  ( 158.3500000000000200, 38.79999999999999700, 0.0000000000000000000 ) ) ;
#581 = COLOUR_RGB ( '',1.000000000000000000, 0.0000000000000000000, 0.0000000000000000000 ) ;
#582 = CYLINDRICAL_SURFACE ( 'NONE', #208, 4.500000000000010700 ) ;
#583 = CARTESIAN_POINT ( 'NONE',  ( 54.90000000000000600, 64.19999999999998900, 5.000000000000000000 ) ) ;
#584 = VERTEX_POINT ( 'NONE', #889 ) ;
#585 = ORIENTED_EDGE ( 'NONE', *, *, #792, .T. ) ;
#586 = FACE_BOUND ( 'NONE', #973, .T. ) ;
#587 = ORIENTED_EDGE ( 'NONE', *, *, #607, .F. ) ;
#588 = CARTESIAN_POINT ( 'NONE',  ( 159.9999999999999700, 71.50000000000000000, 0.0000000000000000000 ) ) ;
#589 = CARTESIAN_POINT ( 'NONE',  ( 10.00000000000000200, -46.78097245096172700, 5.000000000000017800 ) ) ;
#590 =( GEOMETRIC_REPRESENTATION_CONTEXT ( 3 ) GLOBAL_UNCERTAINTY_ASSIGNED_CONTEXT ( ( #816 ) ) GLOBAL_UNIT_ASSIGNED_CONTEXT ( ( #469, #391, #550 ) ) REPRESENTATION_CONTEXT ( 'NONE', 'WORKASPACE' ) );
#591 = DIRECTION ( 'NONE',  ( 0.0000000000000000000, 3.828568698926949400E-016, 1.000000000000000000 ) ) ;
#592 = CARTESIAN_POINT ( 'NONE',  ( 54.90000000000000600, 38.79999999999999700, 0.0000000000000000000 ) ) ;
#593 = CARTESIAN_POINT ( 'NONE',  ( 10.00000000000000200, -42.28097245096172700, 1.530236672205736000E-014 ) ) ;
#594 = ADVANCED_FACE ( 'NONE', ( #639 ), #975, .F. ) ;
#595 = DIRECTION ( 'NONE',  ( 1.000000000000000000, 6.938893903907227400E-016, 0.0000000000000000000 ) ) ;
#596 = CARTESIAN_POINT ( 'NONE',  ( 45.00000000000000000, 31.49999999999999300, 5.000000000000000000 ) ) ;
#597 = SURFACE_SIDE_STYLE ('',( #201 ) ) ;
#598 = CLOSED_SHELL ( 'NONE', ( #730, #986, #421, #443, #435, #750, #127, #179, #672, #279, #112, #594, #814, #185, #518, #910, #833, #346, #108, #994, #819, #362, #353, #45 ) ) ;
#599 = CARTESIAN_POINT ( 'NONE',  ( 40.00000000000000000, -61.78097245096172700, 2.297141219356170600E-014 ) ) ;
#600 = DIRECTION ( 'NONE',  ( 0.0000000000000000000, -1.000000000000000000, 3.854941057726235100E-016 ) ) ;
#601 = EDGE_CURVE ( 'NONE', #293, #772, #274, .T. ) ;
#602 = ORIENTED_EDGE ( 'NONE', *, *, #164, .T. ) ;
#603 =( GEOMETRIC_REPRESENTATION_CONTEXT ( 3 ) GLOBAL_UNCERTAINTY_ASSIGNED_CONTEXT ( ( #129 ) ) GLOBAL_UNIT_ASSIGNED_CONTEXT ( ( #141, #446, #756 ) ) REPRESENTATION_CONTEXT ( 'NONE', 'WORKASPACE' ) );
#604 = CARTESIAN_POINT ( 'NONE',  ( 45.00000000000000000, 31.49999999999999300, 0.0000000000000000000 ) ) ;
#605 = CARTESIAN_POINT ( 'NONE',  ( 30.00000000000000400, -46.78097245096172700, 5.000000000000017800 ) ) ;
#606 =( NAMED_UNIT ( * ) SI_UNIT ( $, .STERADIAN. ) SOLID_ANGLE_UNIT ( ) );
#607 = EDGE_CURVE ( 'NONE', #624, #985, #424, .T. ) ;
#608 = DIRECTION ( 'NONE',  ( 0.0000000000000000000, -5.053215498074302900E-016, -1.000000000000000000 ) ) ;
#609 = VERTEX_POINT ( 'NONE', #540 ) ;
#610 = DIRECTION ( 'NONE',  ( 0.0000000000000000000, 0.0000000000000000000, 1.000000000000000000 ) ) ;
#611 = ORIENTED_EDGE ( 'NONE', *, *, #906, .T. ) ;
#612 = FILL_AREA_STYLE_COLOUR ( '', #445 ) ;
#613 = CIRCLE ( 'NONE', #864, 1.649999999999998600 ) ;
#614 = CARTESIAN_POINT ( 'NONE',  ( 40.00000000000000000, 71.50000000000000000, 0.0000000000000000000 ) ) ;
#615 = DIRECTION ( 'NONE',  ( 0.0000000000000000000, 0.0000000000000000000, 1.000000000000000000 ) ) ;
#616 = CARTESIAN_POINT ( 'NONE',  ( 10.00000000000000200, -46.78097245096172700, 1.702522263657449100E-014 ) ) ;
#617 = EDGE_CURVE ( 'NONE', #625, #344, #210, .T. ) ;
#618 = PRODUCT_CONTEXT ( 'NONE', #791, 'mechanical' ) ;
#619 = CARTESIAN_POINT ( 'NONE',  ( 0.0000000000000000000, 8.219027549038274900, 4.999999999999996400 ) ) ;
#620 = DIRECTION ( 'NONE',  ( 1.000000000000000000, 0.0000000000000000000, 0.0000000000000000000 ) ) ;
#621 = ORIENTED_EDGE ( 'NONE', *, *, #824, .T. ) ;
#622 = VERTEX_POINT ( 'NONE', #942 ) ;
#623 = STYLED_ITEM ( 'NONE', ( #40 ), #443 ) ;
#624 = VERTEX_POINT ( 'NONE', #218 ) ;
#625 = VERTEX_POINT ( 'NONE', #204 ) ;
#626 = PRESENTATION_STYLE_ASSIGNMENT (( #35 ) ) ;
#627 = DIRECTION ( 'NONE',  ( 0.0000000000000000000, 1.000000000000000000, -3.828568698926951900E-016 ) ) ;
#628 = DIRECTION ( 'NONE',  ( 0.0000000000000000000, 0.0000000000000000000, 1.000000000000000000 ) ) ;
#629 = DIRECTION ( 'NONE',  ( 1.000000000000000000, 0.0000000000000000000, 0.0000000000000000000 ) ) ;
#630 = MECHANICAL_DESIGN_GEOMETRIC_PRESENTATION_REPRESENTATION (  '', ( #217 ), #255 ) ;
#631 = FACE_OUTER_BOUND ( 'NONE', #565, .T. ) ;
#632 = PRESENTATION_STYLE_ASSIGNMENT (( #126 ) ) ;
#633 = EDGE_CURVE ( 'NONE', #780, #291, #541, .T. ) ;
#634 = ORIENTED_EDGE ( 'NONE', *, *, #854, .T. ) ;
#635 = EDGE_LOOP ( 'NONE', ( #778, #418 ) ) ;
#636 = VECTOR ( 'NONE', #661, 1000.000000000000000 ) ;
#637 = VERTEX_POINT ( 'NONE', #788 ) ;
#638 = AXIS2_PLACEMENT_3D ( 'NONE', #221, #151, #620 ) ;
#639 = FACE_OUTER_BOUND ( 'NONE', #417, .T. ) ;
#640 = ORIENTED_EDGE ( 'NONE', *, *, #526, .F. ) ;
#641 = CARTESIAN_POINT ( 'NONE',  ( 34.99999999999999300, -61.78097245096172700, 2.297141219356170600E-014 ) ) ;
#642 = EDGE_LOOP ( 'NONE', ( #335, #826, #884, #575 ) ) ;
#643 = ORIENTED_EDGE ( 'NONE', *, *, #568, .F. ) ;
#644 = MECHANICAL_DESIGN_GEOMETRIC_PRESENTATION_REPRESENTATION (  '', ( #373 ), #496 ) ;
#645 = VECTOR ( 'NONE', #729, 1000.000000000000000 ) ;
#646 = AXIS2_PLACEMENT_3D ( 'NONE', #283, #533, #671 ) ;
#647 = DIRECTION ( 'NONE',  ( 0.0000000000000000000, 0.0000000000000000000, 1.000000000000000000 ) ) ;
#648 = CIRCLE ( 'NONE', #966, 1.650000000000012600 ) ;
#649 = ORIENTED_EDGE ( 'NONE', *, *, #107, .T. ) ;
#650 = FACE_BOUND ( 'NONE', #262, .T. ) ;
#651 = EDGE_LOOP ( 'NONE', ( #263, #494, #178, #412, #587, #43, #991, #903, #933, #357 ) ) ;
#652 = DIRECTION ( 'NONE',  ( 0.0000000000000000000, 0.0000000000000000000, 1.000000000000000000 ) ) ;
#653 = AXIS2_PLACEMENT_3D ( 'NONE', #79, #24, #728 ) ;
#654 = LINE ( 'NONE', #992, #461 ) ;
#655 =( NAMED_UNIT ( * ) SI_UNIT ( $, .STERADIAN. ) SOLID_ANGLE_UNIT ( ) );
#656 = CARTESIAN_POINT ( 'NONE',  ( 56.55000000000000400, 38.79999999999999700, 5.000000000000000000 ) ) ;
#657 = CARTESIAN_POINT ( 'NONE',  ( 156.7000000000000200, 38.79999999999999700, 0.0000000000000000000 ) ) ;
#658 = PRESENTATION_STYLE_ASSIGNMENT (( #224 ) ) ;
#659 = SURFACE_SIDE_STYLE ('',( #964 ) ) ;
#660 = FACE_OUTER_BOUND ( 'NONE', #308, .T. ) ;
#661 = DIRECTION ( 'NONE',  ( 0.0000000000000000000, 0.0000000000000000000, 1.000000000000000000 ) ) ;
#662 = LINE ( 'NONE', #4, #307 ) ;
#663 = EDGE_LOOP ( 'NONE', ( #504, #105, #530, #993 ) ) ;
#664 = FACE_BOUND ( 'NONE', #99, .T. ) ;
#665 = SURFACE_STYLE_USAGE ( .BOTH. , #442 ) ;
#666 = ORIENTED_EDGE ( 'NONE', *, *, #1004, .T. ) ;
#667 = CARTESIAN_POINT ( 'NONE',  ( 40.00000000000000000, 26.49999999999998900, 5.000000000000000000 ) ) ;
#668 = EDGE_CURVE ( 'NONE', #746, #972, #103, .T. ) ;
#669 = SURFACE_SIDE_STYLE ('',( #455 ) ) ;
#670 = AXIS2_PLACEMENT_3D ( 'NONE', #769, #531, #846 ) ;
#671 = DIRECTION ( 'NONE',  ( 1.000000000000000000, 0.0000000000000000000, 0.0000000000000000000 ) ) ;
#672 = ADVANCED_FACE ( 'NONE', ( #381 ), #1027, .T. ) ;
#673 =( LENGTH_UNIT ( ) NAMED_UNIT ( * ) SI_UNIT ( .MILLI., .METRE. ) );
#674 =( NAMED_UNIT ( * ) SI_UNIT ( $, .STERADIAN. ) SOLID_ANGLE_UNIT ( ) );
#675 =( LENGTH_UNIT ( ) NAMED_UNIT ( * ) SI_UNIT ( .MILLI., .METRE. ) );
#676 = AXIS2_PLACEMENT_3D ( 'NONE', #783, #66, #482 ) ;
#677 = DIRECTION ( 'NONE',  ( 1.000000000000000000, 0.0000000000000000000, 0.0000000000000000000 ) ) ;
#678 = LINE ( 'NONE', #768, #248 ) ;
#679 = DIRECTION ( 'NONE',  ( 0.0000000000000000000, -3.828568698926949400E-016, -1.000000000000000000 ) ) ;
#680 = VERTEX_POINT ( 'NONE', #1016 ) ;
#681 = ORIENTED_EDGE ( 'NONE', *, *, #130, .F. ) ;
#682 = LINE ( 'NONE', #697, #33 ) ;
#683 = ORIENTED_EDGE ( 'NONE', *, *, #765, .F. ) ;
#684 = SURFACE_STYLE_USAGE ( .BOTH. , #203 ) ;
#685 = DIRECTION ( 'NONE',  ( 0.0000000000000000000, 3.828568698926949400E-016, 1.000000000000000000 ) ) ;
#686 = VECTOR ( 'NONE', #345, 1000.000000000000100 ) ;
#687 = EDGE_CURVE ( 'NONE', #985, #945, #990, .T. ) ;
#688 = CARTESIAN_POINT ( 'NONE',  ( 54.90000000000000600, 38.79999999999999700, 0.0000000000000000000 ) ) ;
#689 = DIRECTION ( 'NONE',  ( 0.0000000000000000000, 0.0000000000000000000, 1.000000000000000000 ) ) ;
#690 = FILL_AREA_STYLE ('',( #148 ) ) ;
#691 = AXIS2_PLACEMENT_3D ( 'NONE', #227, #388, #219 ) ;
#692 = LINE ( 'NONE', #11, #249 ) ;
#693 = ORIENTED_EDGE ( 'NONE', *, *, #687, .F. ) ;
#694 = ORIENTED_EDGE ( 'NONE', *, *, #1021, .F. ) ;
#695 = DIRECTION ( 'NONE',  ( 0.0000000000000000000, 5.053215498074302900E-016, 1.000000000000000000 ) ) ;
#696 = FACE_BOUND ( 'NONE', #236, .T. ) ;
#697 = CARTESIAN_POINT ( 'NONE',  ( 0.0000000000000000000, 61.50000000000001400, 5.000000000000000000 ) ) ;
#698 = ORIENTED_EDGE ( 'NONE', *, *, #285, .F. ) ;
#699 = DIRECTION ( 'NONE',  ( 0.7071067811865455700, 0.7071067811865493500, -2.707206889249810000E-016 ) ) ;
#700 = DIRECTION ( 'NONE',  ( 0.0000000000000000000, -1.000000000000000000, 3.828568698926949400E-016 ) ) ;
#701 = ORIENTED_EDGE ( 'NONE', *, *, #906, .F. ) ;
#702 = EDGE_CURVE ( 'NONE', #772, #293, #932, .T. ) ;
#703 = DIRECTION ( 'NONE',  ( 1.000000000000000000, 0.0000000000000000000, 0.0000000000000000000 ) ) ;
#704 = PLANE ( 'NONE',  #653 ) ;
#705 = VECTOR ( 'NONE', #286, 1000.000000000000000 ) ;
#706 = DIRECTION ( 'NONE',  ( -0.7071067811865495700, -0.7071067811865455700, -0.0000000000000000000 ) ) ;
#707 = VECTOR ( 'NONE', #842, 1000.000000000000100 ) ;
#708 = ORIENTED_EDGE ( 'NONE', *, *, #143, .F. ) ;
#709 = AXIS2_PLACEMENT_3D ( 'NONE', #448, #47, #1011 ) ;
#710 = ORIENTED_EDGE ( 'NONE', *, *, #601, .F. ) ;
#711 = ORIENTED_EDGE ( 'NONE', *, *, #668, .F. ) ;
#712 = DIRECTION ( 'NONE',  ( 1.000000000000000000, 0.0000000000000000000, 0.0000000000000000000 ) ) ;
#713 = ORIENTED_EDGE ( 'NONE', *, *, #633, .T. ) ;
#714 = CIRCLE ( 'NONE', #425, 4.500000000000003600 ) ;
#715 = LINE ( 'NONE', #502, #923 ) ;
#716 = ORIENTED_EDGE ( 'NONE', *, *, #981, .T. ) ;
#717 =( NAMED_UNIT ( * ) PLANE_ANGLE_UNIT ( ) SI_UNIT ( $, .RADIAN. ) );
#718 = AXIS2_PLACEMENT_3D ( 'NONE', #396, #689, #953 ) ;
#719 = EDGE_LOOP ( 'NONE', ( #694, #740 ) ) ;
#720 = UNCERTAINTY_MEASURE_WITH_UNIT (LENGTH_MEASURE( 1.000000000000000100E-005 ), #158, 'distance_accuracy_value', 'NONE');
#721 = VECTOR ( 'NONE', #375, 1000.000000000000000 ) ;
#722 = VECTOR ( 'NONE', #163, 1000.000000000000000 ) ;
#723 = ORIENTED_EDGE ( 'NONE', *, *, #458, .F. ) ;
#724 = ORIENTED_EDGE ( 'NONE', *, *, #143, .T. ) ;
#725 = COLOUR_RGB ( '',1.000000000000000000, 1.000000000000000000, 1.000000000000000000 ) ;
#726 = EDGE_CURVE ( 'NONE', #206, #188, #803, .T. ) ;
#727 = STYLED_ITEM ( 'NONE', ( #632 ), #518 ) ;
#728 = DIRECTION ( 'NONE',  ( 0.0000000000000000000, 1.000000000000000000, -3.828568698926949400E-016 ) ) ;
#729 = DIRECTION ( 'NONE',  ( -1.000000000000000000, 0.0000000000000000000, 0.0000000000000000000 ) ) ;
#730 = ADVANCED_FACE ( 'NONE', ( #892 ), #891, .F. ) ;
#731 = ORIENTED_EDGE ( 'NONE', *, *, #327, .F. ) ;
#732 = ORIENTED_EDGE ( 'NONE', *, *, #549, .F. ) ;
#733 = DIRECTION ( 'NONE',  ( 0.0000000000000000000, 0.0000000000000000000, 1.000000000000000000 ) ) ;
#734 = CARTESIAN_POINT ( 'NONE',  ( 30.00000000000000400, -46.78097245096172700, 1.702522263657449100E-014 ) ) ;
#735 = CARTESIAN_POINT ( 'NONE',  ( 156.7000000000000200, 64.19999999999998900, 0.0000000000000000000 ) ) ;
#736 = FILL_AREA_STYLE_COLOUR ( '', #883 ) ;
#737 = SURFACE_STYLE_USAGE ( .BOTH. , #111 ) ;
#738 = LINE ( 'NONE', #599, #705 ) ;
#739 = VECTOR ( 'NONE', #339, 1000.000000000000000 ) ;
#740 = ORIENTED_EDGE ( 'NONE', *, *, #200, .F. ) ;
#741 = DIRECTION ( 'NONE',  ( 0.0000000000000000000, -3.828568698926949400E-016, -1.000000000000000000 ) ) ;
#742 = EDGE_LOOP ( 'NONE', ( #292, #226, #869, #515 ) ) ;
#743 = ORIENTED_EDGE ( 'NONE', *, *, #526, .T. ) ;
#744 = PRODUCT_RELATED_PRODUCT_CATEGORY ( 'part', '', ( #804 ) ) ;
#745 = LINE ( 'NONE', #557, #947 ) ;
#746 = VERTEX_POINT ( 'NONE', #306 ) ;
#747 = DIRECTION ( 'NONE',  ( 1.000000000000000000, 0.0000000000000000000, 0.0000000000000000000 ) ) ;
#748 = AXIS2_PLACEMENT_3D ( 'NONE', #734, #741, #911 ) ;
#749 = CARTESIAN_POINT ( 'NONE',  ( 56.55000000000000400, 64.19999999999998900, 0.0000000000000000000 ) ) ;
#750 = ADVANCED_FACE ( 'NONE', ( #480 ), #507, .F. ) ;
#751 = VECTOR ( 'NONE', #733, 1000.000000000000000 ) ;
#752 =( NAMED_UNIT ( * ) PLANE_ANGLE_UNIT ( ) SI_UNIT ( $, .RADIAN. ) );
#753 = PLANE ( 'NONE',  #109 ) ;
#754 =( NAMED_UNIT ( * ) PLANE_ANGLE_UNIT ( ) SI_UNIT ( $, .RADIAN. ) );
#755 = UNCERTAINTY_MEASURE_WITH_UNIT (LENGTH_MEASURE( 1.000000000000000100E-005 ), #49, 'distance_accuracy_value', 'NONE');
#756 =( NAMED_UNIT ( * ) SI_UNIT ( $, .STERADIAN. ) SOLID_ANGLE_UNIT ( ) );
#757 = FILL_AREA_STYLE ('',( #998 ) ) ;
#758 = PRESENTATION_LAYER_ASSIGNMENT (  '', '', ( #576 ) ) ;
#759 = CARTESIAN_POINT ( 'NONE',  ( 158.3500000000000200, 38.79999999999999700, 5.000000000000000000 ) ) ;
#760 = SURFACE_STYLE_FILL_AREA ( #197 ) ;
#761 = CARTESIAN_POINT ( 'NONE',  ( 10.00000000000003700, 71.50000000000000000, 0.0000000000000000000 ) ) ;
#762 = ORIENTED_EDGE ( 'NONE', *, *, #989, .F. ) ;
#763 = ORIENTED_EDGE ( 'NONE', *, *, #549, .T. ) ;
#764 = FACE_BOUND ( 'NONE', #880, .T. ) ;
#765 = EDGE_CURVE ( 'NONE', #383, #544, #14, .T. ) ;
#766 = LINE ( 'NONE', #905, #751 ) ;
#767 = AXIS2_PLACEMENT_3D ( 'NONE', #44, #983, #30 ) ;
#768 = CARTESIAN_POINT ( 'NONE',  ( 25.00000000000010700, 86.49999999999998600, 0.0000000000000000000 ) ) ;
#769 = CARTESIAN_POINT ( 'NONE',  ( 54.90000000000000600, 38.79999999999999700, 5.000000000000000000 ) ) ;
#770 =( LENGTH_UNIT ( ) NAMED_UNIT ( * ) SI_UNIT ( .MILLI., .METRE. ) );
#771 = CARTESIAN_POINT ( 'NONE',  ( 159.9999999999999700, 71.50000000000000000, 5.000000000000000000 ) ) ;
#772 = VERTEX_POINT ( 'NONE', #952 ) ;
#773 = PRESENTATION_LAYER_ASSIGNMENT (  '', '', ( #217 ) ) ;
#774 =( LENGTH_UNIT ( ) NAMED_UNIT ( * ) SI_UNIT ( .MILLI., .METRE. ) );
#775 = CARTESIAN_POINT ( 'NONE',  ( 40.00000000000000000, 26.49999999999998900, 5.000000000000000000 ) ) ;
#776 = SURFACE_SIDE_STYLE ('',( #430 ) ) ;
#777 = ORIENTED_EDGE ( 'NONE', *, *, #38, .F. ) ;
#778 = ORIENTED_EDGE ( 'NONE', *, *, #552, .F. ) ;
#779 = VECTOR ( 'NONE', #222, 1000.000000000000000 ) ;
#780 = VERTEX_POINT ( 'NONE', #462 ) ;
#781 = SURFACE_STYLE_USAGE ( .BOTH. , #856 ) ;
#782 = CARTESIAN_POINT ( 'NONE',  ( 56.55000000000000400, 64.19999999999998900, 5.000000000000000000 ) ) ;
#783 = CARTESIAN_POINT ( 'NONE',  ( 54.90000000000000600, 38.79999999999999700, 0.0000000000000000000 ) ) ;
#784 = EDGE_CURVE ( 'NONE', #505, #295, #495, .T. ) ;
#785 = CARTESIAN_POINT ( 'NONE',  ( 0.0000000000000000000, 61.50000000000001400, 9.999999999999998200 ) ) ;
#786 = CARTESIAN_POINT ( 'NONE',  ( 156.7000000000000200, 38.79999999999999700, 5.000000000000000000 ) ) ;
#787 = DIRECTION ( 'NONE',  ( 0.7071067811865495700, 0.7071067811865455700, -0.0000000000000000000 ) ) ;
#788 = CARTESIAN_POINT ( 'NONE',  ( 40.00000000000000000, -56.78097245096169800, 5.000000000000022200 ) ) ;
#789 = FILL_AREA_STYLE ('',( #612 ) ) ;
#790 = CARTESIAN_POINT ( 'NONE',  ( 158.3500000000000200, 64.19999999999998900, 0.0000000000000000000 ) ) ;
#791 = APPLICATION_CONTEXT ( 'automotive_design' ) ;
#792 = EDGE_CURVE ( 'NONE', #513, #188, #714, .T. ) ;
#793 = PRESENTATION_LAYER_ASSIGNMENT (  '', '', ( #727 ) ) ;
#794 = ORIENTED_EDGE ( 'NONE', *, *, #601, .T. ) ;
#795 = CARTESIAN_POINT ( 'NONE',  ( 155.0499999999999800, 38.79999999999999700, 0.0000000000000000000 ) ) ;
#796 = VERTEX_POINT ( 'NONE', #125 ) ;
#797 = CARTESIAN_POINT ( 'NONE',  ( 5.000000000000004400, -61.78097245096172700, 2.297141219356170600E-014 ) ) ;
#798 = DIRECTION ( 'NONE',  ( 0.0000000000000000000, 0.0000000000000000000, 1.000000000000000000 ) ) ;
#799 = VECTOR ( 'NONE', #116, 1000.000000000000100 ) ;
#800 = EDGE_CURVE ( 'NONE', #972, #746, #855, .T. ) ;
#801 = DIRECTION ( 'NONE',  ( 0.0000000000000000000, 1.000000000000000000, -5.053215498074302900E-016 ) ) ;
#802 = DIRECTION ( 'NONE',  ( 1.000000000000000000, 0.0000000000000000000, 0.0000000000000000000 ) ) ;
#803 = LINE ( 'NONE', #451, #721 ) ;
#804 = PRODUCT ( 'Q235-5.0-BAN7-N1', 'Q235-5.0-BAN7-N1', '', ( #618 ) ) ;
#805 = ORIENTED_EDGE ( 'NONE', *, *, #15, .F. ) ;
#806 = ORIENTED_EDGE ( 'NONE', *, *, #182, .T. ) ;
#807 = PRESENTATION_STYLE_ASSIGNMENT (( #193 ) ) ;
#808 = VERTEX_POINT ( 'NONE', #578 ) ;
#809 = STYLED_ITEM ( 'NONE', ( #626 ), #910 ) ;
#810 = AXIS2_PLACEMENT_3D ( 'NONE', #551, #558, #878 ) ;
#811 = ORIENTED_EDGE ( 'NONE', *, *, #1021, .T. ) ;
#812 = SURFACE_STYLE_FILL_AREA ( #818 ) ;
#813 = DIRECTION ( 'NONE',  ( 0.0000000000000000000, 3.828568698926949400E-016, 1.000000000000000000 ) ) ;
#814 = ADVANCED_FACE ( 'NONE', ( #997 ), #753, .T. ) ;
#815 = EDGE_CURVE ( 'NONE', #1017, #277, #951, .T. ) ;
#816 = UNCERTAINTY_MEASURE_WITH_UNIT (LENGTH_MEASURE( 1.000000000000000100E-005 ), #469, 'distance_accuracy_value', 'NONE');
#817 = AXIS2_PLACEMENT_3D ( 'NONE', #10, #237, #167 ) ;
#818 = FILL_AREA_STYLE ('',( #267 ) ) ;
#819 = ADVANCED_FACE ( 'NONE', ( #336 ), #282, .F. ) ;
#820 = CARTESIAN_POINT ( 'NONE',  ( 72.49999999999998600, -24.28097245096153500, 8.614279572585565900E-015 ) ) ;
#821 = FILL_AREA_STYLE_COLOUR ( '', #553 ) ;
#822 = ORIENTED_EDGE ( 'NONE', *, *, #420, .T. ) ;
#823 = ORIENTED_EDGE ( 'NONE', *, *, #62, .F. ) ;
#824 = EDGE_CURVE ( 'NONE', #622, #882, #613, .T. ) ;
#825 = VECTOR ( 'NONE', #437, 1000.000000000000000 ) ;
#826 = ORIENTED_EDGE ( 'NONE', *, *, #458, .T. ) ;
#827 = FILL_AREA_STYLE_COLOUR ( '', #162 ) ;
#828 = EDGE_CURVE ( 'NONE', #12, #505, #36, .T. ) ;
#829 = UNCERTAINTY_MEASURE_WITH_UNIT (LENGTH_MEASURE( 1.000000000000000100E-005 ), #205, 'distance_accuracy_value', 'NONE');
#830 = CARTESIAN_POINT ( 'NONE',  ( 10.00000000000000200, -51.28097245096173400, 1.874807855109161900E-014 ) ) ;
#831 = SURFACE_STYLE_USAGE ( .BOTH. , #669 ) ;
#832 = DIRECTION ( 'NONE',  ( 0.0000000000000000000, -1.000000000000000000, 3.854941057726228700E-016 ) ) ;
#833 = ADVANCED_FACE ( 'NONE', ( #389 ), #394, .T. ) ;
#834 = ORIENTED_EDGE ( 'NONE', *, *, #340, .F. ) ;
#835 = FILL_AREA_STYLE ('',( #431 ) ) ;
#836 = EDGE_CURVE ( 'NONE', #212, #624, #516, .T. ) ;
#837 = EDGE_LOOP ( 'NONE', ( #84, #460, #426, #242 ) ) ;
#838 = DIRECTION ( 'NONE',  ( 1.000000000000000000, 0.0000000000000000000, 0.0000000000000000000 ) ) ;
#839 = ORIENTED_EDGE ( 'NONE', *, *, #246, .F. ) ;
#840 = SURFACE_STYLE_USAGE ( .BOTH. , #199 ) ;
#841 =( GEOMETRIC_REPRESENTATION_CONTEXT ( 3 ) GLOBAL_UNCERTAINTY_ASSIGNED_CONTEXT ( ( #358 ) ) GLOBAL_UNIT_ASSIGNED_CONTEXT ( ( #522, #131, #674 ) ) REPRESENTATION_CONTEXT ( 'NONE', 'WORKASPACE' ) );
#842 = DIRECTION ( 'NONE',  ( 0.7071067811865474600, -0.7071067811865474600, 2.707206889249803100E-016 ) ) ;
#843 = FILL_AREA_STYLE ('',( #845 ) ) ;
#844 = AXIS2_PLACEMENT_3D ( 'NONE', #561, #72, #919 ) ;
#845 = FILL_AREA_STYLE_COLOUR ( '', #341 ) ;
#846 = DIRECTION ( 'NONE',  ( 1.000000000000000000, 0.0000000000000000000, 0.0000000000000000000 ) ) ;
#847 =( NAMED_UNIT ( * ) PLANE_ANGLE_UNIT ( ) SI_UNIT ( $, .RADIAN. ) );
#848 = ORIENTED_EDGE ( 'NONE', *, *, #726, .T. ) ;
#849 = ORIENTED_EDGE ( 'NONE', *, *, #897, .T. ) ;
#850 = ORIENTED_EDGE ( 'NONE', *, *, #800, .F. ) ;
#851 = LINE ( 'NONE', #261, #636 ) ;
#852 = ADVANCED_BREP_SHAPE_REPRESENTATION ( 'Q235-5.0-BAN7-N1', ( #183, #718 ), #415 ) ;
#853 = ORIENTED_EDGE ( 'NONE', *, *, #447, .T. ) ;
#854 = EDGE_CURVE ( 'NONE', #974, #427, #413, .T. ) ;
#855 = CIRCLE ( 'NONE', #1007, 1.649999999999998600 ) ;
#856 = SURFACE_SIDE_STYLE ('',( #954 ) ) ;
#857 =( NAMED_UNIT ( * ) SI_UNIT ( $, .STERADIAN. ) SOLID_ANGLE_UNIT ( ) );
#858 = DIRECTION ( 'NONE',  ( 0.0000000000000000000, 0.0000000000000000000, 1.000000000000000000 ) ) ;
#859 = FILL_AREA_STYLE ('',( #538 ) ) ;
#860 = DIRECTION ( 'NONE',  ( 0.0000000000000000000, 0.0000000000000000000, 1.000000000000000000 ) ) ;
#861 = DIRECTION ( 'NONE',  ( 0.0000000000000000000, 5.053215498074302900E-016, 1.000000000000000000 ) ) ;
#862 = DIRECTION ( 'NONE',  ( 0.0000000000000000000, 1.000000000000000000, -3.828568698926951900E-016 ) ) ;
#863 = SURFACE_STYLE_USAGE ( .BOTH. , #776 ) ;
#864 = AXIS2_PLACEMENT_3D ( 'NONE', #543, #157, #703 ) ;
#865 = DIRECTION ( 'NONE',  ( 1.000000000000000000, 0.0000000000000000000, 0.0000000000000000000 ) ) ;
#866 = CARTESIAN_POINT ( 'NONE',  ( 45.00000000000000000, 31.49999999999999300, 0.0000000000000000000 ) ) ;
#867 = CARTESIAN_POINT ( 'NONE',  ( 54.90000000000000600, 64.19999999999998900, 0.0000000000000000000 ) ) ;
#868 = DIRECTION ( 'NONE',  ( 1.000000000000000000, 0.0000000000000000000, 0.0000000000000000000 ) ) ;
#869 = ORIENTED_EDGE ( 'NONE', *, *, #989, .T. ) ;
#870 = ORIENTED_EDGE ( 'NONE', *, *, #815, .F. ) ;
#871 = UNCERTAINTY_MEASURE_WITH_UNIT (LENGTH_MEASURE( 1.000000000000000100E-005 ), #579, 'distance_accuracy_value', 'NONE');
#872 = FACE_OUTER_BOUND ( 'NONE', #468, .T. ) ;
#873 = PRESENTATION_LAYER_ASSIGNMENT (  '', '', ( #27 ) ) ;
#874 = PLANE ( 'NONE',  #160 ) ;
#875 = EDGE_CURVE ( 'NONE', #42, #985, #297, .T. ) ;
#876 = DIRECTION ( 'NONE',  ( 1.000000000000000000, 0.0000000000000000000, 0.0000000000000000000 ) ) ;
#877 = PRESENTATION_LAYER_ASSIGNMENT (  '', '', ( #623 ) ) ;
#878 = DIRECTION ( 'NONE',  ( 1.000000000000000000, 0.0000000000000000000, 0.0000000000000000000 ) ) ;
#879 = SURFACE_STYLE_FILL_AREA ( #690 ) ;
#880 = EDGE_LOOP ( 'NONE', ( #146, #19 ) ) ;
#881 = DIRECTION ( 'NONE',  ( 0.0000000000000000000, -1.000000000000000000, 3.828568698926949400E-016 ) ) ;
#882 = VERTEX_POINT ( 'NONE', #94 ) ;
#883 = COLOUR_RGB ( '',1.000000000000000000, 1.000000000000000000, 1.000000000000000000 ) ;
#884 = ORIENTED_EDGE ( 'NONE', *, *, #702, .T. ) ;
#885 = AXIS2_PLACEMENT_3D ( 'NONE', #110, #908, #257 ) ;
#886 = CARTESIAN_POINT ( 'NONE',  ( 40.00000000000000000, -56.78097245096169800, 2.105712784409821500E-014 ) ) ;
#887 = AXIS2_PLACEMENT_3D ( 'NONE', #960, #78, #471 ) ;
#888 = CARTESIAN_POINT ( 'NONE',  ( 156.7000000000000200, 64.19999999999998900, 5.000000000000000000 ) ) ;
#889 = CARTESIAN_POINT ( 'NONE',  ( 155.0499999999999800, 64.19999999999998900, 5.000000000000000000 ) ) ;
#890 = EDGE_CURVE ( 'NONE', #291, #567, #88, .T. ) ;
#891 = CYLINDRICAL_SURFACE ( 'NONE', #416, 1.649999999999998600 ) ;
#892 = FACE_OUTER_BOUND ( 'NONE', #481, .T. ) ;
#893 = EDGE_LOOP ( 'NONE', ( #135, #409 ) ) ;
#894 = CYLINDRICAL_SURFACE ( 'NONE', #220, 4.500000000000003600 ) ;
#895 = EDGE_LOOP ( 'NONE', ( #147, #347, #225, #74 ) ) ;
#896 = CYLINDRICAL_SURFACE ( 'NONE', #885, 4.999999999999997300 ) ;
#897 = EDGE_CURVE ( 'NONE', #680, #974, #228, .T. ) ;
#898 = AXIS2_PLACEMENT_3D ( 'NONE', #142, #685, #209 ) ;
#899 = EDGE_CURVE ( 'NONE', #609, #456, #569, .T. ) ;
#900 = ORIENTED_EDGE ( 'NONE', *, *, #1004, .F. ) ;
#901 = VERTEX_POINT ( 'NONE', #984 ) ;
#902 = PRESENTATION_STYLE_ASSIGNMENT (( #1001 ) ) ;
#903 = ORIENTED_EDGE ( 'NONE', *, *, #897, .F. ) ;
#904 = FILL_AREA_STYLE ('',( #821 ) ) ;
#905 = CARTESIAN_POINT ( 'NONE',  ( 160.0000000000000000, 31.49999999999999300, -126.4911064067351700 ) ) ;
#906 = EDGE_CURVE ( 'NONE', #1017, #444, #268, .T. ) ;
#907 = VERTEX_POINT ( 'NONE', #414 ) ;
#908 = DIRECTION ( 'NONE',  ( 0.0000000000000000000, 0.0000000000000000000, -1.000000000000000000 ) ) ;
#909 = CARTESIAN_POINT ( 'NONE',  ( 159.9999999999999700, 71.50000000000000000, -126.4911064067351700 ) ) ;
#910 = ADVANCED_FACE ( 'NONE', ( #872 ), #896, .F. ) ;
#911 = DIRECTION ( 'NONE',  ( 0.0000000000000000000, 1.000000000000000000, -3.828568698926945500E-016 ) ) ;
#912 = STYLED_ITEM ( 'NONE', ( #497 ), #852 ) ;
#913 =( LENGTH_UNIT ( ) NAMED_UNIT ( * ) SI_UNIT ( .MILLI., .METRE. ) );
#914 = FACE_OUTER_BOUND ( 'NONE', #387, .T. ) ;
#915 = ORIENTED_EDGE ( 'NONE', *, *, #124, .T. ) ;
#916 = MECHANICAL_DESIGN_GEOMETRIC_PRESENTATION_REPRESENTATION (  '', ( #328 ), #271 ) ;
#917 = LINE ( 'NONE', #619, #483 ) ;
#918 = EDGE_LOOP ( 'NONE', ( #9, #732, #506, #1023 ) ) ;
#919 = DIRECTION ( 'NONE',  ( 1.000000000000000000, 0.0000000000000000000, 0.0000000000000000000 ) ) ;
#920 = DIRECTION ( 'NONE',  ( 0.0000000000000000000, -1.000000000000000000, 3.854941057726235100E-016 ) ) ;
#921 = PRESENTATION_STYLE_ASSIGNMENT (( #863 ) ) ;
#922 = CARTESIAN_POINT ( 'NONE',  ( 34.99999999999999300, -61.78097245096172700, 2.297141219356170600E-014 ) ) ;
#923 = VECTOR ( 'NONE', #359, 1000.000000000000000 ) ;
#924 = DIRECTION ( 'NONE',  ( 0.0000000000000000000, -1.000000000000000000, 3.828568698926949400E-016 ) ) ;
#925 =( NAMED_UNIT ( * ) SI_UNIT ( $, .STERADIAN. ) SOLID_ANGLE_UNIT ( ) );
#926 = DIRECTION ( 'NONE',  ( 0.0000000000000000000, 3.828568698926949400E-016, 1.000000000000000000 ) ) ;
#927 = AXIS2_PLACEMENT_3D ( 'NONE', #1, #712, #801 ) ;
#928 = CARTESIAN_POINT ( 'NONE',  ( 54.90000000000000600, 64.19999999999998900, 5.000000000000000000 ) ) ;
#929 =( NAMED_UNIT ( * ) SI_UNIT ( $, .STERADIAN. ) SOLID_ANGLE_UNIT ( ) );
#930 = FILL_AREA_STYLE ('',( #1006 ) ) ;
#931 = DIRECTION ( 'NONE',  ( 0.0000000000000000000, -1.000000000000000000, 3.854941057726228700E-016 ) ) ;
#932 = CIRCLE ( 'NONE', #898, 4.500000000000010700 ) ;
#933 = ORIENTED_EDGE ( 'NONE', *, *, #22, .F. ) ;
#934 = EDGE_LOOP ( 'NONE', ( #398, #849, #55, #121 ) ) ;
#935 = AXIS2_PLACEMENT_3D ( 'NONE', #867, #610, #534 ) ;
#936 = EDGE_LOOP ( 'NONE', ( #724, #713 ) ) ;
#937 =( NAMED_UNIT ( * ) PLANE_ANGLE_UNIT ( ) SI_UNIT ( $, .RADIAN. ) );
#938 = VECTOR ( 'NONE', #574, 1000.000000000000000 ) ;
#939 = STYLED_ITEM ( 'NONE', ( #46 ), #986 ) ;
#940 = EDGE_CURVE ( 'NONE', #277, #323, #654, .T. ) ;
#941 = CARTESIAN_POINT ( 'NONE',  ( 5.000000000000004400, -61.78097245096172700, 2.297141219356170600E-014 ) ) ;
#942 = CARTESIAN_POINT ( 'NONE',  ( 56.55000000000000400, 38.79999999999999700, 0.0000000000000000000 ) ) ;
#943 = COLOUR_RGB ( '',1.000000000000000000, 0.0000000000000000000, 0.0000000000000000000 ) ;
#944 = FACE_OUTER_BOUND ( 'NONE', #1025, .T. ) ;
#945 = VERTEX_POINT ( 'NONE', #39 ) ;
#946 = DIRECTION ( 'NONE',  ( 1.000000000000000000, 0.0000000000000000000, 0.0000000000000000000 ) ) ;
#947 = VECTOR ( 'NONE', #232, 1000.000000000000000 ) ;
#948 = ORIENTED_EDGE ( 'NONE', *, *, #940, .F. ) ;
#949 = EDGE_CURVE ( 'NONE', #780, #796, #138, .T. ) ;
#950 = CARTESIAN_POINT ( 'NONE',  ( 45.00000000000000000, 26.49999999999998900, 0.0000000000000000000 ) ) ;
#951 = CIRCLE ( 'NONE', #638, 1.650000000000012600 ) ;
#952 = CARTESIAN_POINT ( 'NONE',  ( 30.00000000000000400, -42.28097245096172000, 5.000000000000016000 ) ) ;
#953 = DIRECTION ( 'NONE',  ( 1.000000000000000000, 0.0000000000000000000, 0.0000000000000000000 ) ) ;
#954 = SURFACE_STYLE_FILL_AREA ( #859 ) ;
#955 =( NAMED_UNIT ( * ) SI_UNIT ( $, .STERADIAN. ) SOLID_ANGLE_UNIT ( ) );
#956 = EDGE_CURVE ( 'NONE', #544, #901, #715, .T. ) ;
#957 = AXIS2_PLACEMENT_3D ( 'NONE', #566, #813, #498 ) ;
#958 = CYLINDRICAL_SURFACE ( 'NONE', #555, 1.650000000000012600 ) ;
#959 = VECTOR ( 'NONE', #370, 1000.000000000000000 ) ;
#960 = CARTESIAN_POINT ( 'NONE',  ( 40.00000000000000000, 3.219027549038278500, 9.999999999999994700 ) ) ;
#961 = ORIENTED_EDGE ( 'NONE', *, *, #182, .F. ) ;
#962 = ORIENTED_EDGE ( 'NONE', *, *, #702, .F. ) ;
#963 = CARTESIAN_POINT ( 'NONE',  ( 40.00000000000000000, 71.50000000000000000, 5.000000000000000000 ) ) ;
#964 = SURFACE_STYLE_FILL_AREA ( #835 ) ;
#965 = FACE_OUTER_BOUND ( 'NONE', #742, .T. ) ;
#966 = AXIS2_PLACEMENT_3D ( 'NONE', #305, #860, #390 ) ;
#967 =( NAMED_UNIT ( * ) SI_UNIT ( $, .STERADIAN. ) SOLID_ANGLE_UNIT ( ) );
#968 =( NAMED_UNIT ( * ) PLANE_ANGLE_UNIT ( ) SI_UNIT ( $, .RADIAN. ) );
#969 = CARTESIAN_POINT ( 'NONE',  ( 40.00000000000000000, 71.50000000000000000, 0.0000000000000000000 ) ) ;
#970 = EDGE_CURVE ( 'NONE', #295, #383, #314, .T. ) ;
#971 = PLANE ( 'NONE',  #312 ) ;
#972 = VERTEX_POINT ( 'NONE', #656 ) ;
#973 = EDGE_LOOP ( 'NONE', ( #850, #711 ) ) ;
#974 = VERTEX_POINT ( 'NONE', #588 ) ;
#975 = PLANE ( 'NONE',  #315 ) ;
#976 = PRODUCT_DEFINITION ( '未知', '', #489, #473 ) ;
#977 =( GEOMETRIC_REPRESENTATION_CONTEXT ( 3 ) GLOBAL_UNCERTAINTY_ASSIGNED_CONTEXT ( ( #570 ) ) GLOBAL_UNIT_ASSIGNED_CONTEXT ( ( #675, #937, #452 ) ) REPRESENTATION_CONTEXT ( 'NONE', 'WORKASPACE' ) );
#978 = ORIENTED_EDGE ( 'NONE', *, *, #890, .F. ) ;
#979 = EDGE_LOOP ( 'NONE', ( #211, #29 ) ) ;
#980 = SHAPE_DEFINITION_REPRESENTATION ( #395, #852 ) ;
#981 = EDGE_CURVE ( 'NONE', #680, #625, #766, .T. ) ;
#982 = STYLED_ITEM ( 'NONE', ( #332 ), #730 ) ;
#983 = DIRECTION ( 'NONE',  ( 0.0000000000000000000, 3.828568698926949400E-016, 1.000000000000000000 ) ) ;
#984 = CARTESIAN_POINT ( 'NONE',  ( 5.000000000000004400, -61.78097245096172700, 5.000000000000023100 ) ) ;
#985 = VERTEX_POINT ( 'NONE', #25 ) ;
#986 = ADVANCED_FACE ( 'NONE', ( #965 ), #298, .F. ) ;
#987 = DIRECTION ( 'NONE',  ( 0.0000000000000000000, 0.0000000000000000000, 1.000000000000000000 ) ) ;
#988 = CYLINDRICAL_SURFACE ( 'NONE', #48, 1.650000000000012600 ) ;
#989 = EDGE_CURVE ( 'NONE', #584, #907, #1012, .T. ) ;
#990 = LINE ( 'NONE', #380, #260 ) ;
#991 = ORIENTED_EDGE ( 'NONE', *, *, #854, .F. ) ;
#992 = CARTESIAN_POINT ( 'NONE',  ( 155.0499999999999800, 38.79999999999999700, 0.0000000000000000000 ) ) ;
#993 = ORIENTED_EDGE ( 'NONE', *, *, #800, .T. ) ;
#994 = ADVANCED_FACE ( 'NONE', ( #181 ), #971, .F. ) ;
#995 = EDGE_LOOP ( 'NONE', ( #900, #1022, #848, #214 ) ) ;
#996 =( NAMED_UNIT ( * ) SI_UNIT ( $, .STERADIAN. ) SOLID_ANGLE_UNIT ( ) );
#997 = FACE_OUTER_BOUND ( 'NONE', #170, .T. ) ;
#998 = FILL_AREA_STYLE_COLOUR ( '', #319 ) ;
#999 = STYLED_ITEM ( 'NONE', ( #807 ), #185 ) ;
#1000 = DIRECTION ( 'NONE',  ( 0.0000000000000000000, -1.000000000000000000, 3.854941057726228700E-016 ) ) ;
#1001 = SURFACE_STYLE_USAGE ( .BOTH. , #52 ) ;
#1002 = DIRECTION ( 'NONE',  ( 0.0000000000000000000, 0.0000000000000000000, 1.000000000000000000 ) ) ;
#1003 =( NAMED_UNIT ( * ) PLANE_ANGLE_UNIT ( ) SI_UNIT ( $, .RADIAN. ) );
#1004 = EDGE_CURVE ( 'NONE', #528, #513, #338, .T. ) ;
#1005 = COLOUR_RGB ( '',1.000000000000000000, 0.0000000000000000000, 0.0000000000000000000 ) ;
#1006 = FILL_AREA_STYLE_COLOUR ( '', #562 ) ;
#1007 = AXIS2_PLACEMENT_3D ( 'NONE', #348, #1002, #838 ) ;
#1008 = SURFACE_STYLE_FILL_AREA ( #403 ) ;
#1009 = CARTESIAN_POINT ( 'NONE',  ( 10.00000000000003700, 71.50000000000000000, 5.000000000000000000 ) ) ;
#1010 = EDGE_LOOP ( 'NONE', ( #710, #962 ) ) ;
#1011 = DIRECTION ( 'NONE',  ( -1.000000000000000000, 0.0000000000000000000, 0.0000000000000000000 ) ) ;
#1012 = CIRCLE ( 'NONE', #571, 1.650000000000012600 ) ;
#1013 = MECHANICAL_DESIGN_GEOMETRIC_PRESENTATION_REPRESENTATION (  '', ( #912 ), #329 ) ;
#1014 = AXIS2_PLACEMENT_3D ( 'NONE', #325, #166, #392 ) ;
#1015 = DIRECTION ( 'NONE',  ( 0.0000000000000000000, 3.828568698926949400E-016, 1.000000000000000000 ) ) ;
#1016 = CARTESIAN_POINT ( 'NONE',  ( 160.0000000000000000, 31.49999999999999300, 0.0000000000000000000 ) ) ;
#1017 = VERTEX_POINT ( 'NONE', #92 ) ;
#1018 = DIRECTION ( 'NONE',  ( 0.0000000000000000000, 5.053215498074302900E-016, 1.000000000000000000 ) ) ;
#1019 = DIRECTION ( 'NONE',  ( 0.0000000000000000000, 3.828568698926949400E-016, 1.000000000000000000 ) ) ;
#1020 = LINE ( 'NONE', #476, #739 ) ;
#1021 = EDGE_CURVE ( 'NONE', #206, #528, #89, .T. ) ;
#1022 = ORIENTED_EDGE ( 'NONE', *, *, #200, .T. ) ;
#1023 = ORIENTED_EDGE ( 'NONE', *, *, #836, .F. ) ;
#1024 = FACE_BOUND ( 'NONE', #97, .T. ) ;
#1025 = EDGE_LOOP ( 'NONE', ( #634, #763, #823, #834 ) ) ;
#1026 = CARTESIAN_POINT ( 'NONE',  ( 40.00000000000000000, 31.49999999999999300, 0.0000000000000000000 ) ) ;
#1027 = PLANE ( 'NONE',  #366 ) ;
#1028 = FILL_AREA_STYLE_COLOUR ( '', #145 ) ;
#1029 = UNCERTAINTY_MEASURE_WITH_UNIT (LENGTH_MEASURE( 1.000000000000000100E-005 ), #229, 'distance_accuracy_value', 'NONE');
#1030 = FILL_AREA_STYLE_COLOUR ( '', #54 ) ;
#1031 = MECHANICAL_DESIGN_GEOMETRIC_PRESENTATION_REPRESENTATION (  '', ( #809 ), #154 ) ;
#1032 = CARTESIAN_POINT ( 'NONE',  ( 34.99999999999999300, -61.78097245096172700, 2.297141219356170600E-014 ) ) ;
#1033 = FACE_OUTER_BOUND ( 'NONE', #642, .T. ) ;
#1034 = DIRECTION ( 'NONE',  ( 0.0000000000000000000, -3.828568698926949400E-016, -1.000000000000000000 ) ) ;
#1035 = PLANE ( 'NONE',  #239 ) ;
#1036 = ORIENTED_EDGE ( 'NONE', *, *, #784, .F. ) ;
#1037 = EDGE_CURVE ( 'NONE', #280, #150, #101, .T. ) ;
#1038 = PLANE ( 'NONE',  #887 ) ;
#1039 = VECTOR ( 'NONE', #572, 1000.000000000000000 ) ;
#1040 = DIRECTION ( 'NONE',  ( 0.0000000000000000000, 1.000000000000000000, 0.0000000000000000000 ) ) ;
#1041 = DIRECTION ( 'NONE',  ( 0.0000000000000000000, -5.053215498074302900E-016, -1.000000000000000000 ) ) ;
ENDSEC;
END-ISO-10303-21;
