ISO-10303-21;
HEADER;
FILE_DESCRIPTION (( 'STEP AP214' ),
    '1' );
FILE_NAME ('Q235-5.0-BAN10-N1.STEP',
    '2026-07-03T06:17:18',
    ( '' ),
    ( '' ),
    'SwSTEP 2.0',
    'SolidWorks 2016',
    '' );
FILE_SCHEMA (( 'AUTOMOTIVE_DESIGN' ));
ENDSEC;

DATA;
#1 = VECTOR ( 'NONE', #900, 1000.000000000000000 ) ;
#2 = ORIENTED_EDGE ( 'NONE', *, *, #697, .F. ) ;
#3 = EDGE_LOOP ( 'NONE', ( #113, #110, #292, #736, #359 ) ) ;
#4 = DIRECTION ( 'NONE',  ( 0.0000000000000000000, 1.000000000000000000, 0.0000000000000000000 ) ) ;
#5 = SURFACE_STYLE_FILL_AREA ( #1119 ) ;
#6 = VECTOR ( 'NONE', #1025, 1000.000000000000000 ) ;
#7 = SURFACE_STYLE_USAGE ( .BOTH. , #551 ) ;
#8 = CARTESIAN_POINT ( 'NONE',  ( -47.78097245096172700, 2.561649299624185700E-015, 20.00000000000000000 ) ) ;
#9 = DIRECTION ( 'NONE',  ( 1.000000000000000000, -6.123233995736766000E-017, -8.673617379884034200E-017 ) ) ;
#10 = ORIENTED_EDGE ( 'NONE', *, *, #422, .T. ) ;
#11 =( NAMED_UNIT ( * ) SI_UNIT ( $, .STERADIAN. ) SOLID_ANGLE_UNIT ( ) );
#12 = AXIS2_PLACEMENT_3D ( 'NONE', #942, #208, #651 ) ;
#13 = CARTESIAN_POINT ( 'NONE',  ( 68.00000000000000000, 5.000000000000000000, 25.00000000000000000 ) ) ;
#14 = CYLINDRICAL_SURFACE ( 'NONE', #846, 4.500000000000000900 ) ;
#15 = PLANE ( 'NONE',  #864 ) ;
#16 = SURFACE_STYLE_FILL_AREA ( #519 ) ;
#17 = LINE ( 'NONE', #619, #676 ) ;
#18 = AXIS2_PLACEMENT_3D ( 'NONE', #1173, #825, #273 ) ;
#19 = COLOUR_RGB ( '',1.000000000000000000, 0.0000000000000000000, 0.0000000000000000000 ) ;
#20 = CARTESIAN_POINT ( 'NONE',  ( 36.00000000000000000, -5.000000000000000000, 15.00000000000000000 ) ) ;
#21 = ORIENTED_EDGE ( 'NONE', *, *, #893, .F. ) ;
#22 = PLANE ( 'NONE',  #1148 ) ;
#23 = EDGE_LOOP ( 'NONE', ( #1056, #10, #102, #951 ) ) ;
#24 = VERTEX_POINT ( 'NONE', #481 ) ;
#25 = AXIS2_PLACEMENT_3D ( 'NONE', #1076, #82, #998 ) ;
#26 = DIRECTION ( 'NONE',  ( 0.0000000000000000000, 0.0000000000000000000, 1.000000000000000000 ) ) ;
#27 = AXIS2_PLACEMENT_3D ( 'NONE', #743, #115, #739 ) ;
#28 = FACE_OUTER_BOUND ( 'NONE', #1178, .T. ) ;
#29 = PRODUCT_DEFINITION_SHAPE ( 'NONE', 'NONE',  #69 ) ;
#30 = CARTESIAN_POINT ( 'NONE',  ( -17.78097245096173400, 10.00000000000000200, 19.49999999999999600 ) ) ;
#31 = DIRECTION ( 'NONE',  ( -6.123233995736766000E-017, -1.000000000000000000, 0.0000000000000000000 ) ) ;
#32 = SURFACE_STYLE_FILL_AREA ( #753 ) ;
#33 = ORIENTED_EDGE ( 'NONE', *, *, #397, .T. ) ;
#34 =( GEOMETRIC_REPRESENTATION_CONTEXT ( 3 ) GLOBAL_UNCERTAINTY_ASSIGNED_CONTEXT ( ( #62 ) ) GLOBAL_UNIT_ASSIGNED_CONTEXT ( ( #443, #632, #1004 ) ) REPRESENTATION_CONTEXT ( 'NONE', 'WORKASPACE' ) );
#35 = CARTESIAN_POINT ( 'NONE',  ( 36.00000000000000000, 5.000000000000000000, 19.50000000000000000 ) ) ;
#36 = DIRECTION ( 'NONE',  ( 0.0000000000000000000, 0.0000000000000000000, -1.000000000000000000 ) ) ;
#37 = ORIENTED_EDGE ( 'NONE', *, *, #661, .T. ) ;
#38 = EDGE_CURVE ( 'NONE', #1069, #1156, #812, .T. ) ;
#39 = DIRECTION ( 'NONE',  ( 0.0000000000000000000, 0.0000000000000000000, 1.000000000000000000 ) ) ;
#40 = VECTOR ( 'NONE', #1151, 1000.000000000000000 ) ;
#41 = CYLINDRICAL_SURFACE ( 'NONE', #1175, 4.499999999999999100 ) ;
#42 = ORIENTED_EDGE ( 'NONE', *, *, #806, .T. ) ;
#43 = ORIENTED_EDGE ( 'NONE', *, *, #1067, .T. ) ;
#44 = FILL_AREA_STYLE ('',( #511 ) ) ;
#45 = LINE ( 'NONE', #93, #1158 ) ;
#46 = AXIS2_PLACEMENT_3D ( 'NONE', #1131, #230, #1086 ) ;
#47 = DIRECTION ( 'NONE',  ( 0.0000000000000000000, 1.000000000000000000, 0.0000000000000000000 ) ) ;
#48 = CARTESIAN_POINT ( 'NONE',  ( 62.50000000000000000, -5.000000000000000000, 15.00000000000000000 ) ) ;
#49 = ORIENTED_EDGE ( 'NONE', *, *, #589, .F. ) ;
#50 = ORIENTED_EDGE ( 'NONE', *, *, #1035, .T. ) ;
#51 = ORIENTED_EDGE ( 'NONE', *, *, #1090, .T. ) ;
#52 = ORIENTED_EDGE ( 'NONE', *, *, #806, .F. ) ;
#53 = DIRECTION ( 'NONE',  ( 0.0000000000000000000, -1.000000000000000000, 0.0000000000000000000 ) ) ;
#54 = EDGE_CURVE ( 'NONE', #978, #304, #984, .T. ) ;
#55 = FILL_AREA_STYLE_COLOUR ( '', #341 ) ;
#56 = AXIS2_PLACEMENT_3D ( 'NONE', #244, #348, #992 ) ;
#57 = CARTESIAN_POINT ( 'NONE',  ( -47.78097245096172700, 2.561649299624185700E-015, 25.00000000000000000 ) ) ;
#58 = LINE ( 'NONE', #320, #763 ) ;
#59 = VECTOR ( 'NONE', #459, 1000.000000000000000 ) ;
#60 = SURFACE_SIDE_STYLE ('',( #1116 ) ) ;
#61 = FACE_OUTER_BOUND ( 'NONE', #927, .T. ) ;
#62 = UNCERTAINTY_MEASURE_WITH_UNIT (LENGTH_MEASURE( 1.000000000000000100E-005 ), #443, 'distance_accuracy_value', 'NONE');
#63 = CARTESIAN_POINT ( 'NONE',  ( -37.78097245096172000, 10.00000000000000200, -10.50000000000000500 ) ) ;
#64 = EDGE_CURVE ( 'NONE', #841, #242, #545, .T. ) ;
#65 = ORIENTED_EDGE ( 'NONE', *, *, #1125, .F. ) ;
#66 = VERTEX_POINT ( 'NONE', #301 ) ;
#67 = CARTESIAN_POINT ( 'NONE',  ( 68.00000000000000000, 0.0000000000000000000, -19.99999999999999600 ) ) ;
#68 = DIRECTION ( 'NONE',  ( -1.000000000000000000, 6.123233995736766000E-017, 8.673617379884034200E-017 ) ) ;
#69 = PRODUCT_DEFINITION ( '未知', '', #96, #151 ) ;
#70 = LINE ( 'NONE', #881, #396 ) ;
#71 = ADVANCED_FACE ( 'NONE', ( #61 ), #645, .F. ) ;
#72 = CARTESIAN_POINT ( 'NONE',  ( -42.78097245096172700, 5.000000000000002700, 20.00000000000000000 ) ) ;
#73 = PRESENTATION_STYLE_ASSIGNMENT (( #564 ) ) ;
#74 = MECHANICAL_DESIGN_GEOMETRIC_PRESENTATION_REPRESENTATION (  '', ( #1002 ), #143 ) ;
#75 = CARTESIAN_POINT ( 'NONE',  ( 40.50000000000000700, -5.000000000000000000, -10.00000000000000000 ) ) ;
#76 = FILL_AREA_STYLE_COLOUR ( '', #19 ) ;
#77 = LINE ( 'NONE', #823, #126 ) ;
#78 = FACE_OUTER_BOUND ( 'NONE', #541, .T. ) ;
#79 = FILL_AREA_STYLE ('',( #630 ) ) ;
#80 = SURFACE_STYLE_FILL_AREA ( #325 ) ;
#81 = ADVANCED_FACE ( 'NONE', ( #78 ), #728, .T. ) ;
#82 = DIRECTION ( 'NONE',  ( 1.000000000000000000, 0.0000000000000000000, 0.0000000000000000000 ) ) ;
#83 =( GEOMETRIC_REPRESENTATION_CONTEXT ( 3 ) GLOBAL_UNCERTAINTY_ASSIGNED_CONTEXT ( ( #790 ) ) GLOBAL_UNIT_ASSIGNED_CONTEXT ( ( #923, #1094, #284 ) ) REPRESENTATION_CONTEXT ( 'NONE', 'WORKASPACE' ) );
#84 = EDGE_LOOP ( 'NONE', ( #333, #856, #119, #558 ) ) ;
#85 = ORIENTED_EDGE ( 'NONE', *, *, #215, .T. ) ;
#86 = DIRECTION ( 'NONE',  ( 0.0000000000000000000, -0.0000000000000000000, 1.000000000000000000 ) ) ;
#87 = DIRECTION ( 'NONE',  ( 0.0000000000000000000, 0.0000000000000000000, 1.000000000000000000 ) ) ;
#88 = AXIS2_PLACEMENT_3D ( 'NONE', #141, #774, #132 ) ;
#89 = VECTOR ( 'NONE', #330, 1000.000000000000000 ) ;
#90 = FILL_AREA_STYLE_COLOUR ( '', #400 ) ;
#91 =( GEOMETRIC_REPRESENTATION_CONTEXT ( 3 ) GLOBAL_UNCERTAINTY_ASSIGNED_CONTEXT ( ( #347 ) ) GLOBAL_UNIT_ASSIGNED_CONTEXT ( ( #638, #929, #11 ) ) REPRESENTATION_CONTEXT ( 'NONE', 'WORKASPACE' ) );
#92 = PRESENTATION_STYLE_ASSIGNMENT (( #699 ) ) ;
#93 = CARTESIAN_POINT ( 'NONE',  ( 36.00000000000000000, -5.000000000000000000, 19.50000000000000000 ) ) ;
#94 = VECTOR ( 'NONE', #362, 1000.000000000000000 ) ;
#95 = CARTESIAN_POINT ( 'NONE',  ( 57.99999999999999300, 5.000000000000000000, -9.999999999999998200 ) ) ;
#96 = PRODUCT_DEFINITION_FORMATION_WITH_SPECIFIED_SOURCE ( '任何', '', #467, .NOT_KNOWN. ) ;
#97 =( NAMED_UNIT ( * ) PLANE_ANGLE_UNIT ( ) SI_UNIT ( $, .RADIAN. ) );
#98 = VERTEX_POINT ( 'NONE', #628 ) ;
#99 = EDGE_CURVE ( 'NONE', #267, #1034, #1064, .T. ) ;
#100 = CARTESIAN_POINT ( 'NONE',  ( -37.78097245096172000, 10.00000000000000200, -19.50000000000000400 ) ) ;
#101 = ORIENTED_EDGE ( 'NONE', *, *, #822, .T. ) ;
#102 = ORIENTED_EDGE ( 'NONE', *, *, #949, .T. ) ;
#103 = ORIENTED_EDGE ( 'NONE', *, *, #636, .F. ) ;
#104 = DIRECTION ( 'NONE',  ( 0.0000000000000000000, 0.0000000000000000000, 1.000000000000000000 ) ) ;
#105 = VECTOR ( 'NONE', #587, 1000.000000000000000 ) ;
#106 = CARTESIAN_POINT ( 'NONE',  ( 31.49999999999999300, 0.0000000000000000000, -10.00000000000000200 ) ) ;
#107 = CARTESIAN_POINT ( 'NONE',  ( -37.78097245096170600, 10.00000000000000200, 10.49999999999999800 ) ) ;
#108 = CIRCLE ( 'NONE', #944, 5.000000000000000900 ) ;
#109 = EDGE_CURVE ( 'NONE', #925, #346, #17, .T. ) ;
#110 = ORIENTED_EDGE ( 'NONE', *, *, #512, .T. ) ;
#111 = DIRECTION ( 'NONE',  ( -1.000000000000000000, 6.123233995736766000E-017, 3.469446951953615200E-016 ) ) ;
#112 = VERTEX_POINT ( 'NONE', #190 ) ;
#113 = ORIENTED_EDGE ( 'NONE', *, *, #109, .T. ) ;
#114 = FACE_BOUND ( 'NONE', #3, .T. ) ;
#115 = DIRECTION ( 'NONE',  ( 0.0000000000000000000, 1.000000000000000000, 0.0000000000000000000 ) ) ;
#116 = FILL_AREA_STYLE ('',( #744 ) ) ;
#117 = ORIENTED_EDGE ( 'NONE', *, *, #629, .T. ) ;
#118 = DIRECTION ( 'NONE',  ( 0.0000000000000000000, 1.000000000000000000, 0.0000000000000000000 ) ) ;
#119 = ORIENTED_EDGE ( 'NONE', *, *, #193, .F. ) ;
#120 = AXIS2_PLACEMENT_3D ( 'NONE', #755, #1028, #649 ) ;
#121 = DIRECTION ( 'NONE',  ( 0.0000000000000000000, 0.0000000000000000000, -1.000000000000000000 ) ) ;
#122 = COLOUR_RGB ( '',1.000000000000000000, 0.0000000000000000000, 0.0000000000000000000 ) ;
#123 =( NAMED_UNIT ( * ) SI_UNIT ( $, .STERADIAN. ) SOLID_ANGLE_UNIT ( ) );
#124 = CYLINDRICAL_SURFACE ( 'NONE', #383, 4.500000000000000900 ) ;
#125 = FACE_OUTER_BOUND ( 'NONE', #870, .T. ) ;
#126 = VECTOR ( 'NONE', #914, 1000.000000000000000 ) ;
#127 = EDGE_CURVE ( 'NONE', #98, #783, #493, .T. ) ;
#128 =( NAMED_UNIT ( * ) SI_UNIT ( $, .STERADIAN. ) SOLID_ANGLE_UNIT ( ) );
#129 = ORIENTED_EDGE ( 'NONE', *, *, #884, .T. ) ;
#130 =( GEOMETRIC_REPRESENTATION_CONTEXT ( 3 ) GLOBAL_UNCERTAINTY_ASSIGNED_CONTEXT ( ( #281 ) ) GLOBAL_UNIT_ASSIGNED_CONTEXT ( ( #435, #357, #245 ) ) REPRESENTATION_CONTEXT ( 'NONE', 'WORKASPACE' ) );
#131 = CARTESIAN_POINT ( 'NONE',  ( 68.00000000000000000, 5.000000000000000000, 20.00000000000000000 ) ) ;
#132 = DIRECTION ( 'NONE',  ( 0.0000000000000000000, 0.0000000000000000000, 1.000000000000000000 ) ) ;
#133 = CARTESIAN_POINT ( 'NONE',  ( 57.99999999999999300, 0.0000000000000000000, 15.00000000000000000 ) ) ;
#134 = SURFACE_SIDE_STYLE ('',( #1166 ) ) ;
#135 = ORIENTED_EDGE ( 'NONE', *, *, #1125, .T. ) ;
#136 = EDGE_LOOP ( 'NONE', ( #508, #43, #509, #285 ) ) ;
#137 = ORIENTED_EDGE ( 'NONE', *, *, #991, .T. ) ;
#138 = EDGE_CURVE ( 'NONE', #1006, #1081, #797, .T. ) ;
#139 = VERTEX_POINT ( 'NONE', #492 ) ;
#140 = DIRECTION ( 'NONE',  ( -6.123233995736766000E-017, -1.000000000000000000, 0.0000000000000000000 ) ) ;
#141 = CARTESIAN_POINT ( 'NONE',  ( 36.00000000000000000, 5.000000000000000000, 15.00000000000000000 ) ) ;
#142 = VECTOR ( 'NONE', #727, 1000.000000000000000 ) ;
#143 =( GEOMETRIC_REPRESENTATION_CONTEXT ( 3 ) GLOBAL_UNCERTAINTY_ASSIGNED_CONTEXT ( ( #808 ) ) GLOBAL_UNIT_ASSIGNED_CONTEXT ( ( #416, #322, #777 ) ) REPRESENTATION_CONTEXT ( 'NONE', 'WORKASPACE' ) );
#144 = FILL_AREA_STYLE_COLOUR ( '', #1059 ) ;
#145 = VERTEX_POINT ( 'NONE', #316 ) ;
#146 = EDGE_LOOP ( 'NONE', ( #291, #1122, #1033, #578 ) ) ;
#147 = VERTEX_POINT ( 'NONE', #562 ) ;
#148 = MECHANICAL_DESIGN_GEOMETRIC_PRESENTATION_REPRESENTATION (  '', ( #263 ), #1030 ) ;
#149 = SURFACE_STYLE_FILL_AREA ( #79 ) ;
#150 = PRESENTATION_STYLE_ASSIGNMENT (( #599 ) ) ;
#151 = PRODUCT_DEFINITION_CONTEXT ( 'detailed design', #195, 'design' ) ;
#152 = CARTESIAN_POINT ( 'NONE',  ( -37.78097245096170600, 1.949325900050508000E-015, 19.49999999999998900 ) ) ;
#153 = VERTEX_POINT ( 'NONE', #570 ) ;
#154 = VECTOR ( 'NONE', #940, 1000.000000000000000 ) ;
#155 = EDGE_CURVE ( 'NONE', #225, #480, #436, .T. ) ;
#156 = CARTESIAN_POINT ( 'NONE',  ( -17.78097245096173400, 7.246791009031561400E-016, 10.50000000000000200 ) ) ;
#157 = DIRECTION ( 'NONE',  ( 0.0000000000000000000, 1.000000000000000000, 0.0000000000000000000 ) ) ;
#158 = AXIS2_PLACEMENT_3D ( 'NONE', #573, #31, #1041 ) ;
#159 = PLANE ( 'NONE',  #787 ) ;
#160 = DIRECTION ( 'NONE',  ( 0.0000000000000000000, 0.0000000000000000000, -1.000000000000000000 ) ) ;
#161 = DIRECTION ( 'NONE',  ( 2.775557561562891400E-016, 0.0000000000000000000, 1.000000000000000000 ) ) ;
#162 = ORIENTED_EDGE ( 'NONE', *, *, #138, .T. ) ;
#163 = DIRECTION ( 'NONE',  ( 0.0000000000000000000, 0.0000000000000000000, 1.000000000000000000 ) ) ;
#164 = ORIENTED_EDGE ( 'NONE', *, *, #1045, .F. ) ;
#165 = CARTESIAN_POINT ( 'NONE',  ( 57.99999999999999300, -5.000000000000000000, -9.999999999999998200 ) ) ;
#166 = DIRECTION ( 'NONE',  ( 0.0000000000000000000, 1.000000000000000000, 0.0000000000000000000 ) ) ;
#167 = ADVANCED_FACE ( 'NONE', ( #902 ), #445, .F. ) ;
#168 = CARTESIAN_POINT ( 'NONE',  ( -47.78097245096172700, 2.561649299624185700E-015, -19.99999999999999600 ) ) ;
#169 = DIRECTION ( 'NONE',  ( -6.123233995736766000E-017, -1.000000000000000000, 0.0000000000000000000 ) ) ;
#170 = VECTOR ( 'NONE', #160, 1000.000000000000000 ) ;
#171 = DIRECTION ( 'NONE',  ( 0.0000000000000000000, 1.000000000000000000, 0.0000000000000000000 ) ) ;
#172 = ORIENTED_EDGE ( 'NONE', *, *, #1144, .T. ) ;
#173 =( NAMED_UNIT ( * ) SI_UNIT ( $, .STERADIAN. ) SOLID_ANGLE_UNIT ( ) );
#174 = CARTESIAN_POINT ( 'NONE',  ( -17.78097245096172700, 7.246791009031557500E-016, -19.50000000000000700 ) ) ;
#175 = FACE_OUTER_BOUND ( 'NONE', #986, .T. ) ;
#176 = CIRCLE ( 'NONE', #748, 5.000000000000000900 ) ;
#177 = EDGE_CURVE ( 'NONE', #216, #928, #1049, .T. ) ;
#178 = DIRECTION ( 'NONE',  ( 0.0000000000000000000, 0.0000000000000000000, -1.000000000000000000 ) ) ;
#179 = CARTESIAN_POINT ( 'NONE',  ( -37.78097245096172000, 1.949325900050508800E-015, -19.50000000000000400 ) ) ;
#180 = CARTESIAN_POINT ( 'NONE',  ( -47.78097245096172700, 5.000000000000002700, -10.50000000000000200 ) ) ;
#181 = ORIENTED_EDGE ( 'NONE', *, *, #1090, .F. ) ;
#182 = ADVANCED_FACE ( 'NONE', ( #580, #946, #191, #917, #664 ), #22, .T. ) ;
#183 = PLANE ( 'NONE',  #288 ) ;
#184 = VERTEX_POINT ( 'NONE', #546 ) ;
#185 = PRODUCT_CONTEXT ( 'NONE', #1177, 'mechanical' ) ;
#186 = LINE ( 'NONE', #248, #1165 ) ;
#187 =( NAMED_UNIT ( * ) PLANE_ANGLE_UNIT ( ) SI_UNIT ( $, .RADIAN. ) );
#188 = STYLED_ITEM ( 'NONE', ( #402 ), #243 ) ;
#189 = SURFACE_STYLE_FILL_AREA ( #710 ) ;
#190 = CARTESIAN_POINT ( 'NONE',  ( -17.78097245096172000, 5.000000000000000900, -10.50000000000000700 ) ) ;
#191 = FACE_OUTER_BOUND ( 'NONE', #711, .T. ) ;
#192 = APPLICATION_PROTOCOL_DEFINITION ( 'draft international standard', 'automotive_design', 1998, #195 ) ;
#193 = EDGE_CURVE ( 'NONE', #841, #963, #1140, .T. ) ;
#194 = AXIS2_PLACEMENT_3D ( 'NONE', #782, #887, #232 ) ;
#195 = APPLICATION_CONTEXT ( 'automotive_design' ) ;
#196 = VERTEX_POINT ( 'NONE', #861 ) ;
#197 = ORIENTED_EDGE ( 'NONE', *, *, #38, .T. ) ;
#198 = ORIENTED_EDGE ( 'NONE', *, *, #253, .F. ) ;
#199 = CARTESIAN_POINT ( 'NONE',  ( -42.78097245096172700, 5.000000000000002700, -25.00000000000000000 ) ) ;
#200 = EDGE_CURVE ( 'NONE', #952, #704, #1107, .T. ) ;
#201 = SURFACE_STYLE_FILL_AREA ( #507 ) ;
#202 = DIRECTION ( 'NONE',  ( 0.0000000000000000000, 0.0000000000000000000, -1.000000000000000000 ) ) ;
#203 = EDGE_LOOP ( 'NONE', ( #975, #1084, #2, #549 ) ) ;
#204 = VECTOR ( 'NONE', #453, 1000.000000000000000 ) ;
#205 = DIRECTION ( 'NONE',  ( 0.0000000000000000000, 0.0000000000000000000, -1.000000000000000000 ) ) ;
#206 = ORIENTED_EDGE ( 'NONE', *, *, #446, .T. ) ;
#207 = DIRECTION ( 'NONE',  ( 0.0000000000000000000, 1.000000000000000000, 0.0000000000000000000 ) ) ;
#208 = DIRECTION ( 'NONE',  ( 0.0000000000000000000, 1.000000000000000000, 0.0000000000000000000 ) ) ;
#209 = SHAPE_DEFINITION_REPRESENTATION ( #29, #646 ) ;
#210 =( GEOMETRIC_REPRESENTATION_CONTEXT ( 3 ) GLOBAL_UNCERTAINTY_ASSIGNED_CONTEXT ( ( #280 ) ) GLOBAL_UNIT_ASSIGNED_CONTEXT ( ( #1066, #891, #796 ) ) REPRESENTATION_CONTEXT ( 'NONE', 'WORKASPACE' ) );
#211 = FILL_AREA_STYLE ('',( #1037 ) ) ;
#212 = FACE_OUTER_BOUND ( 'NONE', #136, .T. ) ;
#213 = ORIENTED_EDGE ( 'NONE', *, *, #127, .T. ) ;
#214 = CIRCLE ( 'NONE', #906, 4.500000000000000900 ) ;
#215 = EDGE_CURVE ( 'NONE', #480, #805, #905, .T. ) ;
#216 = VERTEX_POINT ( 'NONE', #106 ) ;
#217 = EDGE_LOOP ( 'NONE', ( #361, #572, #656, #683 ) ) ;
#218 = AXIS2_PLACEMENT_3D ( 'NONE', #1108, #842, #754 ) ;
#219 = PRODUCT_RELATED_PRODUCT_CATEGORY ( 'part', '', ( #467 ) ) ;
#220 = CARTESIAN_POINT ( 'NONE',  ( 36.00000000000000000, 5.000000000000000000, -10.00000000000000200 ) ) ;
#221 = SURFACE_STYLE_FILL_AREA ( #419 ) ;
#222 = CIRCLE ( 'NONE', #644, 4.500000000000007100 ) ;
#223 = LINE ( 'NONE', #807, #794 ) ;
#224 = AXIS2_PLACEMENT_3D ( 'NONE', #72, #620, #178 ) ;
#225 = VERTEX_POINT ( 'NONE', #297 ) ;
#226 = LINE ( 'NONE', #889, #356 ) ;
#227 = DIRECTION ( 'NONE',  ( 6.123233995736766000E-017, 1.000000000000000000, 0.0000000000000000000 ) ) ;
#228 = EDGE_LOOP ( 'NONE', ( #37, #933, #485, #1096, #1150 ) ) ;
#229 = EDGE_CURVE ( 'NONE', #1128, #352, #414, .T. ) ;
#230 = DIRECTION ( 'NONE',  ( 0.0000000000000000000, 1.000000000000000000, 0.0000000000000000000 ) ) ;
#231 = SURFACE_STYLE_USAGE ( .BOTH. , #328 ) ;
#232 = DIRECTION ( 'NONE',  ( 0.0000000000000000000, 0.0000000000000000000, -1.000000000000000000 ) ) ;
#233 = LINE ( 'NONE', #1152, #323 ) ;
#234 = VECTOR ( 'NONE', #261, 1000.000000000000000 ) ;
#235 = VERTEX_POINT ( 'NONE', #8 ) ;
#236 = FACE_OUTER_BOUND ( 'NONE', #23, .T. ) ;
#237 = AXIS2_PLACEMENT_3D ( 'NONE', #1031, #377, #104 ) ;
#238 = DIRECTION ( 'NONE',  ( 0.0000000000000000000, 0.0000000000000000000, 1.000000000000000000 ) ) ;
#239 = DIRECTION ( 'NONE',  ( 0.0000000000000000000, 0.0000000000000000000, 1.000000000000000000 ) ) ;
#240 = CARTESIAN_POINT ( 'NONE',  ( -42.78097245096172700, 2.255487599837347500E-015, -25.00000000000000000 ) ) ;
#241 = ORIENTED_EDGE ( 'NONE', *, *, #294, .T. ) ;
#242 = VERTEX_POINT ( 'NONE', #1023 ) ;
#243 = ADVANCED_FACE ( 'NONE', ( #212 ), #1001, .F. ) ;
#244 = CARTESIAN_POINT ( 'NONE',  ( -37.78097245096172000, 10.00000000000000200, -10.50000000000000500 ) ) ;
#245 =( NAMED_UNIT ( * ) SI_UNIT ( $, .STERADIAN. ) SOLID_ANGLE_UNIT ( ) );
#246 = MECHANICAL_DESIGN_GEOMETRIC_PRESENTATION_REPRESENTATION (  '', ( #983 ), #930 ) ;
#247 = CARTESIAN_POINT ( 'NONE',  ( -37.78097245096170600, 1.949325900050508000E-015, 14.99999999999999600 ) ) ;
#248 = CARTESIAN_POINT ( 'NONE',  ( -17.78097245096173400, 10.00000000000000200, 10.50000000000000200 ) ) ;
#249 = FILL_AREA_STYLE_COLOUR ( '', #1139 ) ;
#250 = PRESENTATION_STYLE_ASSIGNMENT (( #1136 ) ) ;
#251 = LINE ( 'NONE', #418, #865 ) ;
#252 = ORIENTED_EDGE ( 'NONE', *, *, #677, .F. ) ;
#253 = EDGE_CURVE ( 'NONE', #928, #225, #814, .T. ) ;
#254 = EDGE_LOOP ( 'NONE', ( #692, #394, #384, #49 ) ) ;
#255 = CARTESIAN_POINT ( 'NONE',  ( 31.49999999999999300, -5.000000000000000000, -10.00000000000000200 ) ) ;
#256 = LINE ( 'NONE', #462, #665 ) ;
#257 = DIRECTION ( 'NONE',  ( 0.0000000000000000000, 0.0000000000000000000, -1.000000000000000000 ) ) ;
#258 = ADVANCED_FACE ( 'NONE', ( #751 ), #1164, .F. ) ;
#259 = CARTESIAN_POINT ( 'NONE',  ( -47.78097245096174100, 5.000000000000002700, -19.49999999999999600 ) ) ;
#260 = VERTEX_POINT ( 'NONE', #174 ) ;
#261 = DIRECTION ( 'NONE',  ( 2.775557561562891400E-016, 0.0000000000000000000, -1.000000000000000000 ) ) ;
#262 = SURFACE_STYLE_USAGE ( .BOTH. , #811 ) ;
#263 = STYLED_ITEM ( 'NONE', ( #490 ), #614 ) ;
#264 = COLOUR_RGB ( '',1.000000000000000000, 1.000000000000000000, 1.000000000000000000 ) ;
#265 = CARTESIAN_POINT ( 'NONE',  ( -17.78097245096172700, 10.00000000000000200, -19.50000000000000700 ) ) ;
#266 = SURFACE_SIDE_STYLE ('',( #718 ) ) ;
#267 = VERTEX_POINT ( 'NONE', #813 ) ;
#268 = PRESENTATION_LAYER_ASSIGNMENT (  '', '', ( #263 ) ) ;
#269 =( NAMED_UNIT ( * ) SI_UNIT ( $, .STERADIAN. ) SOLID_ANGLE_UNIT ( ) );
#270 = ORIENTED_EDGE ( 'NONE', *, *, #550, .T. ) ;
#271 = PLANE ( 'NONE',  #295 ) ;
#272 = ORIENTED_EDGE ( 'NONE', *, *, #860, .T. ) ;
#273 = DIRECTION ( 'NONE',  ( 0.0000000000000000000, 0.0000000000000000000, 1.000000000000000000 ) ) ;
#274 = EDGE_LOOP ( 'NONE', ( #959, #675, #470, #1149 ) ) ;
#275 = EDGE_CURVE ( 'NONE', #66, #1156, #226, .T. ) ;
#276 = CARTESIAN_POINT ( 'NONE',  ( -42.78097245096172700, 10.00000000000000200, 25.00000000000000000 ) ) ;
#277 = CARTESIAN_POINT ( 'NONE',  ( 31.49999999999999300, 5.000000000000000000, -9.999999999999998200 ) ) ;
#278 = VECTOR ( 'NONE', #1138, 1000.000000000000000 ) ;
#279 = AXIS2_PLACEMENT_3D ( 'NONE', #165, #801, #521 ) ;
#280 = UNCERTAINTY_MEASURE_WITH_UNIT (LENGTH_MEASURE( 1.000000000000000100E-005 ), #1066, 'distance_accuracy_value', 'NONE');
#281 = UNCERTAINTY_MEASURE_WITH_UNIT (LENGTH_MEASURE( 1.000000000000000100E-005 ), #435, 'distance_accuracy_value', 'NONE');
#282 = PLANE ( 'NONE',  #303 ) ;
#283 = ORIENTED_EDGE ( 'NONE', *, *, #1016, .F. ) ;
#284 =( NAMED_UNIT ( * ) SI_UNIT ( $, .STERADIAN. ) SOLID_ANGLE_UNIT ( ) );
#285 = ORIENTED_EDGE ( 'NONE', *, *, #512, .F. ) ;
#286 = EDGE_CURVE ( 'NONE', #196, #112, #554, .T. ) ;
#287 = DIRECTION ( 'NONE',  ( 0.0000000000000000000, 0.0000000000000000000, -1.000000000000000000 ) ) ;
#288 = AXIS2_PLACEMENT_3D ( 'NONE', #907, #355, #358 ) ;
#289 = CARTESIAN_POINT ( 'NONE',  ( 62.49999999999999300, 5.000000000000000000, -9.999999999999998200 ) ) ;
#290 = ORIENTED_EDGE ( 'NONE', *, *, #486, .F. ) ;
#291 = ORIENTED_EDGE ( 'NONE', *, *, #991, .F. ) ;
#292 = ORIENTED_EDGE ( 'NONE', *, *, #522, .T. ) ;
#293 = DIRECTION ( 'NONE',  ( 0.0000000000000000000, 1.000000000000000000, 0.0000000000000000000 ) ) ;
#294 = EDGE_CURVE ( 'NONE', #1006, #1142, #477, .T. ) ;
#295 = AXIS2_PLACEMENT_3D ( 'NONE', #535, #454, #1082 ) ;
#296 = CARTESIAN_POINT ( 'NONE',  ( -37.78097245096170600, 1.949325900050508000E-015, 10.49999999999999800 ) ) ;
#297 = CARTESIAN_POINT ( 'NONE',  ( 31.50000000000000000, 5.000000000000000000, 15.00000000000000000 ) ) ;
#298 = ORIENTED_EDGE ( 'NONE', *, *, #193, .T. ) ;
#299 = DIRECTION ( 'NONE',  ( -3.469446951953618600E-016, 2.124423552260770000E-032, 1.000000000000000000 ) ) ;
#300 = CARTESIAN_POINT ( 'NONE',  ( -47.78097245096172700, 2.561649299624185700E-015, 25.00000000000000000 ) ) ;
#301 = CARTESIAN_POINT ( 'NONE',  ( -47.78097245096172700, 5.000000000000002700, 20.00000000000000000 ) ) ;
#302 = DIRECTION ( 'NONE',  ( 0.0000000000000000000, 0.0000000000000000000, 1.000000000000000000 ) ) ;
#303 = AXIS2_PLACEMENT_3D ( 'NONE', #100, #934, #111 ) ;
#304 = VERTEX_POINT ( 'NONE', #844 ) ;
#305 = ORIENTED_EDGE ( 'NONE', *, *, #601, .T. ) ;
#306 = SURFACE_STYLE_USAGE ( .BOTH. , #662 ) ;
#307 =( NAMED_UNIT ( * ) PLANE_ANGLE_UNIT ( ) SI_UNIT ( $, .RADIAN. ) );
#308 = ORIENTED_EDGE ( 'NONE', *, *, #64, .T. ) ;
#309 = LINE ( 'NONE', #407, #431 ) ;
#310 = EDGE_CURVE ( 'NONE', #145, #216, #866, .T. ) ;
#311 = AXIS2_PLACEMENT_3D ( 'NONE', #1065, #171, #979 ) ;
#312 = DIRECTION ( 'NONE',  ( 0.0000000000000000000, 0.0000000000000000000, 1.000000000000000000 ) ) ;
#313 = FACE_OUTER_BOUND ( 'NONE', #203, .T. ) ;
#314 = VERTEX_POINT ( 'NONE', #848 ) ;
#315 = VERTEX_POINT ( 'NONE', #289 ) ;
#316 = CARTESIAN_POINT ( 'NONE',  ( 40.50000000000000700, 0.0000000000000000000, -10.00000000000000000 ) ) ;
#317 = AXIS2_PLACEMENT_3D ( 'NONE', #1038, #568, #121 ) ;
#318 = EDGE_LOOP ( 'NONE', ( #1017, #137, #890, #385, #181, #1106, #770, #42 ) ) ;
#319 = ORIENTED_EDGE ( 'NONE', *, *, #339, .T. ) ;
#320 = CARTESIAN_POINT ( 'NONE',  ( -47.78097245096172700, 2.561649299624185700E-015, 25.00000000000000000 ) ) ;
#321 = SURFACE_STYLE_USAGE ( .BOTH. , #761 ) ;
#322 =( NAMED_UNIT ( * ) PLANE_ANGLE_UNIT ( ) SI_UNIT ( $, .RADIAN. ) );
#323 = VECTOR ( 'NONE', #838, 1000.000000000000000 ) ;
#324 = AXIS2_PLACEMENT_3D ( 'NONE', #682, #688, #39 ) ;
#325 = FILL_AREA_STYLE ('',( #76 ) ) ;
#326 = FACE_OUTER_BOUND ( 'NONE', #1111, .T. ) ;
#327 = PRESENTATION_STYLE_ASSIGNMENT (( #321 ) ) ;
#328 = SURFACE_SIDE_STYLE ('',( #201 ) ) ;
#329 = LINE ( 'NONE', #1171, #142 ) ;
#330 = DIRECTION ( 'NONE',  ( 1.000000000000000000, -6.123233995736766000E-017, -0.0000000000000000000 ) ) ;
#331 = ORIENTED_EDGE ( 'NONE', *, *, #955, .T. ) ;
#332 = AXIS2_PLACEMENT_3D ( 'NONE', #247, #696, #344 ) ;
#333 = ORIENTED_EDGE ( 'NONE', *, *, #138, .F. ) ;
#334 = DIRECTION ( 'NONE',  ( 2.775557561562891400E-016, 0.0000000000000000000, 1.000000000000000000 ) ) ;
#335 = CARTESIAN_POINT ( 'NONE',  ( 63.00000000000000000, 0.0000000000000000000, 20.00000000000000000 ) ) ;
#336 = FACE_OUTER_BOUND ( 'NONE', #456, .T. ) ;
#337 = ADVANCED_FACE ( 'NONE', ( #236 ), #159, .F. ) ;
#338 = CYLINDRICAL_SURFACE ( 'NONE', #1040, 4.499999999999993800 ) ;
#339 = EDGE_CURVE ( 'NONE', #314, #184, #329, .T. ) ;
#340 = CARTESIAN_POINT ( 'NONE',  ( 53.50000000000000000, 5.000000000000000000, -10.00000000000000200 ) ) ;
#341 = COLOUR_RGB ( '',1.000000000000000000, 0.0000000000000000000, 0.0000000000000000000 ) ;
#342 = CARTESIAN_POINT ( 'NONE',  ( 62.49999999999999300, 5.000000000000000000, -9.999999999999998200 ) ) ;
#343 = MECHANICAL_DESIGN_GEOMETRIC_PRESENTATION_REPRESENTATION (  '', ( #515 ), #924 ) ;
#344 = DIRECTION ( 'NONE',  ( 0.0000000000000000000, 0.0000000000000000000, 1.000000000000000000 ) ) ;
#345 = VERTEX_POINT ( 'NONE', #553 ) ;
#346 = VERTEX_POINT ( 'NONE', #643 ) ;
#347 = UNCERTAINTY_MEASURE_WITH_UNIT (LENGTH_MEASURE( 1.000000000000000100E-005 ), #638, 'distance_accuracy_value', 'NONE');
#348 = DIRECTION ( 'NONE',  ( 8.673617379884034200E-017, -5.311058880651917500E-033, 1.000000000000000000 ) ) ;
#349 = EDGE_CURVE ( 'NONE', #1156, #785, #496, .T. ) ;
#350 = CARTESIAN_POINT ( 'NONE',  ( 63.00000000000000000, 5.000000000000000000, 25.00000000000000000 ) ) ;
#351 = CARTESIAN_POINT ( 'NONE',  ( -37.78097245096171300, 1.949325900050508400E-015, -15.00000000000000700 ) ) ;
#352 = VERTEX_POINT ( 'NONE', #624 ) ;
#353 = EDGE_CURVE ( 'NONE', #1128, #480, #45, .T. ) ;
#354 = ADVANCED_FACE ( 'NONE', ( #582, #850, #678, #114, #1050 ), #15, .F. ) ;
#355 = DIRECTION ( 'NONE',  ( -1.734723475976809300E-016, 1.062211776130385000E-032, -1.000000000000000000 ) ) ;
#356 = VECTOR ( 'NONE', #650, 1000.000000000000000 ) ;
#357 =( NAMED_UNIT ( * ) PLANE_ANGLE_UNIT ( ) SI_UNIT ( $, .RADIAN. ) );
#358 = DIRECTION ( 'NONE',  ( -1.000000000000000000, 6.123233995736766000E-017, 1.734723475976809300E-016 ) ) ;
#359 = ORIENTED_EDGE ( 'NONE', *, *, #732, .T. ) ;
#360 = ADVANCED_FACE ( 'NONE', ( #904 ), #886, .F. ) ;
#361 = ORIENTED_EDGE ( 'NONE', *, *, #376, .F. ) ;
#362 = DIRECTION ( 'NONE',  ( 0.0000000000000000000, 1.000000000000000000, 0.0000000000000000000 ) ) ;
#363 = CARTESIAN_POINT ( 'NONE',  ( 3.219027549038279400, 9.999999999999998200, 25.00000000000000000 ) ) ;
#364 = LINE ( 'NONE', #259, #1113 ) ;
#365 = CARTESIAN_POINT ( 'NONE',  ( 53.49999999999999300, -5.000000000000000000, 15.00000000000000000 ) ) ;
#366 = CARTESIAN_POINT ( 'NONE',  ( 0.0000000000000000000, 0.0000000000000000000, 0.0000000000000000000 ) ) ;
#367 = CYLINDRICAL_SURFACE ( 'NONE', #488, 5.000000000000000900 ) ;
#368 = AXIS2_PLACEMENT_3D ( 'NONE', #335, #1161, #973 ) ;
#369 = ORIENTED_EDGE ( 'NONE', *, *, #884, .F. ) ;
#370 = ORIENTED_EDGE ( 'NONE', *, *, #764, .F. ) ;
#371 = PLANE ( 'NONE',  #684 ) ;
#372 = EDGE_LOOP ( 'NONE', ( #451, #241, #525, #653 ) ) ;
#373 = DIRECTION ( 'NONE',  ( 0.0000000000000000000, 0.0000000000000000000, 1.000000000000000000 ) ) ;
#374 = VERTEX_POINT ( 'NONE', #386 ) ;
#375 = DIRECTION ( 'NONE',  ( 0.0000000000000000000, 1.000000000000000000, 0.0000000000000000000 ) ) ;
#376 = EDGE_CURVE ( 'NONE', #1142, #756, #597, .T. ) ;
#377 = DIRECTION ( 'NONE',  ( 0.0000000000000000000, 1.000000000000000000, 0.0000000000000000000 ) ) ;
#378 = LINE ( 'NONE', #63, #576 ) ;
#379 = PRESENTATION_STYLE_ASSIGNMENT (( #262 ) ) ;
#380 = DIRECTION ( 'NONE',  ( 0.0000000000000000000, 0.0000000000000000000, 1.000000000000000000 ) ) ;
#381 = VECTOR ( 'NONE', #1095, 1000.000000000000000 ) ;
#382 = VECTOR ( 'NONE', #9, 1000.000000000000000 ) ;
#383 = AXIS2_PLACEMENT_3D ( 'NONE', #954, #575, #685 ) ;
#384 = ORIENTED_EDGE ( 'NONE', *, *, #707, .F. ) ;
#385 = ORIENTED_EDGE ( 'NONE', *, *, #532, .T. ) ;
#386 = CARTESIAN_POINT ( 'NONE',  ( 68.00000000000000000, 0.0000000000000000000, 20.00000000000000000 ) ) ;
#387 = CARTESIAN_POINT ( 'NONE',  ( 0.0000000000000000000, 5.000000000000000000, 25.00000000000000000 ) ) ;
#388 = VECTOR ( 'NONE', #53, 1000.000000000000000 ) ;
#389 = VECTOR ( 'NONE', #855, 1000.000000000000000 ) ;
#390 = DIRECTION ( 'NONE',  ( 0.0000000000000000000, 0.0000000000000000000, 1.000000000000000000 ) ) ;
#391 = EDGE_CURVE ( 'NONE', #112, #1174, #214, .T. ) ;
#392 =( NAMED_UNIT ( * ) SI_UNIT ( $, .STERADIAN. ) SOLID_ANGLE_UNIT ( ) );
#393 = ORIENTED_EDGE ( 'NONE', *, *, #860, .F. ) ;
#394 = ORIENTED_EDGE ( 'NONE', *, *, #253, .T. ) ;
#395 =( NAMED_UNIT ( * ) PLANE_ANGLE_UNIT ( ) SI_UNIT ( $, .RADIAN. ) );
#396 = VECTOR ( 'NONE', #227, 1000.000000000000000 ) ;
#397 = EDGE_CURVE ( 'NONE', #876, #24, #1118, .T. ) ;
#398 = PRESENTATION_LAYER_ASSIGNMENT (  '', '', ( #734 ) ) ;
#399 = CARTESIAN_POINT ( 'NONE',  ( 63.00000000000000000, 10.00000000000000200, 25.00000000000000000 ) ) ;
#400 = COLOUR_RGB ( '',1.000000000000000000, 1.000000000000000000, 1.000000000000000000 ) ;
#401 = LINE ( 'NONE', #13, #1130 ) ;
#402 = PRESENTATION_STYLE_ASSIGNMENT (( #306 ) ) ;
#403 = SURFACE_SIDE_STYLE ('',( #514 ) ) ;
#404 = EDGE_CURVE ( 'NONE', #112, #139, #256, .T. ) ;
#405 = AXIS2_PLACEMENT_3D ( 'NONE', #442, #1078, #926 ) ;
#406 = EDGE_LOOP ( 'NONE', ( #1005, #681, #85, #803 ) ) ;
#407 = CARTESIAN_POINT ( 'NONE',  ( 62.49999999999999300, -5.000000000000000000, -9.999999999999998200 ) ) ;
#408 = ORIENTED_EDGE ( 'NONE', *, *, #404, .T. ) ;
#409 = UNCERTAINTY_MEASURE_WITH_UNIT (LENGTH_MEASURE( 1.000000000000000100E-005 ), #500, 'distance_accuracy_value', 'NONE');
#410 = DIRECTION ( 'NONE',  ( 0.0000000000000000000, 1.000000000000000000, 0.0000000000000000000 ) ) ;
#411 = VECTOR ( 'NONE', #888, 1000.000000000000000 ) ;
#412 = COLOUR_RGB ( '',1.000000000000000000, 0.0000000000000000000, 0.0000000000000000000 ) ;
#413 = MECHANICAL_DESIGN_GEOMETRIC_PRESENTATION_REPRESENTATION (  '', ( #440 ), #91 ) ;
#414 = CIRCLE ( 'NONE', #27, 4.500000000000000900 ) ;
#415 = EDGE_LOOP ( 'NONE', ( #720, #319, #172, #283 ) ) ;
#416 =( LENGTH_UNIT ( ) NAMED_UNIT ( * ) SI_UNIT ( .MILLI., .METRE. ) );
#417 = CARTESIAN_POINT ( 'NONE',  ( -42.78097245096172700, 2.255487599837347500E-015, 20.00000000000000000 ) ) ;
#418 = CARTESIAN_POINT ( 'NONE',  ( 68.00000000000000000, 0.0000000000000000000, 25.00000000000000000 ) ) ;
#419 = FILL_AREA_STYLE ('',( #773 ) ) ;
#420 = CARTESIAN_POINT ( 'NONE',  ( -42.78097245096172700, 2.255487599837347500E-015, 25.00000000000000000 ) ) ;
#421 = ORIENTED_EDGE ( 'NONE', *, *, #835, .T. ) ;
#422 = EDGE_CURVE ( 'NONE', #840, #1069, #1093, .T. ) ;
#423 = DIRECTION ( 'NONE',  ( -6.123233995736766000E-017, -1.000000000000000000, -0.0000000000000000000 ) ) ;
#424 = STYLED_ITEM ( 'NONE', ( #92 ), #1073 ) ;
#425 = ORIENTED_EDGE ( 'NONE', *, *, #497, .T. ) ;
#426 = ADVANCED_FACE ( 'NONE', ( #960 ), #282, .F. ) ;
#427 = DIRECTION ( 'NONE',  ( 0.0000000000000000000, 0.0000000000000000000, 1.000000000000000000 ) ) ;
#428 = EDGE_LOOP ( 'NONE', ( #830, #566, #103, #892, #495 ) ) ;
#429 = UNCERTAINTY_MEASURE_WITH_UNIT (LENGTH_MEASURE( 1.000000000000000100E-005 ), #1159, 'distance_accuracy_value', 'NONE');
#430 = CARTESIAN_POINT ( 'NONE',  ( -42.78097245096172700, 10.00000000000000200, -20.00000000000000000 ) ) ;
#431 = VECTOR ( 'NONE', #679, 1000.000000000000000 ) ;
#432 = LINE ( 'NONE', #969, #981 ) ;
#433 = EDGE_CURVE ( 'NONE', #478, #24, #401, .T. ) ;
#434 = DIRECTION ( 'NONE',  ( -6.123233995736766000E-017, -1.000000000000000000, -0.0000000000000000000 ) ) ;
#435 =( LENGTH_UNIT ( ) NAMED_UNIT ( * ) SI_UNIT ( .MILLI., .METRE. ) );
#436 = CIRCLE ( 'NONE', #88, 4.500000000000000900 ) ;
#437 = DIRECTION ( 'NONE',  ( 2.775557561562891400E-016, 0.0000000000000000000, 1.000000000000000000 ) ) ;
#438 = EDGE_LOOP ( 'NONE', ( #499, #939, #621, #21 ) ) ;
#439 = SURFACE_STYLE_USAGE ( .BOTH. , #729 ) ;
#440 = STYLED_ITEM ( 'NONE', ( #1027 ), #360 ) ;
#441 = VECTOR ( 'NONE', #987, 1000.000000000000000 ) ;
#442 = CARTESIAN_POINT ( 'NONE',  ( -42.78097245096172700, 2.255487599837347500E-015, -20.00000000000000000 ) ) ;
#443 =( LENGTH_UNIT ( ) NAMED_UNIT ( * ) SI_UNIT ( .MILLI., .METRE. ) );
#444 = LINE ( 'NONE', #810, #565 ) ;
#445 = CYLINDRICAL_SURFACE ( 'NONE', #46, 4.500000000000000900 ) ;
#446 = EDGE_CURVE ( 'NONE', #24, #709, #465, .T. ) ;
#447 = DIRECTION ( 'NONE',  ( 0.0000000000000000000, 1.000000000000000000, 0.0000000000000000000 ) ) ;
#448 = PRESENTATION_LAYER_ASSIGNMENT (  '', '', ( #1121 ) ) ;
#449 = CIRCLE ( 'NONE', #817, 4.499999999999997300 ) ;
#450 = DIRECTION ( 'NONE',  ( 0.0000000000000000000, 0.0000000000000000000, 1.000000000000000000 ) ) ;
#451 = ORIENTED_EDGE ( 'NONE', *, *, #1132, .T. ) ;
#452 = ADVANCED_FACE ( 'NONE', ( #175 ), #371, .F. ) ;
#453 = DIRECTION ( 'NONE',  ( -6.123233995736766000E-017, -1.000000000000000000, -0.0000000000000000000 ) ) ;
#454 = DIRECTION ( 'NONE',  ( 1.000000000000000000, 0.0000000000000000000, -2.775557561562891800E-016 ) ) ;
#455 =( LENGTH_UNIT ( ) NAMED_UNIT ( * ) SI_UNIT ( .MILLI., .METRE. ) );
#456 = EDGE_LOOP ( 'NONE', ( #556, #725, #750, #604 ) ) ;
#457 = ORIENTED_EDGE ( 'NONE', *, *, #339, .F. ) ;
#458 = EDGE_CURVE ( 'NONE', #1123, #478, #176, .T. ) ;
#459 = DIRECTION ( 'NONE',  ( 0.0000000000000000000, 1.000000000000000000, 0.0000000000000000000 ) ) ;
#460 = AXIS2_PLACEMENT_3D ( 'NONE', #1115, #140, #26 ) ;
#461 = CIRCLE ( 'NONE', #332, 4.499999999999993800 ) ;
#462 = CARTESIAN_POINT ( 'NONE',  ( -17.78097245096172000, 10.00000000000000200, -10.50000000000000700 ) ) ;
#463 = ORIENTED_EDGE ( 'NONE', *, *, #433, .T. ) ;
#464 = EDGE_CURVE ( 'NONE', #314, #196, #449, .T. ) ;
#465 = CIRCLE ( 'NONE', #237, 5.000000000000000900 ) ;
#466 = DIRECTION ( 'NONE',  ( 1.000000000000000000, -6.123233995736766000E-017, 3.469446951953618600E-016 ) ) ;
#467 = PRODUCT ( 'Q235-5.0-BAN10-N1', 'Q235-5.0-BAN10-N1', '', ( #185 ) ) ;
#468 =( GEOMETRIC_REPRESENTATION_CONTEXT ( 3 ) GLOBAL_UNCERTAINTY_ASSIGNED_CONTEXT ( ( #836 ) ) GLOBAL_UNIT_ASSIGNED_CONTEXT ( ( #531, #187, #723 ) ) REPRESENTATION_CONTEXT ( 'NONE', 'WORKASPACE' ) );
#469 = ADVANCED_FACE ( 'NONE', ( #779 ), #1153, .T. ) ;
#470 = ORIENTED_EDGE ( 'NONE', *, *, #707, .T. ) ;
#471 = AXIS2_PLACEMENT_3D ( 'NONE', #133, #118, #670 ) ;
#472 = ORIENTED_EDGE ( 'NONE', *, *, #677, .T. ) ;
#473 = PRESENTATION_LAYER_ASSIGNMENT (  '', '', ( #424 ) ) ;
#474 = VECTOR ( 'NONE', #1074, 1000.000000000000000 ) ;
#475 = CARTESIAN_POINT ( 'NONE',  ( -37.78097245096170600, 10.00000000000000200, 19.49999999999998900 ) ) ;
#476 = CYLINDRICAL_SURFACE ( 'NONE', #574, 5.000000000000000900 ) ;
#477 = LINE ( 'NONE', #107, #970 ) ;
#478 = VERTEX_POINT ( 'NONE', #131 ) ;
#479 =( GEOMETRIC_REPRESENTATION_CONTEXT ( 3 ) GLOBAL_UNCERTAINTY_ASSIGNED_CONTEXT ( ( #1051 ) ) GLOBAL_UNIT_ASSIGNED_CONTEXT ( ( #762, #395, #123 ) ) REPRESENTATION_CONTEXT ( 'NONE', 'WORKASPACE' ) );
#480 = VERTEX_POINT ( 'NONE', #35 ) ;
#481 = CARTESIAN_POINT ( 'NONE',  ( 68.00000000000000000, 5.000000000000000000, -19.99999999999999600 ) ) ;
#482 = ORIENTED_EDGE ( 'NONE', *, *, #949, .F. ) ;
#483 = AXIS2_PLACEMENT_3D ( 'NONE', #366, #87, #931 ) ;
#484 = FILL_AREA_STYLE_COLOUR ( '', #264 ) ;
#485 = ORIENTED_EDGE ( 'NONE', *, *, #589, .T. ) ;
#486 = EDGE_CURVE ( 'NONE', #260, #139, #1181, .T. ) ;
#487 = SURFACE_STYLE_USAGE ( .BOTH. , #862 ) ;
#488 = AXIS2_PLACEMENT_3D ( 'NONE', #417, #798, #815 ) ;
#489 = DIRECTION ( 'NONE',  ( 0.0000000000000000000, 1.000000000000000000, 0.0000000000000000000 ) ) ;
#490 = PRESENTATION_STYLE_ASSIGNMENT (( #231 ) ) ;
#491 = LINE ( 'NONE', #399, #1013 ) ;
#492 = CARTESIAN_POINT ( 'NONE',  ( -17.78097245096172000, 7.246791009031553500E-016, -10.50000000000000700 ) ) ;
#493 = LINE ( 'NONE', #276, #381 ) ;
#494 =( NAMED_UNIT ( * ) SI_UNIT ( $, .STERADIAN. ) SOLID_ANGLE_UNIT ( ) );
#495 = ORIENTED_EDGE ( 'NONE', *, *, #771, .F. ) ;
#496 = LINE ( 'NONE', #910, #204 ) ;
#497 = EDGE_CURVE ( 'NONE', #756, #242, #552, .T. ) ;
#498 = DIRECTION ( 'NONE',  ( -0.0000000000000000000, 1.000000000000000000, -0.0000000000000000000 ) ) ;
#499 = ORIENTED_EDGE ( 'NONE', *, *, #446, .F. ) ;
#500 =( LENGTH_UNIT ( ) NAMED_UNIT ( * ) SI_UNIT ( .MILLI., .METRE. ) );
#501 = LINE ( 'NONE', #594, #388 ) ;
#502 = CARTESIAN_POINT ( 'NONE',  ( 31.50000000000000000, -5.000000000000000000, 15.00000000000000000 ) ) ;
#503 = FACE_OUTER_BOUND ( 'NONE', #372, .T. ) ;
#504 = ORIENTED_EDGE ( 'NONE', *, *, #871, .F. ) ;
#505 = CARTESIAN_POINT ( 'NONE',  ( 40.50000000000000000, 0.0000000000000000000, 25.00000000000001100 ) ) ;
#506 = ORIENTED_EDGE ( 'NONE', *, *, #740, .F. ) ;
#507 = FILL_AREA_STYLE ('',( #144 ) ) ;
#508 = ORIENTED_EDGE ( 'NONE', *, *, #697, .T. ) ;
#509 = ORIENTED_EDGE ( 'NONE', *, *, #99, .F. ) ;
#510 =( NAMED_UNIT ( * ) SI_UNIT ( $, .STERADIAN. ) SOLID_ANGLE_UNIT ( ) );
#511 = FILL_AREA_STYLE_COLOUR ( '', #793 ) ;
#512 = EDGE_CURVE ( 'NONE', #346, #267, #717, .T. ) ;
#513 = CARTESIAN_POINT ( 'NONE',  ( 40.50000000000000700, -5.000000000000000000, -10.00000000000000000 ) ) ;
#514 = SURFACE_STYLE_FILL_AREA ( #44 ) ;
#515 = STYLED_ITEM ( 'NONE', ( #327 ), #167 ) ;
#516 = LINE ( 'NONE', #365, #59 ) ;
#517 = ORIENTED_EDGE ( 'NONE', *, *, #391, .T. ) ;
#518 = ORIENTED_EDGE ( 'NONE', *, *, #458, .T. ) ;
#519 = FILL_AREA_STYLE ('',( #55 ) ) ;
#520 = ADVANCED_FACE ( 'NONE', ( #943 ), #14, .F. ) ;
#521 = DIRECTION ( 'NONE',  ( 0.0000000000000000000, 0.0000000000000000000, 1.000000000000000000 ) ) ;
#522 = EDGE_CURVE ( 'NONE', #267, #978, #1047, .T. ) ;
#523 = DIRECTION ( 'NONE',  ( 0.0000000000000000000, 0.0000000000000000000, 1.000000000000000000 ) ) ;
#524 = AXIS2_PLACEMENT_3D ( 'NONE', #982, #703, #988 ) ;
#525 = ORIENTED_EDGE ( 'NONE', *, *, #376, .T. ) ;
#526 = FILL_AREA_STYLE ('',( #249 ) ) ;
#527 = STYLED_ITEM ( 'NONE', ( #766 ), #71 ) ;
#528 = DIRECTION ( 'NONE',  ( 6.123233995736766000E-017, 1.000000000000000000, 0.0000000000000000000 ) ) ;
#529 = AXIS2_PLACEMENT_3D ( 'NONE', #351, #903, #612 ) ;
#530 = LINE ( 'NONE', #265, #663 ) ;
#531 =( LENGTH_UNIT ( ) NAMED_UNIT ( * ) SI_UNIT ( .MILLI., .METRE. ) );
#532 = EDGE_CURVE ( 'NONE', #345, #876, #108, .T. ) ;
#533 = CARTESIAN_POINT ( 'NONE',  ( -17.78097245096171300, 10.00000000000000200, 15.00000000000000400 ) ) ;
#534 = ORIENTED_EDGE ( 'NONE', *, *, #853, .F. ) ;
#535 = CARTESIAN_POINT ( 'NONE',  ( 62.49999999999999300, -5.000000000000000000, -9.999999999999998200 ) ) ;
#536 = ORIENTED_EDGE ( 'NONE', *, *, #404, .F. ) ;
#537 = AXIS2_PLACEMENT_3D ( 'NONE', #1104, #207, #752 ) ;
#538 = FILL_AREA_STYLE ('',( #1089 ) ) ;
#539 = CIRCLE ( 'NONE', #311, 4.500000000000000900 ) ;
#540 = FACE_OUTER_BOUND ( 'NONE', #146, .T. ) ;
#541 = EDGE_LOOP ( 'NONE', ( #51, #33, #1097, #129 ) ) ;
#542 = EDGE_CURVE ( 'NONE', #829, #928, #222, .T. ) ;
#543 = DIRECTION ( 'NONE',  ( -6.123233995736766000E-017, -1.000000000000000000, -0.0000000000000000000 ) ) ;
#544 =( GEOMETRIC_REPRESENTATION_CONTEXT ( 3 ) GLOBAL_UNCERTAINTY_ASSIGNED_CONTEXT ( ( #429 ) ) GLOBAL_UNIT_ASSIGNED_CONTEXT ( ( #1159, #1071, #173 ) ) REPRESENTATION_CONTEXT ( 'NONE', 'WORKASPACE' ) );
#545 = LINE ( 'NONE', #30, #832 ) ;
#546 = CARTESIAN_POINT ( 'NONE',  ( -37.78097245096172000, 1.949325900050508800E-015, -19.50000000000000000 ) ) ;
#547 = MANIFOLD_SOLID_BREP ( '平板型式', #877 ) ;
#548 = ORIENTED_EDGE ( 'NONE', *, *, #629, .F. ) ;
#549 = ORIENTED_EDGE ( 'NONE', *, *, #109, .F. ) ;
#550 = EDGE_CURVE ( 'NONE', #147, #1123, #491, .T. ) ;
#551 = SURFACE_SIDE_STYLE ('',( #705 ) ) ;
#552 = CIRCLE ( 'NONE', #460, 4.500000000000000900 ) ;
#553 = CARTESIAN_POINT ( 'NONE',  ( 63.00000000000000000, 0.0000000000000000000, -25.00000000000000000 ) ) ;
#554 = LINE ( 'NONE', #180, #382 ) ;
#555 = PRESENTATION_LAYER_ASSIGNMENT (  '', '', ( #188 ) ) ;
#556 = ORIENTED_EDGE ( 'NONE', *, *, #1160, .F. ) ;
#557 = ORIENTED_EDGE ( 'NONE', *, *, #1160, .T. ) ;
#558 = ORIENTED_EDGE ( 'NONE', *, *, #601, .F. ) ;
#559 = MECHANICAL_DESIGN_GEOMETRIC_PRESENTATION_REPRESENTATION (  '', ( #966 ), #210 ) ;
#560 = DIRECTION ( 'NONE',  ( 0.0000000000000000000, 0.0000000000000000000, 1.000000000000000000 ) ) ;
#561 = LINE ( 'NONE', #513, #40 ) ;
#562 = CARTESIAN_POINT ( 'NONE',  ( 63.00000000000000000, 0.0000000000000000000, 25.00000000000000000 ) ) ;
#563 = CYLINDRICAL_SURFACE ( 'NONE', #194, 5.000000000000000900 ) ;
#564 = SURFACE_STYLE_USAGE ( .BOTH. , #134 ) ;
#565 = VECTOR ( 'NONE', #625, 1000.000000000000000 ) ;
#566 = ORIENTED_EDGE ( 'NONE', *, *, #1105, .F. ) ;
#567 = EDGE_CURVE ( 'NONE', #783, #147, #58, .T. ) ;
#568 = DIRECTION ( 'NONE',  ( 6.123233995736766000E-017, 1.000000000000000000, 0.0000000000000000000 ) ) ;
#569 = AXIS2_PLACEMENT_3D ( 'NONE', #1127, #867, #1129 ) ;
#570 = CARTESIAN_POINT ( 'NONE',  ( -37.78097245096172000, 1.949325900050508800E-015, -10.50000000000000500 ) ) ;
#571 = ORIENTED_EDGE ( 'NONE', *, *, #542, .T. ) ;
#572 = ORIENTED_EDGE ( 'NONE', *, *, #714, .F. ) ;
#573 = CARTESIAN_POINT ( 'NONE',  ( -17.78097245096172000, 7.246791009031553500E-016, -15.00000000000000700 ) ) ;
#574 = AXIS2_PLACEMENT_3D ( 'NONE', #430, #169, #523 ) ;
#575 = DIRECTION ( 'NONE',  ( -6.123233995736766000E-017, -1.000000000000000000, -0.0000000000000000000 ) ) ;
#576 = VECTOR ( 'NONE', #894, 1000.000000000000000 ) ;
#577 = SURFACE_STYLE_FILL_AREA ( #721 ) ;
#578 = ORIENTED_EDGE ( 'NONE', *, *, #422, .F. ) ;
#579 = EDGE_LOOP ( 'NONE', ( #694, #1043, #1163, #1010 ) ) ;
#580 = FACE_BOUND ( 'NONE', #84, .T. ) ;
#581 = DIRECTION ( 'NONE',  ( 2.775557561562891400E-016, 0.0000000000000000000, -1.000000000000000000 ) ) ;
#582 = FACE_BOUND ( 'NONE', #217, .T. ) ;
#583 = PRESENTATION_LAYER_ASSIGNMENT (  '', '', ( #527 ) ) ;
#584 = STYLED_ITEM ( 'NONE', ( #749 ), #1085 ) ;
#585 = ORIENTED_EDGE ( 'NONE', *, *, #567, .T. ) ;
#586 = EDGE_LOOP ( 'NONE', ( #726, #393, #65, #290 ) ) ;
#587 = DIRECTION ( 'NONE',  ( 0.0000000000000000000, 1.000000000000000000, 0.0000000000000000000 ) ) ;
#588 = ORIENTED_EDGE ( 'NONE', *, *, #458, .F. ) ;
#589 = EDGE_CURVE ( 'NONE', #216, #623, #432, .T. ) ;
#590 = CIRCLE ( 'NONE', #800, 5.000000000000000900 ) ;
#591 =( GEOMETRIC_REPRESENTATION_CONTEXT ( 3 ) GLOBAL_UNCERTAINTY_ASSIGNED_CONTEXT ( ( #641 ) ) GLOBAL_UNIT_ASSIGNED_CONTEXT ( ( #680, #622, #989 ) ) REPRESENTATION_CONTEXT ( 'NONE', 'WORKASPACE' ) );
#592 =( NAMED_UNIT ( * ) SI_UNIT ( $, .STERADIAN. ) SOLID_ANGLE_UNIT ( ) );
#593 = LINE ( 'NONE', #179, #997 ) ;
#594 = CARTESIAN_POINT ( 'NONE',  ( 68.00000000000000000, 5.000000000000000000, 20.00000000000000000 ) ) ;
#595 = FACE_OUTER_BOUND ( 'NONE', #953, .T. ) ;
#596 = DIRECTION ( 'NONE',  ( -1.000000000000000000, 6.123233995736766000E-017, 1.734723475976809300E-016 ) ) ;
#597 = LINE ( 'NONE', #296, #154 ) ;
#598 = ADVANCED_FACE ( 'NONE', ( #957 ), #124, .F. ) ;
#599 = SURFACE_STYLE_USAGE ( .BOTH. , #1052 ) ;
#600 = CARTESIAN_POINT ( 'NONE',  ( -42.78097245096172700, 2.255487599837347500E-015, 20.00000000000000000 ) ) ;
#601 = EDGE_CURVE ( 'NONE', #1081, #841, #1046, .T. ) ;
#602 = PLANE ( 'NONE',  #524 ) ;
#603 = MECHANICAL_DESIGN_GEOMETRIC_PRESENTATION_REPRESENTATION (  '', ( #1121 ), #468 ) ;
#604 = ORIENTED_EDGE ( 'NONE', *, *, #200, .T. ) ;
#605 = CARTESIAN_POINT ( 'NONE',  ( 57.99999999999999300, -5.000000000000000000, 15.00000000000000000 ) ) ;
#606 = ORIENTED_EDGE ( 'NONE', *, *, #215, .F. ) ;
#607 = ADVANCED_FACE ( 'NONE', ( #28 ), #1048, .T. ) ;
#608 = DIRECTION ( 'NONE',  ( -1.000000000000000000, 6.123233995736766000E-017, 3.469446951953615200E-016 ) ) ;
#609 = CARTESIAN_POINT ( 'NONE',  ( -37.78097245096170600, 5.000000000000001800, 19.49999999999998900 ) ) ;
#610 = CARTESIAN_POINT ( 'NONE',  ( 31.49999999999999300, 5.000000000000000000, -10.00000000000000200 ) ) ;
#611 = EDGE_CURVE ( 'NONE', #925, #971, #897, .T. ) ;
#612 = DIRECTION ( 'NONE',  ( 0.0000000000000000000, 0.0000000000000000000, 1.000000000000000000 ) ) ;
#613 = CARTESIAN_POINT ( 'NONE',  ( -37.78097245096170600, 1.949325900050508000E-015, 10.49999999999999800 ) ) ;
#614 = ADVANCED_FACE ( 'NONE', ( #880 ), #563, .T. ) ;
#615 = ORIENTED_EDGE ( 'NONE', *, *, #732, .F. ) ;
#616 = CARTESIAN_POINT ( 'NONE',  ( 40.50000000000000000, 5.000000000000000000, 15.00000000000000000 ) ) ;
#617 = VECTOR ( 'NONE', #437, 1000.000000000000000 ) ;
#618 = SURFACE_STYLE_USAGE ( .BOTH. , #60 ) ;
#619 = CARTESIAN_POINT ( 'NONE',  ( 62.50000000000000000, 0.0000000000000000000, 24.99999999999998600 ) ) ;
#620 = DIRECTION ( 'NONE',  ( 6.123233995736766000E-017, 1.000000000000000000, 0.0000000000000000000 ) ) ;
#621 = ORIENTED_EDGE ( 'NONE', *, *, #532, .F. ) ;
#622 =( NAMED_UNIT ( * ) PLANE_ANGLE_UNIT ( ) SI_UNIT ( $, .RADIAN. ) );
#623 = VERTEX_POINT ( 'NONE', #964 ) ;
#624 = CARTESIAN_POINT ( 'NONE',  ( 40.50000000000000000, 0.0000000000000000000, 15.00000000000000000 ) ) ;
#625 = DIRECTION ( 'NONE',  ( 1.000000000000000000, -6.123233995736766000E-017, 0.0000000000000000000 ) ) ;
#626 = DIRECTION ( 'NONE',  ( -6.123233995736766000E-017, -1.000000000000000000, -0.0000000000000000000 ) ) ;
#627 = CIRCLE ( 'NONE', #529, 4.499999999999999100 ) ;
#628 = CARTESIAN_POINT ( 'NONE',  ( -42.78097245096172700, 5.000000000000002700, 25.00000000000000000 ) ) ;
#629 = EDGE_CURVE ( 'NONE', #98, #1123, #1022, .T. ) ;
#630 = FILL_AREA_STYLE_COLOUR ( '', #122 ) ;
#631 = PRESENTATION_LAYER_ASSIGNMENT (  '', '', ( #966 ) ) ;
#632 =( NAMED_UNIT ( * ) PLANE_ANGLE_UNIT ( ) SI_UNIT ( $, .RADIAN. ) );
#633 = ORIENTED_EDGE ( 'NONE', *, *, #757, .F. ) ;
#634 = CARTESIAN_POINT ( 'NONE',  ( -37.78097245096170600, 5.000000000000001800, 10.49999999999999800 ) ) ;
#635 = APPLICATION_PROTOCOL_DEFINITION ( 'draft international standard', 'automotive_design', 1998, #1177 ) ;
#636 = EDGE_CURVE ( 'NONE', #704, #971, #700, .T. ) ;
#637 = ORIENTED_EDGE ( 'NONE', *, *, #542, .F. ) ;
#638 =( LENGTH_UNIT ( ) NAMED_UNIT ( * ) SI_UNIT ( .MILLI., .METRE. ) );
#639 = ORIENTED_EDGE ( 'NONE', *, *, #64, .F. ) ;
#640 = ORIENTED_EDGE ( 'NONE', *, *, #550, .F. ) ;
#641 = UNCERTAINTY_MEASURE_WITH_UNIT (LENGTH_MEASURE( 1.000000000000000100E-005 ), #680, 'distance_accuracy_value', 'NONE');
#642 =( GEOMETRIC_REPRESENTATION_CONTEXT ( 3 ) GLOBAL_UNCERTAINTY_ASSIGNED_CONTEXT ( ( #1134 ) ) GLOBAL_UNIT_ASSIGNED_CONTEXT ( ( #674, #672, #392 ) ) REPRESENTATION_CONTEXT ( 'NONE', 'WORKASPACE' ) );
#643 = CARTESIAN_POINT ( 'NONE',  ( 62.49999999999999300, 0.0000000000000000000, -9.999999999999998200 ) ) ;
#644 = AXIS2_PLACEMENT_3D ( 'NONE', #220, #760, #390 ) ;
#645 = CYLINDRICAL_SURFACE ( 'NONE', #972, 4.500000000000000900 ) ;
#646 = ADVANCED_BREP_SHAPE_REPRESENTATION ( 'Q235-5.0-BAN10-N1', ( #547, #483 ), #83 ) ;
#647 = COLOUR_RGB ( '',1.000000000000000000, 0.0000000000000000000, 0.0000000000000000000 ) ;
#648 = SURFACE_STYLE_FILL_AREA ( #658 ) ;
#649 = DIRECTION ( 'NONE',  ( 0.0000000000000000000, 0.0000000000000000000, 1.000000000000000000 ) ) ;
#650 = DIRECTION ( 'NONE',  ( 0.0000000000000000000, 0.0000000000000000000, -1.000000000000000000 ) ) ;
#651 = DIRECTION ( 'NONE',  ( 0.0000000000000000000, 0.0000000000000000000, 1.000000000000000000 ) ) ;
#652 = DIRECTION ( 'NONE',  ( 6.123233995736766000E-017, 1.000000000000000000, 0.0000000000000000000 ) ) ;
#653 = ORIENTED_EDGE ( 'NONE', *, *, #835, .F. ) ;
#654 = MECHANICAL_DESIGN_GEOMETRIC_PRESENTATION_REPRESENTATION (  '', ( #527 ), #722 ) ;
#655 = PRESENTATION_LAYER_ASSIGNMENT (  '', '', ( #584 ) ) ;
#656 = ORIENTED_EDGE ( 'NONE', *, *, #822, .F. ) ;
#657 = CARTESIAN_POINT ( 'NONE',  ( 68.00000000000000000, 5.000000000000000000, -19.99999999999999600 ) ) ;
#658 = FILL_AREA_STYLE ('',( #1032 ) ) ;
#659 = CARTESIAN_POINT ( 'NONE',  ( -37.78097245096170600, 5.000000000000001800, 14.99999999999999600 ) ) ;
#660 = LINE ( 'NONE', #340, #441 ) ;
#661 = EDGE_CURVE ( 'NONE', #352, #145, #932, .T. ) ;
#662 = SURFACE_SIDE_STYLE ('',( #648 ) ) ;
#663 = VECTOR ( 'NONE', #543, 1000.000000000000000 ) ;
#664 = FACE_BOUND ( 'NONE', #909, .T. ) ;
#665 = VECTOR ( 'NONE', #1099, 1000.000000000000000 ) ;
#666 = PRESENTATION_LAYER_ASSIGNMENT (  '', '', ( #515 ) ) ;
#667 = CARTESIAN_POINT ( 'NONE',  ( 63.00000000000000000, 0.0000000000000000000, -20.00000000000000000 ) ) ;
#668 = ORIENTED_EDGE ( 'NONE', *, *, #1016, .T. ) ;
#669 = EDGE_LOOP ( 'NONE', ( #588, #640, #504, #369 ) ) ;
#670 = DIRECTION ( 'NONE',  ( 0.0000000000000000000, 0.0000000000000000000, 1.000000000000000000 ) ) ;
#671 = STYLED_ITEM ( 'NONE', ( #863 ), #1167 ) ;
#672 =( NAMED_UNIT ( * ) PLANE_ANGLE_UNIT ( ) SI_UNIT ( $, .RADIAN. ) );
#673 = LINE ( 'NONE', #57, #170 ) ;
#674 =( LENGTH_UNIT ( ) NAMED_UNIT ( * ) SI_UNIT ( .MILLI., .METRE. ) );
#675 = ORIENTED_EDGE ( 'NONE', *, *, #1182, .F. ) ;
#676 = VECTOR ( 'NONE', #921, 1000.000000000000000 ) ;
#677 = EDGE_CURVE ( 'NONE', #235, #66, #70, .T. ) ;
#678 = FACE_OUTER_BOUND ( 'NONE', #318, .T. ) ;
#679 = DIRECTION ( 'NONE',  ( 0.0000000000000000000, 1.000000000000000000, 0.0000000000000000000 ) ) ;
#680 =( LENGTH_UNIT ( ) NAMED_UNIT ( * ) SI_UNIT ( .MILLI., .METRE. ) );
#681 = ORIENTED_EDGE ( 'NONE', *, *, #353, .T. ) ;
#682 = CARTESIAN_POINT ( 'NONE',  ( -47.78097245096172700, 2.561649299624185700E-015, 25.00000000000000000 ) ) ;
#683 = ORIENTED_EDGE ( 'NONE', *, *, #497, .F. ) ;
#684 = AXIS2_PLACEMENT_3D ( 'NONE', #475, #299, #466 ) ;
#685 = DIRECTION ( 'NONE',  ( 0.0000000000000000000, 0.0000000000000000000, 1.000000000000000000 ) ) ;
#686 = SURFACE_STYLE_FILL_AREA ( #947 ) ;
#687 = FACE_OUTER_BOUND ( 'NONE', #702, .T. ) ;
#688 = DIRECTION ( 'NONE',  ( -1.000000000000000000, 6.123233995736766000E-017, 0.0000000000000000000 ) ) ;
#689 = EDGE_LOOP ( 'NONE', ( #52, #849, #1019, #252 ) ) ;
#690 = AXIS2_PLACEMENT_3D ( 'NONE', #255, #786, #161 ) ;
#691 = CARTESIAN_POINT ( 'NONE',  ( -47.78097245096172700, 5.000000000000002700, 19.49999999999998600 ) ) ;
#692 = ORIENTED_EDGE ( 'NONE', *, *, #177, .T. ) ;
#693 = DIRECTION ( 'NONE',  ( 1.000000000000000000, -6.123233995736766000E-017, -3.469446951953614700E-016 ) ) ;
#694 = ORIENTED_EDGE ( 'NONE', *, *, #99, .T. ) ;
#695 = UNCERTAINTY_MEASURE_WITH_UNIT (LENGTH_MEASURE( 1.000000000000000100E-005 ), #961, 'distance_accuracy_value', 'NONE');
#696 = DIRECTION ( 'NONE',  ( -6.123233995736766000E-017, -1.000000000000000000, 0.0000000000000000000 ) ) ;
#697 = EDGE_CURVE ( 'NONE', #346, #315, #309, .T. ) ;
#698 = CARTESIAN_POINT ( 'NONE',  ( 40.50000000000000700, 5.000000000000000000, -10.00000000000000000 ) ) ;
#699 = SURFACE_STYLE_USAGE ( .BOTH. , #799 ) ;
#700 = CIRCLE ( 'NONE', #1061, 4.500000000000000900 ) ;
#701 = PRESENTATION_LAYER_ASSIGNMENT (  '', '', ( #878 ) ) ;
#702 = EDGE_LOOP ( 'NONE', ( #1070, #818, #272, #457 ) ) ;
#703 = DIRECTION ( 'NONE',  ( -1.000000000000000000, 0.0000000000000000000, 0.0000000000000000000 ) ) ;
#704 = VERTEX_POINT ( 'NONE', #784 ) ;
#705 = SURFACE_STYLE_FILL_AREA ( #116 ) ;
#706 = DIRECTION ( 'NONE',  ( -6.123233995736766000E-017, -1.000000000000000000, -0.0000000000000000000 ) ) ;
#707 = EDGE_CURVE ( 'NONE', #623, #225, #1072, .T. ) ;
#708 = PRESENTATION_LAYER_ASSIGNMENT (  '', '', ( #1112 ) ) ;
#709 = VERTEX_POINT ( 'NONE', #789 ) ;
#710 = FILL_AREA_STYLE ('',( #980 ) ) ;
#711 = EDGE_LOOP ( 'NONE', ( #482, #197, #759, #50, #117, #518, #463, #206 ) ) ;
#712 = ADVANCED_FACE ( 'NONE', ( #336 ), #775, .F. ) ;
#713 = DIRECTION ( 'NONE',  ( 1.000000000000000000, 0.0000000000000000000, 2.775557561562891400E-016 ) ) ;
#714 = EDGE_CURVE ( 'NONE', #1055, #1142, #461, .T. ) ;
#715 = LINE ( 'NONE', #1068, #913 ) ;
#716 = PRESENTATION_LAYER_ASSIGNMENT (  '', '', ( #983 ) ) ;
#717 = CIRCLE ( 'NONE', #569, 4.499999999999997300 ) ;
#718 = SURFACE_STYLE_FILL_AREA ( #538 ) ;
#719 = ORIENTED_EDGE ( 'NONE', *, *, #177, .F. ) ;
#720 = ORIENTED_EDGE ( 'NONE', *, *, #853, .T. ) ;
#721 = FILL_AREA_STYLE ('',( #90 ) ) ;
#722 =( GEOMETRIC_REPRESENTATION_CONTEXT ( 3 ) GLOBAL_UNCERTAINTY_ASSIGNED_CONTEXT ( ( #1009 ) ) GLOBAL_UNIT_ASSIGNED_CONTEXT ( ( #858, #307, #128 ) ) REPRESENTATION_CONTEXT ( 'NONE', 'WORKASPACE' ) );
#723 =( NAMED_UNIT ( * ) SI_UNIT ( $, .STERADIAN. ) SOLID_ANGLE_UNIT ( ) );
#724 = AXIS2_PLACEMENT_3D ( 'NONE', #75, #713, #1080 ) ;
#725 = ORIENTED_EDGE ( 'NONE', *, *, #54, .F. ) ;
#726 = ORIENTED_EDGE ( 'NONE', *, *, #1144, .F. ) ;
#727 = DIRECTION ( 'NONE',  ( -6.123233995736766000E-017, -1.000000000000000000, -0.0000000000000000000 ) ) ;
#728 = PLANE ( 'NONE',  #25 ) ;
#729 = SURFACE_SIDE_STYLE ('',( #149 ) ) ;
#730 = SURFACE_SIDE_STYLE ('',( #577 ) ) ;
#731 = VECTOR ( 'NONE', #1057, 1000.000000000000000 ) ;
#732 = EDGE_CURVE ( 'NONE', #304, #925, #539, .T. ) ;
#733 = DIRECTION ( 'NONE',  ( 6.123233995736766000E-017, 1.000000000000000000, 0.0000000000000000000 ) ) ;
#734 = STYLED_ITEM ( 'NONE', ( #915 ), #646 ) ;
#735 = CARTESIAN_POINT ( 'NONE',  ( -37.78097245096170600, 10.00000000000000200, 14.99999999999999600 ) ) ;
#736 = ORIENTED_EDGE ( 'NONE', *, *, #54, .T. ) ;
#737 = EDGE_LOOP ( 'NONE', ( #615, #557, #738, #742 ) ) ;
#738 = ORIENTED_EDGE ( 'NONE', *, *, #636, .T. ) ;
#739 = DIRECTION ( 'NONE',  ( 0.0000000000000000000, 0.0000000000000000000, 1.000000000000000000 ) ) ;
#740 = EDGE_CURVE ( 'NONE', #235, #785, #673, .T. ) ;
#741 = SURFACE_SIDE_STYLE ('',( #80 ) ) ;
#742 = ORIENTED_EDGE ( 'NONE', *, *, #611, .F. ) ;
#743 = CARTESIAN_POINT ( 'NONE',  ( 36.00000000000000000, 0.0000000000000000000, 15.00000000000000000 ) ) ;
#744 = FILL_AREA_STYLE_COLOUR ( '', #647 ) ;
#745 = FACE_OUTER_BOUND ( 'NONE', #868, .T. ) ;
#746 = VECTOR ( 'NONE', #560, 1000.000000000000000 ) ;
#747 = CARTESIAN_POINT ( 'NONE',  ( -37.78097245096171300, 5.000000000000001800, -15.00000000000000700 ) ) ;
#748 = AXIS2_PLACEMENT_3D ( 'NONE', #837, #4, #380 ) ;
#749 = PRESENTATION_STYLE_ASSIGNMENT (( #618 ) ) ;
#750 = ORIENTED_EDGE ( 'NONE', *, *, #1008, .T. ) ;
#751 = FACE_OUTER_BOUND ( 'NONE', #1054, .T. ) ;
#752 = DIRECTION ( 'NONE',  ( 0.0000000000000000000, 0.0000000000000000000, 1.000000000000000000 ) ) ;
#753 = FILL_AREA_STYLE ('',( #1120 ) ) ;
#754 = DIRECTION ( 'NONE',  ( 0.0000000000000000000, 0.0000000000000000000, -1.000000000000000000 ) ) ;
#755 = CARTESIAN_POINT ( 'NONE',  ( 36.00000000000000000, 5.000000000000000000, 15.00000000000000000 ) ) ;
#756 = VERTEX_POINT ( 'NONE', #156 ) ;
#757 = EDGE_CURVE ( 'NONE', #196, #153, #378, .T. ) ;
#758 = DIRECTION ( 'NONE',  ( -6.123233995736766000E-017, -1.000000000000000000, -0.0000000000000000000 ) ) ;
#759 = ORIENTED_EDGE ( 'NONE', *, *, #275, .F. ) ;
#760 = DIRECTION ( 'NONE',  ( 0.0000000000000000000, 1.000000000000000000, 0.0000000000000000000 ) ) ;
#761 = SURFACE_SIDE_STYLE ('',( #5 ) ) ;
#762 =( LENGTH_UNIT ( ) NAMED_UNIT ( * ) SI_UNIT ( .MILLI., .METRE. ) );
#763 = VECTOR ( 'NONE', #1044, 1000.000000000000000 ) ;
#764 = EDGE_CURVE ( 'NONE', #1081, #1055, #715, .T. ) ;
#765 = CIRCLE ( 'NONE', #405, 5.000000000000000900 ) ;
#766 = PRESENTATION_STYLE_ASSIGNMENT (( #487 ) ) ;
#767 = SURFACE_SIDE_STYLE ('',( #686 ) ) ;
#768 = AXIS2_PLACEMENT_3D ( 'NONE', #937, #652, #941 ) ;
#769 =( LENGTH_UNIT ( ) NAMED_UNIT ( * ) SI_UNIT ( .MILLI., .METRE. ) );
#770 = ORIENTED_EDGE ( 'NONE', *, *, #567, .F. ) ;
#771 = EDGE_CURVE ( 'NONE', #1034, #952, #660, .T. ) ;
#772 = STYLED_ITEM ( 'NONE', ( #776 ), #547 ) ;
#773 = FILL_AREA_STYLE_COLOUR ( '', #1101 ) ;
#774 = DIRECTION ( 'NONE',  ( 0.0000000000000000000, 1.000000000000000000, 0.0000000000000000000 ) ) ;
#775 = CYLINDRICAL_SURFACE ( 'NONE', #1154, 4.500000000000000900 ) ;
#776 = PRESENTATION_STYLE_ASSIGNMENT (( #1124 ) ) ;
#777 =( NAMED_UNIT ( * ) SI_UNIT ( $, .STERADIAN. ) SOLID_ANGLE_UNIT ( ) );
#778 = LINE ( 'NONE', #995, #916 ) ;
#779 = FACE_OUTER_BOUND ( 'NONE', #438, .T. ) ;
#780 = EDGE_CURVE ( 'NONE', #145, #829, #561, .T. ) ;
#781 = AXIS2_PLACEMENT_3D ( 'NONE', #1162, #157, #163 ) ;
#782 = CARTESIAN_POINT ( 'NONE',  ( 63.00000000000000000, 5.000000000000000000, 20.00000000000000000 ) ) ;
#783 = VERTEX_POINT ( 'NONE', #420 ) ;
#784 = CARTESIAN_POINT ( 'NONE',  ( 57.99999999999999300, 5.000000000000000000, 19.50000000000000000 ) ) ;
#785 = VERTEX_POINT ( 'NONE', #168 ) ;
#786 = DIRECTION ( 'NONE',  ( -1.000000000000000000, 0.0000000000000000000, 2.775557561562891400E-016 ) ) ;
#787 = AXIS2_PLACEMENT_3D ( 'NONE', #1024, #919, #834 ) ;
#788 = UNCERTAINTY_MEASURE_WITH_UNIT (LENGTH_MEASURE( 1.000000000000000100E-005 ), #769, 'distance_accuracy_value', 'NONE');
#789 = CARTESIAN_POINT ( 'NONE',  ( 63.00000000000000000, 5.000000000000000000, -25.00000000000000000 ) ) ;
#790 = UNCERTAINTY_MEASURE_WITH_UNIT (LENGTH_MEASURE( 1.000000000000000100E-005 ), #923, 'distance_accuracy_value', 'NONE');
#791 = CARTESIAN_POINT ( 'NONE',  ( 63.00000000000000000, 10.00000000000000200, -25.00000000000000000 ) ) ;
#792 = CARTESIAN_POINT ( 'NONE',  ( -37.78097245096171300, 10.00000000000000200, -15.00000000000000700 ) ) ;
#793 = COLOUR_RGB ( '',1.000000000000000000, 0.0000000000000000000, 0.0000000000000000000 ) ;
#794 = VECTOR ( 'NONE', #596, 1000.000000000000000 ) ;
#795 = ORIENTED_EDGE ( 'NONE', *, *, #349, .T. ) ;
#796 =( NAMED_UNIT ( * ) SI_UNIT ( $, .STERADIAN. ) SOLID_ANGLE_UNIT ( ) );
#797 = CIRCLE ( 'NONE', #920, 4.499999999999995600 ) ;
#798 = DIRECTION ( 'NONE',  ( 6.123233995736766000E-017, 1.000000000000000000, 0.0000000000000000000 ) ) ;
#799 = SURFACE_SIDE_STYLE ('',( #16 ) ) ;
#800 = AXIS2_PLACEMENT_3D ( 'NONE', #600, #899, #1146 ) ;
#801 = DIRECTION ( 'NONE',  ( 0.0000000000000000000, 1.000000000000000000, 0.0000000000000000000 ) ) ;
#802 = PLANE ( 'NONE',  #690 ) ;
#803 = ORIENTED_EDGE ( 'NONE', *, *, #955, .F. ) ;
#804 = ORIENTED_EDGE ( 'NONE', *, *, #310, .F. ) ;
#805 = VERTEX_POINT ( 'NONE', #616 ) ;
#806 = EDGE_CURVE ( 'NONE', #783, #235, #590, .T. ) ;
#807 = CARTESIAN_POINT ( 'NONE',  ( -47.78097245096172700, 5.000000000000002700, 10.50000000000000000 ) ) ;
#808 = UNCERTAINTY_MEASURE_WITH_UNIT (LENGTH_MEASURE( 1.000000000000000100E-005 ), #416, 'distance_accuracy_value', 'NONE');
#809 = DIRECTION ( 'NONE',  ( -6.123233995736766000E-017, -1.000000000000000000, -0.0000000000000000000 ) ) ;
#810 = CARTESIAN_POINT ( 'NONE',  ( -47.78097245096172700, 2.561649299624185700E-015, -25.00000000000000000 ) ) ;
#811 = SURFACE_SIDE_STYLE ('',( #189 ) ) ;
#812 = CIRCLE ( 'NONE', #317, 5.000000000000000900 ) ;
#813 = CARTESIAN_POINT ( 'NONE',  ( 53.50000000000000000, 0.0000000000000000000, -10.00000000000000200 ) ) ;
#814 = LINE ( 'NONE', #610, #617 ) ;
#815 = DIRECTION ( 'NONE',  ( 0.0000000000000000000, 0.0000000000000000000, -1.000000000000000000 ) ) ;
#816 = SURFACE_STYLE_USAGE ( .BOTH. , #266 ) ;
#817 = AXIS2_PLACEMENT_3D ( 'NONE', #747, #733, #202 ) ;
#818 = ORIENTED_EDGE ( 'NONE', *, *, #757, .T. ) ;
#819 = PLANE ( 'NONE',  #885 ) ;
#820 = ORIENTED_EDGE ( 'NONE', *, *, #714, .T. ) ;
#821 = ORIENTED_EDGE ( 'NONE', *, *, #661, .F. ) ;
#822 = EDGE_CURVE ( 'NONE', #242, #1055, #994, .T. ) ;
#823 = CARTESIAN_POINT ( 'NONE',  ( -47.78097245096172700, 5.000000000000002700, -25.00000000000000000 ) ) ;
#824 = MECHANICAL_DESIGN_GEOMETRIC_PRESENTATION_REPRESENTATION (  '', ( #424 ), #544 ) ;
#825 = DIRECTION ( 'NONE',  ( 0.0000000000000000000, 1.000000000000000000, 0.0000000000000000000 ) ) ;
#826 = CYLINDRICAL_SURFACE ( 'NONE', #781, 4.500000000000007100 ) ;
#827 = CARTESIAN_POINT ( 'NONE',  ( 53.50000000000000000, -5.000000000000000000, -10.00000000000000200 ) ) ;
#828 = LINE ( 'NONE', #1147, #967 ) ;
#829 = VERTEX_POINT ( 'NONE', #698 ) ;
#830 = ORIENTED_EDGE ( 'NONE', *, *, #1067, .F. ) ;
#831 = CARTESIAN_POINT ( 'NONE',  ( 62.50000000000000000, 0.0000000000000000000, 15.00000000000000000 ) ) ;
#832 = VECTOR ( 'NONE', #758, 1000.000000000000000 ) ;
#833 = ADVANCED_FACE ( 'NONE', ( #1137 ), #802, .F. ) ;
#834 = DIRECTION ( 'NONE',  ( 6.123233995736766000E-017, 1.000000000000000000, 0.0000000000000000000 ) ) ;
#835 = EDGE_CURVE ( 'NONE', #963, #756, #186, .T. ) ;
#836 = UNCERTAINTY_MEASURE_WITH_UNIT (LENGTH_MEASURE( 1.000000000000000100E-005 ), #531, 'distance_accuracy_value', 'NONE');
#837 = CARTESIAN_POINT ( 'NONE',  ( 63.00000000000000000, 5.000000000000000000, 20.00000000000000000 ) ) ;
#838 = DIRECTION ( 'NONE',  ( 0.0000000000000000000, 1.000000000000000000, 0.0000000000000000000 ) ) ;
#839 = MECHANICAL_DESIGN_GEOMETRIC_PRESENTATION_REPRESENTATION (  '', ( #1112 ), #642 ) ;
#840 = VERTEX_POINT ( 'NONE', #240 ) ;
#841 = VERTEX_POINT ( 'NONE', #1157 ) ;
#842 = DIRECTION ( 'NONE',  ( 0.0000000000000000000, -1.000000000000000000, 0.0000000000000000000 ) ) ;
#843 = ORIENTED_EDGE ( 'NONE', *, *, #286, .T. ) ;
#844 = CARTESIAN_POINT ( 'NONE',  ( 57.99999999999999300, 0.0000000000000000000, 19.50000000000000000 ) ) ;
#845 = CARTESIAN_POINT ( 'NONE',  ( -17.78097245096172000, 5.000000000000000900, -15.00000000000000700 ) ) ;
#846 = AXIS2_PLACEMENT_3D ( 'NONE', #20, #489, #302 ) ;
#847 = ADVANCED_FACE ( 'NONE', ( #745 ), #883, .F. ) ;
#848 = CARTESIAN_POINT ( 'NONE',  ( -37.78097245096172000, 5.000000000000001800, -19.50000000000000400 ) ) ;
#849 = ORIENTED_EDGE ( 'NONE', *, *, #127, .F. ) ;
#850 = FACE_BOUND ( 'NONE', #586, .T. ) ;
#851 = DIRECTION ( 'NONE',  ( 0.0000000000000000000, 0.0000000000000000000, -1.000000000000000000 ) ) ;
#852 = DIRECTION ( 'NONE',  ( 0.0000000000000000000, 0.0000000000000000000, 1.000000000000000000 ) ) ;
#853 = EDGE_CURVE ( 'NONE', #1174, #314, #364, .T. ) ;
#854 = PRESENTATION_LAYER_ASSIGNMENT (  '', '', ( #671 ) ) ;
#855 = DIRECTION ( 'NONE',  ( -0.0000000000000000000, 1.000000000000000000, -0.0000000000000000000 ) ) ;
#856 = ORIENTED_EDGE ( 'NONE', *, *, #1132, .F. ) ;
#857 = ORIENTED_EDGE ( 'NONE', *, *, #1045, .T. ) ;
#858 =( LENGTH_UNIT ( ) NAMED_UNIT ( * ) SI_UNIT ( .MILLI., .METRE. ) );
#859 = FACE_OUTER_BOUND ( 'NONE', #689, .T. ) ;
#860 = EDGE_CURVE ( 'NONE', #153, #184, #627, .T. ) ;
#861 = CARTESIAN_POINT ( 'NONE',  ( -37.78097245096172000, 5.000000000000001800, -10.50000000000000500 ) ) ;
#862 = SURFACE_SIDE_STYLE ('',( #32 ) ) ;
#863 = PRESENTATION_STYLE_ASSIGNMENT (( #816 ) ) ;
#864 = AXIS2_PLACEMENT_3D ( 'NONE', #300, #945, #205 ) ;
#865 = VECTOR ( 'NONE', #257, 1000.000000000000000 ) ;
#866 = CIRCLE ( 'NONE', #1133, 4.500000000000007100 ) ;
#867 = DIRECTION ( 'NONE',  ( 0.0000000000000000000, 1.000000000000000000, 0.0000000000000000000 ) ) ;
#868 = EDGE_LOOP ( 'NONE', ( #843, #408, #135, #633 ) ) ;
#869 = AXIS2_PLACEMENT_3D ( 'NONE', #95, #1109, #373 ) ;
#870 = EDGE_LOOP ( 'NONE', ( #162, #1103, #820, #1141 ) ) ;
#871 = EDGE_CURVE ( 'NONE', #374, #147, #879, .T. ) ;
#872 = COLOUR_RGB ( '',1.000000000000000000, 0.0000000000000000000, 0.0000000000000000000 ) ;
#873 = CARTESIAN_POINT ( 'NONE',  ( -47.78097245096172700, 5.000000000000002700, 25.00000000000000000 ) ) ;
#874 = FILL_AREA_STYLE_COLOUR ( '', #968 ) ;
#875 = CARTESIAN_POINT ( 'NONE',  ( 57.99999999999999300, 5.000000000000000000, 15.00000000000000000 ) ) ;
#876 = VERTEX_POINT ( 'NONE', #67 ) ;
#877 = CLOSED_SHELL ( 'NONE', ( #167, #520, #918, #182, #607, #354, #337, #1085, #898, #1073, #847, #598, #426, #1167, #452, #71, #1062, #614, #469, #81, #833, #360, #258, #1145, #1077, #712, #985, #243 ) ) ;
#878 = STYLED_ITEM ( 'NONE', ( #1098 ), #469 ) ;
#879 = CIRCLE ( 'NONE', #368, 5.000000000000000900 ) ;
#880 = FACE_OUTER_BOUND ( 'NONE', #669, .T. ) ;
#881 = CARTESIAN_POINT ( 'NONE',  ( -47.78097245096172700, 2.561649299624185700E-015, 20.00000000000000000 ) ) ;
#882 = UNCERTAINTY_MEASURE_WITH_UNIT (LENGTH_MEASURE( 1.000000000000000100E-005 ), #1060, 'distance_accuracy_value', 'NONE');
#883 = PLANE ( 'NONE',  #56 ) ;
#884 = EDGE_CURVE ( 'NONE', #478, #374, #501, .T. ) ;
#885 = AXIS2_PLACEMENT_3D ( 'NONE', #363, #86, #528 ) ;
#886 = CYLINDRICAL_SURFACE ( 'NONE', #12, 4.500000000000000900 ) ;
#887 = DIRECTION ( 'NONE',  ( 0.0000000000000000000, -1.000000000000000000, 0.0000000000000000000 ) ) ;
#888 = DIRECTION ( 'NONE',  ( 0.0000000000000000000, -1.000000000000000000, 0.0000000000000000000 ) ) ;
#889 = CARTESIAN_POINT ( 'NONE',  ( -47.78097245096172700, 5.000000000000002700, 25.00000000000000000 ) ) ;
#890 = ORIENTED_EDGE ( 'NONE', *, *, #936, .T. ) ;
#891 =( NAMED_UNIT ( * ) PLANE_ANGLE_UNIT ( ) SI_UNIT ( $, .RADIAN. ) );
#892 = ORIENTED_EDGE ( 'NONE', *, *, #200, .F. ) ;
#893 = EDGE_CURVE ( 'NONE', #709, #345, #1087, .T. ) ;
#894 = DIRECTION ( 'NONE',  ( -6.123233995736766000E-017, -1.000000000000000000, -0.0000000000000000000 ) ) ;
#895 = CARTESIAN_POINT ( 'NONE',  ( 36.00000000000000000, 0.0000000000000000000, 19.50000000000000000 ) ) ;
#896 = PRESENTATION_LAYER_ASSIGNMENT (  '', '', ( #440 ) ) ;
#897 = LINE ( 'NONE', #48, #731 ) ;
#898 = ADVANCED_FACE ( 'NONE', ( #859 ), #367, .T. ) ;
#899 = DIRECTION ( 'NONE',  ( -6.123233995736766000E-017, -1.000000000000000000, -0.0000000000000000000 ) ) ;
#900 = DIRECTION ( 'NONE',  ( -2.775557561562891800E-016, 0.0000000000000000000, -1.000000000000000000 ) ) ;
#901 = CIRCLE ( 'NONE', #18, 4.500000000000000900 ) ;
#902 = FACE_OUTER_BOUND ( 'NONE', #737, .T. ) ;
#903 = DIRECTION ( 'NONE',  ( -6.123233995736766000E-017, -1.000000000000000000, 0.0000000000000000000 ) ) ;
#904 = FACE_OUTER_BOUND ( 'NONE', #274, .T. ) ;
#905 = CIRCLE ( 'NONE', #120, 4.500000000000000900 ) ;
#906 = AXIS2_PLACEMENT_3D ( 'NONE', #845, #1018, #851 ) ;
#907 = CARTESIAN_POINT ( 'NONE',  ( -37.78097245096170600, 10.00000000000000200, 10.49999999999999800 ) ) ;
#908 =( NAMED_UNIT ( * ) PLANE_ANGLE_UNIT ( ) SI_UNIT ( $, .RADIAN. ) );
#909 = EDGE_LOOP ( 'NONE', ( #637, #164, #606, #1110, #198 ) ) ;
#910 = CARTESIAN_POINT ( 'NONE',  ( -47.78097245096172700, 2.561649299624185700E-015, -20.00000000000000000 ) ) ;
#911 = CARTESIAN_POINT ( 'NONE',  ( -37.78097245096170600, 1.949325900050508000E-015, 19.49999999999998900 ) ) ;
#912 = MECHANICAL_DESIGN_GEOMETRIC_PRESENTATION_REPRESENTATION (  '', ( #671 ), #1083 ) ;
#913 = VECTOR ( 'NONE', #434, 1000.000000000000000 ) ;
#914 = DIRECTION ( 'NONE',  ( 1.000000000000000000, -6.123233995736766000E-017, -0.0000000000000000000 ) ) ;
#915 = PRESENTATION_STYLE_ASSIGNMENT (( #1079 ) ) ;
#916 = VECTOR ( 'NONE', #447, 1000.000000000000000 ) ;
#917 = FACE_BOUND ( 'NONE', #428, .T. ) ;
#918 = ADVANCED_FACE ( 'NONE', ( #326 ), #819, .T. ) ;
#919 = DIRECTION ( 'NONE',  ( 0.0000000000000000000, -0.0000000000000000000, 1.000000000000000000 ) ) ;
#920 = AXIS2_PLACEMENT_3D ( 'NONE', #659, #1036, #36 ) ;
#921 = DIRECTION ( 'NONE',  ( -2.775557561562891800E-016, 0.0000000000000000000, -1.000000000000000000 ) ) ;
#922 = CARTESIAN_POINT ( 'NONE',  ( -17.78097245096173400, 5.000000000000000900, 10.49999999999999500 ) ) ;
#923 =( LENGTH_UNIT ( ) NAMED_UNIT ( * ) SI_UNIT ( .MILLI., .METRE. ) );
#924 =( GEOMETRIC_REPRESENTATION_CONTEXT ( 3 ) GLOBAL_UNCERTAINTY_ASSIGNED_CONTEXT ( ( #788 ) ) GLOBAL_UNIT_ASSIGNED_CONTEXT ( ( #769, #1126, #1114 ) ) REPRESENTATION_CONTEXT ( 'NONE', 'WORKASPACE' ) );
#925 = VERTEX_POINT ( 'NONE', #831 ) ;
#926 = DIRECTION ( 'NONE',  ( 1.387778780781445500E-015, -7.703719777548942300E-032, -1.000000000000000000 ) ) ;
#927 = EDGE_LOOP ( 'NONE', ( #298, #421, #425, #639 ) ) ;
#928 = VERTEX_POINT ( 'NONE', #277 ) ;
#929 =( NAMED_UNIT ( * ) PLANE_ANGLE_UNIT ( ) SI_UNIT ( $, .RADIAN. ) );
#930 =( GEOMETRIC_REPRESENTATION_CONTEXT ( 3 ) GLOBAL_UNCERTAINTY_ASSIGNED_CONTEXT ( ( #882 ) ) GLOBAL_UNIT_ASSIGNED_CONTEXT ( ( #1060, #908, #510 ) ) REPRESENTATION_CONTEXT ( 'NONE', 'WORKASPACE' ) );
#931 = DIRECTION ( 'NONE',  ( 1.000000000000000000, 0.0000000000000000000, 0.0000000000000000000 ) ) ;
#932 = LINE ( 'NONE', #505, #956 ) ;
#933 = ORIENTED_EDGE ( 'NONE', *, *, #310, .T. ) ;
#934 = DIRECTION ( 'NONE',  ( -3.469446951953615200E-016, 2.124423552260767800E-032, -1.000000000000000000 ) ) ;
#935 = ORIENTED_EDGE ( 'NONE', *, *, #391, .F. ) ;
#936 = EDGE_CURVE ( 'NONE', #840, #345, #444, .T. ) ;
#937 = CARTESIAN_POINT ( 'NONE',  ( -17.78097245096171300, 5.000000000000000900, 15.00000000000000400 ) ) ;
#938 = DIRECTION ( 'NONE',  ( -6.123233995736766000E-017, -1.000000000000000000, -0.0000000000000000000 ) ) ;
#939 = ORIENTED_EDGE ( 'NONE', *, *, #397, .F. ) ;
#940 = DIRECTION ( 'NONE',  ( 1.000000000000000000, -6.123233995736766000E-017, -1.734723475976809600E-016 ) ) ;
#941 = DIRECTION ( 'NONE',  ( 0.0000000000000000000, 0.0000000000000000000, -1.000000000000000000 ) ) ;
#942 = CARTESIAN_POINT ( 'NONE',  ( 36.00000000000000000, -5.000000000000000000, 15.00000000000000000 ) ) ;
#943 = FACE_OUTER_BOUND ( 'NONE', #406, .T. ) ;
#944 = AXIS2_PLACEMENT_3D ( 'NONE', #667, #1039, #312 ) ;
#945 = DIRECTION ( 'NONE',  ( 6.123233995736766000E-017, 1.000000000000000000, 0.0000000000000000000 ) ) ;
#946 = FACE_BOUND ( 'NONE', #1172, .T. ) ;
#947 = FILL_AREA_STYLE ('',( #484 ) ) ;
#948 = ORIENTED_EDGE ( 'NONE', *, *, #275, .T. ) ;
#949 = EDGE_CURVE ( 'NONE', #1069, #709, #77, .T. ) ;
#950 = CARTESIAN_POINT ( 'NONE',  ( 53.50000000000000000, 0.0000000000000000000, 25.00000000000000000 ) ) ;
#951 = ORIENTED_EDGE ( 'NONE', *, *, #893, .T. ) ;
#952 = VERTEX_POINT ( 'NONE', #1092 ) ;
#953 = EDGE_LOOP ( 'NONE', ( #1135, #571, #719, #804 ) ) ;
#954 = CARTESIAN_POINT ( 'NONE',  ( -17.78097245096172000, 10.00000000000000200, -15.00000000000000700 ) ) ;
#955 = EDGE_CURVE ( 'NONE', #352, #805, #778, .T. ) ;
#956 = VECTOR ( 'NONE', #581, 1000.000000000000000 ) ;
#957 = FACE_OUTER_BOUND ( 'NONE', #974, .T. ) ;
#958 =( NAMED_UNIT ( * ) PLANE_ANGLE_UNIT ( ) SI_UNIT ( $, .RADIAN. ) );
#959 = ORIENTED_EDGE ( 'NONE', *, *, #353, .F. ) ;
#960 = FACE_OUTER_BOUND ( 'NONE', #415, .T. ) ;
#961 =( LENGTH_UNIT ( ) NAMED_UNIT ( * ) SI_UNIT ( .MILLI., .METRE. ) );
#962 = MECHANICAL_DESIGN_GEOMETRIC_PRESENTATION_REPRESENTATION (  '', ( #772 ), #1075 ) ;
#963 = VERTEX_POINT ( 'NONE', #922 ) ;
#964 = CARTESIAN_POINT ( 'NONE',  ( 31.50000000000000000, 0.0000000000000000000, 15.00000000000000000 ) ) ;
#965 =( NAMED_UNIT ( * ) PLANE_ANGLE_UNIT ( ) SI_UNIT ( $, .RADIAN. ) );
#966 = STYLED_ITEM ( 'NONE', ( #150 ), #712 ) ;
#967 = VECTOR ( 'NONE', #68, 1000.000000000000000 ) ;
#968 = COLOUR_RGB ( '',1.000000000000000000, 0.0000000000000000000, 0.0000000000000000000 ) ;
#969 = CARTESIAN_POINT ( 'NONE',  ( 31.50000000000000000, 0.0000000000000000000, 24.99999999999998900 ) ) ;
#970 = VECTOR ( 'NONE', #938, 1000.000000000000000 ) ;
#971 = VERTEX_POINT ( 'NONE', #1088 ) ;
#972 = AXIS2_PLACEMENT_3D ( 'NONE', #533, #809, #1007 ) ;
#973 = DIRECTION ( 'NONE',  ( 0.0000000000000000000, 0.0000000000000000000, 1.000000000000000000 ) ) ;
#974 = EDGE_LOOP ( 'NONE', ( #517, #668, #1042, #536 ) ) ;
#975 = ORIENTED_EDGE ( 'NONE', *, *, #611, .T. ) ;
#976 = MECHANICAL_DESIGN_GEOMETRIC_PRESENTATION_REPRESENTATION (  '', ( #878 ), #479 ) ;
#977 = CARTESIAN_POINT ( 'NONE',  ( -42.78097245096172700, 5.000000000000002700, -25.00000000000000000 ) ) ;
#978 = VERTEX_POINT ( 'NONE', #1003 ) ;
#979 = DIRECTION ( 'NONE',  ( 0.0000000000000000000, 0.0000000000000000000, 1.000000000000000000 ) ) ;
#980 = FILL_AREA_STYLE_COLOUR ( '', #412 ) ;
#981 = VECTOR ( 'NONE', #334, 1000.000000000000000 ) ;
#982 = CARTESIAN_POINT ( 'NONE',  ( 53.50000000000000000, -5.000000000000000000, -10.00000000000000200 ) ) ;
#983 = STYLED_ITEM ( 'NONE', ( #379 ), #1145 ) ;
#984 = CIRCLE ( 'NONE', #471, 4.500000000000000900 ) ;
#985 = ADVANCED_FACE ( 'NONE', ( #313 ), #271, .F. ) ;
#986 = EDGE_LOOP ( 'NONE', ( #305, #308, #101, #370 ) ) ;
#987 = DIRECTION ( 'NONE',  ( 0.0000000000000000000, 0.0000000000000000000, 1.000000000000000000 ) ) ;
#988 = DIRECTION ( 'NONE',  ( 0.0000000000000000000, 0.0000000000000000000, 1.000000000000000000 ) ) ;
#989 =( NAMED_UNIT ( * ) SI_UNIT ( $, .STERADIAN. ) SOLID_ANGLE_UNIT ( ) );
#990 = ORIENTED_EDGE ( 'NONE', *, *, #780, .F. ) ;
#991 = EDGE_CURVE ( 'NONE', #785, #840, #765, .T. ) ;
#992 = DIRECTION ( 'NONE',  ( 1.000000000000000000, -6.123233995736766000E-017, -8.673617379884034200E-017 ) ) ;
#993 = DIRECTION ( 'NONE',  ( 0.0000000000000000000, 0.0000000000000000000, 1.000000000000000000 ) ) ;
#994 = LINE ( 'NONE', #152, #474 ) ;
#995 = CARTESIAN_POINT ( 'NONE',  ( 40.50000000000000000, -5.000000000000000000, 15.00000000000000000 ) ) ;
#996 = COLOUR_RGB ( '',1.000000000000000000, 0.0000000000000000000, 0.0000000000000000000 ) ;
#997 = VECTOR ( 'NONE', #693, 1000.000000000000000 ) ;
#998 = DIRECTION ( 'NONE',  ( 0.0000000000000000000, 0.0000000000000000000, -1.000000000000000000 ) ) ;
#999 = FACE_OUTER_BOUND ( 'NONE', #579, .T. ) ;
#1000 = VECTOR ( 'NONE', #293, 1000.000000000000000 ) ;
#1001 = CYLINDRICAL_SURFACE ( 'NONE', #279, 4.499999999999997300 ) ;
#1002 = STYLED_ITEM ( 'NONE', ( #250 ), #598 ) ;
#1003 = CARTESIAN_POINT ( 'NONE',  ( 53.50000000000000000, 0.0000000000000000000, 15.00000000000000000 ) ) ;
#1004 =( NAMED_UNIT ( * ) SI_UNIT ( $, .STERADIAN. ) SOLID_ANGLE_UNIT ( ) );
#1005 = ORIENTED_EDGE ( 'NONE', *, *, #229, .F. ) ;
#1006 = VERTEX_POINT ( 'NONE', #634 ) ;
#1007 = DIRECTION ( 'NONE',  ( 0.0000000000000000000, 0.0000000000000000000, 1.000000000000000000 ) ) ;
#1008 = EDGE_CURVE ( 'NONE', #978, #952, #516, .T. ) ;
#1009 = UNCERTAINTY_MEASURE_WITH_UNIT (LENGTH_MEASURE( 1.000000000000000100E-005 ), #858, 'distance_accuracy_value', 'NONE');
#1010 = ORIENTED_EDGE ( 'NONE', *, *, #522, .F. ) ;
#1011 = MECHANICAL_DESIGN_GEOMETRIC_PRESENTATION_REPRESENTATION (  '', ( #584 ), #130 ) ;
#1012 = CARTESIAN_POINT ( 'NONE',  ( -47.78097245096172700, 5.000000000000002700, -19.99999999999999600 ) ) ;
#1013 = VECTOR ( 'NONE', #498, 1000.000000000000000 ) ;
#1014 = CARTESIAN_POINT ( 'NONE',  ( 31.49999999999999300, -5.000000000000000000, -10.00000000000000200 ) ) ;
#1015 = COLOUR_RGB ( '',1.000000000000000000, 0.0000000000000000000, 0.0000000000000000000 ) ;
#1016 = EDGE_CURVE ( 'NONE', #1174, #260, #530, .T. ) ;
#1017 = ORIENTED_EDGE ( 'NONE', *, *, #740, .T. ) ;
#1018 = DIRECTION ( 'NONE',  ( 6.123233995736766000E-017, 1.000000000000000000, 0.0000000000000000000 ) ) ;
#1019 = ORIENTED_EDGE ( 'NONE', *, *, #1035, .F. ) ;
#1020 = DIRECTION ( 'NONE',  ( 0.0000000000000000000, 1.000000000000000000, 0.0000000000000000000 ) ) ;
#1021 = PRESENTATION_LAYER_ASSIGNMENT (  '', '', ( #772 ) ) ;
#1022 = LINE ( 'NONE', #873, #89 ) ;
#1023 = CARTESIAN_POINT ( 'NONE',  ( -17.78097245096173400, 7.246791009031561400E-016, 19.49999999999999600 ) ) ;
#1024 = CARTESIAN_POINT ( 'NONE',  ( -1.780972450961723300, 9.999999999999998200, -25.00000000000000000 ) ) ;
#1025 = DIRECTION ( 'NONE',  ( 6.123233995736766000E-017, 1.000000000000000000, 0.0000000000000000000 ) ) ;
#1026 = LINE ( 'NONE', #1179, #234 ) ;
#1027 = PRESENTATION_STYLE_ASSIGNMENT (( #1102 ) ) ;
#1028 = DIRECTION ( 'NONE',  ( 0.0000000000000000000, 1.000000000000000000, 0.0000000000000000000 ) ) ;
#1029 = UNCERTAINTY_MEASURE_WITH_UNIT (LENGTH_MEASURE( 1.000000000000000100E-005 ), #455, 'distance_accuracy_value', 'NONE');
#1030 =( GEOMETRIC_REPRESENTATION_CONTEXT ( 3 ) GLOBAL_UNCERTAINTY_ASSIGNED_CONTEXT ( ( #409 ) ) GLOBAL_UNIT_ASSIGNED_CONTEXT ( ( #500, #965, #592 ) ) REPRESENTATION_CONTEXT ( 'NONE', 'WORKASPACE' ) );
#1031 = CARTESIAN_POINT ( 'NONE',  ( 63.00000000000000000, 5.000000000000000000, -20.00000000000000000 ) ) ;
#1032 = FILL_AREA_STYLE_COLOUR ( '', #1117 ) ;
#1033 = ORIENTED_EDGE ( 'NONE', *, *, #38, .F. ) ;
#1034 = VERTEX_POINT ( 'NONE', #1168 ) ;
#1035 = EDGE_CURVE ( 'NONE', #66, #98, #1170, .T. ) ;
#1036 = DIRECTION ( 'NONE',  ( 6.123233995736766000E-017, 1.000000000000000000, 0.0000000000000000000 ) ) ;
#1037 = FILL_AREA_STYLE_COLOUR ( '', #996 ) ;
#1038 = CARTESIAN_POINT ( 'NONE',  ( -42.78097245096172700, 5.000000000000002700, -20.00000000000000000 ) ) ;
#1039 = DIRECTION ( 'NONE',  ( -0.0000000000000000000, -1.000000000000000000, -0.0000000000000000000 ) ) ;
#1040 = AXIS2_PLACEMENT_3D ( 'NONE', #735, #626, #450 ) ;
#1041 = DIRECTION ( 'NONE',  ( 0.0000000000000000000, 0.0000000000000000000, 1.000000000000000000 ) ) ;
#1042 = ORIENTED_EDGE ( 'NONE', *, *, #486, .T. ) ;
#1043 = ORIENTED_EDGE ( 'NONE', *, *, #771, .T. ) ;
#1044 = DIRECTION ( 'NONE',  ( 1.000000000000000000, -6.123233995736766000E-017, 0.0000000000000000000 ) ) ;
#1045 = EDGE_CURVE ( 'NONE', #805, #829, #1026, .T. ) ;
#1046 = LINE ( 'NONE', #691, #278 ) ;
#1047 = LINE ( 'NONE', #950, #746 ) ;
#1048 = PLANE ( 'NONE',  #324 ) ;
#1049 = LINE ( 'NONE', #1014, #1000 ) ;
#1050 = FACE_BOUND ( 'NONE', #228, .T. ) ;
#1051 = UNCERTAINTY_MEASURE_WITH_UNIT (LENGTH_MEASURE( 1.000000000000000100E-005 ), #762, 'distance_accuracy_value', 'NONE');
#1052 = SURFACE_SIDE_STYLE ('',( #221 ) ) ;
#1053 = PRESENTATION_LAYER_ASSIGNMENT (  '', '', ( #1002 ) ) ;
#1054 = EDGE_LOOP ( 'NONE', ( #331, #857, #990, #821 ) ) ;
#1055 = VERTEX_POINT ( 'NONE', #911 ) ;
#1056 = ORIENTED_EDGE ( 'NONE', *, *, #936, .F. ) ;
#1057 = DIRECTION ( 'NONE',  ( 0.0000000000000000000, 1.000000000000000000, 0.0000000000000000000 ) ) ;
#1058 = PRESENTATION_STYLE_ASSIGNMENT (( #439 ) ) ;
#1059 = COLOUR_RGB ( '',1.000000000000000000, 0.0000000000000000000, 0.0000000000000000000 ) ;
#1060 =( LENGTH_UNIT ( ) NAMED_UNIT ( * ) SI_UNIT ( .MILLI., .METRE. ) );
#1061 = AXIS2_PLACEMENT_3D ( 'NONE', #875, #410, #239 ) ;
#1062 = ADVANCED_FACE ( 'NONE', ( #503 ), #183, .F. ) ;
#1063 = LINE ( 'NONE', #342, #1 ) ;
#1064 = LINE ( 'NONE', #827, #94 ) ;
#1065 = CARTESIAN_POINT ( 'NONE',  ( 57.99999999999999300, 0.0000000000000000000, 15.00000000000000000 ) ) ;
#1066 =( LENGTH_UNIT ( ) NAMED_UNIT ( * ) SI_UNIT ( .MILLI., .METRE. ) );
#1067 = EDGE_CURVE ( 'NONE', #315, #1034, #1155, .T. ) ;
#1068 = CARTESIAN_POINT ( 'NONE',  ( -37.78097245096170600, 10.00000000000000200, 19.49999999999998900 ) ) ;
#1069 = VERTEX_POINT ( 'NONE', #977 ) ;
#1070 = ORIENTED_EDGE ( 'NONE', *, *, #464, .T. ) ;
#1071 =( NAMED_UNIT ( * ) PLANE_ANGLE_UNIT ( ) SI_UNIT ( $, .RADIAN. ) );
#1072 = LINE ( 'NONE', #502, #105 ) ;
#1073 = ADVANCED_FACE ( 'NONE', ( #687 ), #41, .F. ) ;
#1074 = DIRECTION ( 'NONE',  ( -1.000000000000000000, 6.123233995736766000E-017, -3.469446951953619100E-016 ) ) ;
#1075 =( GEOMETRIC_REPRESENTATION_CONTEXT ( 3 ) GLOBAL_UNCERTAINTY_ASSIGNED_CONTEXT ( ( #695 ) ) GLOBAL_UNIT_ASSIGNED_CONTEXT ( ( #961, #958, #494 ) ) REPRESENTATION_CONTEXT ( 'NONE', 'WORKASPACE' ) );
#1076 = CARTESIAN_POINT ( 'NONE',  ( 68.00000000000000000, 5.000000000000000000, 25.00000000000000000 ) ) ;
#1077 = ADVANCED_FACE ( 'NONE', ( #999 ), #602, .F. ) ;
#1078 = DIRECTION ( 'NONE',  ( -6.123233995736766000E-017, -1.000000000000000000, -0.0000000000000000000 ) ) ;
#1079 = SURFACE_STYLE_USAGE ( .BOTH. , #730 ) ;
#1080 = DIRECTION ( 'NONE',  ( 2.775557561562891400E-016, 0.0000000000000000000, -1.000000000000000000 ) ) ;
#1081 = VERTEX_POINT ( 'NONE', #609 ) ;
#1082 = DIRECTION ( 'NONE',  ( -2.775557561562891800E-016, 0.0000000000000000000, -1.000000000000000000 ) ) ;
#1083 =( GEOMETRIC_REPRESENTATION_CONTEXT ( 3 ) GLOBAL_UNCERTAINTY_ASSIGNED_CONTEXT ( ( #1029 ) ) GLOBAL_UNIT_ASSIGNED_CONTEXT ( ( #455, #97, #269 ) ) REPRESENTATION_CONTEXT ( 'NONE', 'WORKASPACE' ) );
#1084 = ORIENTED_EDGE ( 'NONE', *, *, #1105, .T. ) ;
#1085 = ADVANCED_FACE ( 'NONE', ( #540 ), #476, .T. ) ;
#1086 = DIRECTION ( 'NONE',  ( 0.0000000000000000000, 0.0000000000000000000, 1.000000000000000000 ) ) ;
#1087 = LINE ( 'NONE', #791, #411 ) ;
#1088 = CARTESIAN_POINT ( 'NONE',  ( 62.50000000000000000, 5.000000000000000000, 15.00000000000000000 ) ) ;
#1089 = FILL_AREA_STYLE_COLOUR ( '', #872 ) ;
#1090 = EDGE_CURVE ( 'NONE', #374, #876, #251, .T. ) ;
#1091 = ORIENTED_EDGE ( 'NONE', *, *, #464, .F. ) ;
#1092 = CARTESIAN_POINT ( 'NONE',  ( 53.49999999999999300, 5.000000000000000000, 15.00000000000000000 ) ) ;
#1093 = LINE ( 'NONE', #199, #6 ) ;
#1094 =( NAMED_UNIT ( * ) PLANE_ANGLE_UNIT ( ) SI_UNIT ( $, .RADIAN. ) );
#1095 = DIRECTION ( 'NONE',  ( -6.123233995736766000E-017, -1.000000000000000000, -0.0000000000000000000 ) ) ;
#1096 = ORIENTED_EDGE ( 'NONE', *, *, #1182, .T. ) ;
#1097 = ORIENTED_EDGE ( 'NONE', *, *, #433, .F. ) ;
#1098 = PRESENTATION_STYLE_ASSIGNMENT (( #7 ) ) ;
#1099 = DIRECTION ( 'NONE',  ( -6.123233995736766000E-017, -1.000000000000000000, -0.0000000000000000000 ) ) ;
#1100 = MECHANICAL_DESIGN_GEOMETRIC_PRESENTATION_REPRESENTATION (  '', ( #734 ), #34 ) ;
#1101 = COLOUR_RGB ( '',1.000000000000000000, 0.0000000000000000000, 0.0000000000000000000 ) ;
#1102 = SURFACE_STYLE_USAGE ( .BOTH. , #741 ) ;
#1103 = ORIENTED_EDGE ( 'NONE', *, *, #764, .T. ) ;
#1104 = CARTESIAN_POINT ( 'NONE',  ( 57.99999999999999300, 5.000000000000000000, 15.00000000000000000 ) ) ;
#1105 = EDGE_CURVE ( 'NONE', #971, #315, #1063, .T. ) ;
#1106 = ORIENTED_EDGE ( 'NONE', *, *, #871, .T. ) ;
#1107 = CIRCLE ( 'NONE', #537, 4.500000000000000900 ) ;
#1108 = CARTESIAN_POINT ( 'NONE',  ( 63.00000000000000000, 10.00000000000000200, -20.00000000000000000 ) ) ;
#1109 = DIRECTION ( 'NONE',  ( 0.0000000000000000000, 1.000000000000000000, 0.0000000000000000000 ) ) ;
#1110 = ORIENTED_EDGE ( 'NONE', *, *, #155, .F. ) ;
#1111 = EDGE_LOOP ( 'NONE', ( #548, #213, #585, #270 ) ) ;
#1112 = STYLED_ITEM ( 'NONE', ( #73 ), #520 ) ;
#1113 = VECTOR ( 'NONE', #608, 1000.000000000000000 ) ;
#1114 =( NAMED_UNIT ( * ) SI_UNIT ( $, .STERADIAN. ) SOLID_ANGLE_UNIT ( ) );
#1115 = CARTESIAN_POINT ( 'NONE',  ( -17.78097245096171300, 7.246791009031551500E-016, 15.00000000000000400 ) ) ;
#1116 = SURFACE_STYLE_FILL_AREA ( #526 ) ;
#1117 = COLOUR_RGB ( '',1.000000000000000000, 0.0000000000000000000, 0.0000000000000000000 ) ;
#1118 = LINE ( 'NONE', #657, #389 ) ;
#1119 = FILL_AREA_STYLE ('',( #874 ) ) ;
#1120 = FILL_AREA_STYLE_COLOUR ( '', #1015 ) ;
#1121 = STYLED_ITEM ( 'NONE', ( #1058 ), #898 ) ;
#1122 = ORIENTED_EDGE ( 'NONE', *, *, #349, .F. ) ;
#1123 = VERTEX_POINT ( 'NONE', #350 ) ;
#1124 = SURFACE_STYLE_USAGE ( .BOTH. , #767 ) ;
#1125 = EDGE_CURVE ( 'NONE', #139, #153, #828, .T. ) ;
#1126 =( NAMED_UNIT ( * ) PLANE_ANGLE_UNIT ( ) SI_UNIT ( $, .RADIAN. ) );
#1127 = CARTESIAN_POINT ( 'NONE',  ( 57.99999999999999300, 0.0000000000000000000, -9.999999999999998200 ) ) ;
#1128 = VERTEX_POINT ( 'NONE', #895 ) ;
#1129 = DIRECTION ( 'NONE',  ( 0.0000000000000000000, 0.0000000000000000000, 1.000000000000000000 ) ) ;
#1130 = VECTOR ( 'NONE', #287, 1000.000000000000000 ) ;
#1131 = CARTESIAN_POINT ( 'NONE',  ( 57.99999999999999300, -5.000000000000000000, 15.00000000000000000 ) ) ;
#1132 = EDGE_CURVE ( 'NONE', #963, #1006, #223, .T. ) ;
#1133 = AXIS2_PLACEMENT_3D ( 'NONE', #1143, #47, #238 ) ;
#1134 = UNCERTAINTY_MEASURE_WITH_UNIT (LENGTH_MEASURE( 1.000000000000000100E-005 ), #674, 'distance_accuracy_value', 'NONE');
#1135 = ORIENTED_EDGE ( 'NONE', *, *, #780, .T. ) ;
#1136 = SURFACE_STYLE_USAGE ( .BOTH. , #403 ) ;
#1137 = FACE_OUTER_BOUND ( 'NONE', #254, .T. ) ;
#1138 = DIRECTION ( 'NONE',  ( 1.000000000000000000, -6.123233995736766000E-017, 3.469446951953618600E-016 ) ) ;
#1139 = COLOUR_RGB ( '',1.000000000000000000, 0.0000000000000000000, 0.0000000000000000000 ) ;
#1140 = CIRCLE ( 'NONE', #768, 4.500000000000000900 ) ;
#1141 = ORIENTED_EDGE ( 'NONE', *, *, #294, .F. ) ;
#1142 = VERTEX_POINT ( 'NONE', #613 ) ;
#1143 = CARTESIAN_POINT ( 'NONE',  ( 36.00000000000000000, 0.0000000000000000000, -10.00000000000000200 ) ) ;
#1144 = EDGE_CURVE ( 'NONE', #184, #260, #593, .T. ) ;
#1145 = ADVANCED_FACE ( 'NONE', ( #595 ), #826, .F. ) ;
#1146 = DIRECTION ( 'NONE',  ( 0.0000000000000000000, 0.0000000000000000000, -1.000000000000000000 ) ) ;
#1147 = CARTESIAN_POINT ( 'NONE',  ( -37.78097245096172000, 1.949325900050508800E-015, -10.50000000000000500 ) ) ;
#1148 = AXIS2_PLACEMENT_3D ( 'NONE', #387, #375, #852 ) ;
#1149 = ORIENTED_EDGE ( 'NONE', *, *, #155, .T. ) ;
#1150 = ORIENTED_EDGE ( 'NONE', *, *, #229, .T. ) ;
#1151 = DIRECTION ( 'NONE',  ( 0.0000000000000000000, 1.000000000000000000, 0.0000000000000000000 ) ) ;
#1152 = CARTESIAN_POINT ( 'NONE',  ( 57.99999999999999300, -5.000000000000000000, 19.50000000000000000 ) ) ;
#1153 = CYLINDRICAL_SURFACE ( 'NONE', #218, 5.000000000000000900 ) ;
#1154 = AXIS2_PLACEMENT_3D ( 'NONE', #605, #166, #427 ) ;
#1155 = CIRCLE ( 'NONE', #869, 4.499999999999997300 ) ;
#1156 = VERTEX_POINT ( 'NONE', #1012 ) ;
#1157 = CARTESIAN_POINT ( 'NONE',  ( -17.78097245096173400, 5.000000000000000900, 19.49999999999999600 ) ) ;
#1158 = VECTOR ( 'NONE', #1020, 1000.000000000000000 ) ;
#1159 =( LENGTH_UNIT ( ) NAMED_UNIT ( * ) SI_UNIT ( .MILLI., .METRE. ) );
#1160 = EDGE_CURVE ( 'NONE', #304, #704, #233, .T. ) ;
#1161 = DIRECTION ( 'NONE',  ( -0.0000000000000000000, -1.000000000000000000, -0.0000000000000000000 ) ) ;
#1162 = CARTESIAN_POINT ( 'NONE',  ( 36.00000000000000000, -5.000000000000000000, -10.00000000000000200 ) ) ;
#1163 = ORIENTED_EDGE ( 'NONE', *, *, #1008, .F. ) ;
#1164 = PLANE ( 'NONE',  #724 ) ;
#1165 = VECTOR ( 'NONE', #706, 1000.000000000000000 ) ;
#1166 = SURFACE_STYLE_FILL_AREA ( #211 ) ;
#1167 = ADVANCED_FACE ( 'NONE', ( #125 ), #338, .F. ) ;
#1168 = CARTESIAN_POINT ( 'NONE',  ( 53.50000000000000000, 5.000000000000000000, -10.00000000000000200 ) ) ;
#1169 = MECHANICAL_DESIGN_GEOMETRIC_PRESENTATION_REPRESENTATION (  '', ( #188 ), #591 ) ;
#1170 = CIRCLE ( 'NONE', #224, 5.000000000000000900 ) ;
#1171 = CARTESIAN_POINT ( 'NONE',  ( -37.78097245096172000, 10.00000000000000200, -19.50000000000000400 ) ) ;
#1172 = EDGE_LOOP ( 'NONE', ( #1091, #534, #935, #1176 ) ) ;
#1173 = CARTESIAN_POINT ( 'NONE',  ( 36.00000000000000000, 0.0000000000000000000, 15.00000000000000000 ) ) ;
#1174 = VERTEX_POINT ( 'NONE', #1180 ) ;
#1175 = AXIS2_PLACEMENT_3D ( 'NONE', #792, #423, #993 ) ;
#1176 = ORIENTED_EDGE ( 'NONE', *, *, #286, .F. ) ;
#1177 = APPLICATION_CONTEXT ( 'automotive_design' ) ;
#1178 = EDGE_LOOP ( 'NONE', ( #948, #795, #506, #472 ) ) ;
#1179 = CARTESIAN_POINT ( 'NONE',  ( 40.50000000000000700, 5.000000000000000000, -10.00000000000000000 ) ) ;
#1180 = CARTESIAN_POINT ( 'NONE',  ( -17.78097245096172700, 5.000000000000000900, -19.50000000000000700 ) ) ;
#1181 = CIRCLE ( 'NONE', #158, 4.500000000000000900 ) ;
#1182 = EDGE_CURVE ( 'NONE', #623, #1128, #901, .T. ) ;
ENDSEC;
END-ISO-10303-21;
