ISO-10303-21;
HEADER;
FILE_DESCRIPTION (( 'STEP AP214' ),
    '1' );
FILE_NAME ('Q235-5.0-BAN6-N1.STEP',
    '2026-07-03T06:18:16',
    ( '' ),
    ( '' ),
    'SwSTEP 2.0',
    'SolidWorks 2016',
    '' );
FILE_SCHEMA (( 'AUTOMOTIVE_DESIGN' ));
ENDSEC;

DATA;
#1 = CARTESIAN_POINT ( 'NONE',  ( 62.20000000000000300, 0.0000000000000000000, 92.50000000000000000 ) ) ;
#2 = EDGE_CURVE ( 'NONE', #965, #634, #536, .T. ) ;
#3 = ADVANCED_FACE ( 'NONE', ( #804 ), #846, .F. ) ;
#4 = DIRECTION ( 'NONE',  ( 0.0000000000000000000, 0.0000000000000000000, 1.000000000000000000 ) ) ;
#5 = CYLINDRICAL_SURFACE ( 'NONE', #326, 1.649999999999998600 ) ;
#6 = PLANE ( 'NONE',  #819 ) ;
#7 = VECTOR ( 'NONE', #637, 1000.000000000000000 ) ;
#8 = FILL_AREA_STYLE_COLOUR ( '', #489 ) ;
#9 = DIRECTION ( 'NONE',  ( 0.0000000000000000000, 1.000000000000000000, 0.0000000000000000000 ) ) ;
#10 = VECTOR ( 'NONE', #311, 1000.000000000000000 ) ;
#11 = CARTESIAN_POINT ( 'NONE',  ( 62.20000000000000300, 0.0000000000000000000, -35.94999999999999600 ) ) ;
#12 = DIRECTION ( 'NONE',  ( 0.0000000000000000000, -1.000000000000000000, 0.0000000000000000000 ) ) ;
#13 = VERTEX_POINT ( 'NONE', #116 ) ;
#14 = ORIENTED_EDGE ( 'NONE', *, *, #779, .T. ) ;
#15 = CARTESIAN_POINT ( 'NONE',  ( -41.78097245096172700, 5.000000000000002700, -40.00000000000000000 ) ) ;
#16 = UNCERTAINTY_MEASURE_WITH_UNIT (LENGTH_MEASURE( 1.000000000000000100E-005 ), #627, 'distance_accuracy_value', 'NONE');
#17 = AXIS2_PLACEMENT_3D ( 'NONE', #501, #746, #367 ) ;
#18 = SURFACE_STYLE_USAGE ( .BOTH. , #257 ) ;
#19 = ADVANCED_FACE ( 'NONE', ( #781 ), #5, .F. ) ;
#20 = SURFACE_STYLE_USAGE ( .BOTH. , #338 ) ;
#21 = EDGE_CURVE ( 'NONE', #834, #787, #583, .T. ) ;
#22 = ORIENTED_EDGE ( 'NONE', *, *, #892, .F. ) ;
#23 = PRESENTATION_STYLE_ASSIGNMENT (( #453 ) ) ;
#24 = ORIENTED_EDGE ( 'NONE', *, *, #750, .F. ) ;
#25 = ORIENTED_EDGE ( 'NONE', *, *, #330, .T. ) ;
#26 = MECHANICAL_DESIGN_GEOMETRIC_PRESENTATION_REPRESENTATION (  '', ( #250 ), #420 ) ;
#27 = EDGE_LOOP ( 'NONE', ( #51, #942, #286, #395 ) ) ;
#28 = FACE_BOUND ( 'NONE', #624, .T. ) ;
#29 =( NAMED_UNIT ( * ) SI_UNIT ( $, .STERADIAN. ) SOLID_ANGLE_UNIT ( ) );
#30 = DIRECTION ( 'NONE',  ( 0.0000000000000000000, 0.0000000000000000000, 1.000000000000000000 ) ) ;
#31 = SURFACE_STYLE_FILL_AREA ( #103 ) ;
#32 =( LENGTH_UNIT ( ) NAMED_UNIT ( * ) SI_UNIT ( .MILLI., .METRE. ) );
#33 = PRODUCT ( 'Q235-5.0-BAN6-N1', 'Q235-5.0-BAN6-N1', '', ( #982 ) ) ;
#34 = MANIFOLD_SOLID_BREP ( '平板型式', #115 ) ;
#35 = CARTESIAN_POINT ( 'NONE',  ( -36.78097245096173400, 5.000000000000001800, -40.00000000000000000 ) ) ;
#36 = CARTESIAN_POINT ( 'NONE',  ( 69.50000000000000000, 5.000000000000000000, -40.00000000000000000 ) ) ;
#37 = CARTESIAN_POINT ( 'NONE',  ( 69.50000000000000000, 5.000000000000000000, -40.00000000000000000 ) ) ;
#38 = VECTOR ( 'NONE', #905, 1000.000000000000000 ) ;
#39 = AXIS2_PLACEMENT_3D ( 'NONE', #881, #187, #497 ) ;
#40 = VERTEX_POINT ( 'NONE', #559 ) ;
#41 = LINE ( 'NONE', #90, #800 ) ;
#42 = PRESENTATION_STYLE_ASSIGNMENT (( #284 ) ) ;
#43 = CARTESIAN_POINT ( 'NONE',  ( -31.78097245096172300, 5.000000000000001800, -26.50000000000000000 ) ) ;
#44 =( LENGTH_UNIT ( ) NAMED_UNIT ( * ) SI_UNIT ( .MILLI., .METRE. ) );
#45 = DIRECTION ( 'NONE',  ( 3.576749435003725000E-017, 0.0000000000000000000, 1.000000000000000000 ) ) ;
#46 = AXIS2_PLACEMENT_3D ( 'NONE', #767, #866, #972 ) ;
#47 = CARTESIAN_POINT ( 'NONE',  ( -41.78097245096172700, 2.194255259879979500E-015, -40.00000000000000000 ) ) ;
#48 = FILL_AREA_STYLE_COLOUR ( '', #384 ) ;
#49 = DIRECTION ( 'NONE',  ( 0.0000000000000000000, 1.000000000000000000, 0.0000000000000000000 ) ) ;
#50 = EDGE_LOOP ( 'NONE', ( #434, #239, #380, #588 ) ) ;
#51 = ORIENTED_EDGE ( 'NONE', *, *, #848, .F. ) ;
#52 = ORIENTED_EDGE ( 'NONE', *, *, #134, .F. ) ;
#53 = DIRECTION ( 'NONE',  ( 0.0000000000000000000, 0.0000000000000000000, 1.000000000000000000 ) ) ;
#54 = PRESENTATION_STYLE_ASSIGNMENT (( #996 ) ) ;
#55 = ORIENTED_EDGE ( 'NONE', *, *, #832, .T. ) ;
#56 = AXIS2_PLACEMENT_3D ( 'NONE', #413, #647, #896 ) ;
#57 = FACE_OUTER_BOUND ( 'NONE', #245, .T. ) ;
#58 = SURFACE_STYLE_USAGE ( .BOTH. , #352 ) ;
#59 = SURFACE_SIDE_STYLE ('',( #810 ) ) ;
#60 = CARTESIAN_POINT ( 'NONE',  ( 36.80000000000000400, 0.0000000000000000000, -34.29999999999999700 ) ) ;
#61 = VERTEX_POINT ( 'NONE', #255 ) ;
#62 = CARTESIAN_POINT ( 'NONE',  ( 36.80000000000000400, -5.000000000000000000, -34.29999999999999700 ) ) ;
#63 = VECTOR ( 'NONE', #9, 1000.000000000000000 ) ;
#64 = DIRECTION ( 'NONE',  ( 0.0000000000000000000, 0.0000000000000000000, 1.000000000000000000 ) ) ;
#65 = DIRECTION ( 'NONE',  ( 0.0000000000000000000, 1.000000000000000000, 0.0000000000000000000 ) ) ;
#66 = FACE_BOUND ( 'NONE', #836, .T. ) ;
#67 = ORIENTED_EDGE ( 'NONE', *, *, #555, .T. ) ;
#68 = PRESENTATION_LAYER_ASSIGNMENT (  '', '', ( #659 ) ) ;
#69 = CARTESIAN_POINT ( 'NONE',  ( -31.78097245096172300, 5.000000000000001800, -9.999999999999998200 ) ) ;
#70 = SHAPE_DEFINITION_REPRESENTATION ( #188, #580 ) ;
#71 = FILL_AREA_STYLE ('',( #991 ) ) ;
#72 = EDGE_CURVE ( 'NONE', #353, #859, #473, .T. ) ;
#73 = DIRECTION ( 'NONE',  ( 0.0000000000000000000, 1.000000000000000000, 0.0000000000000000000 ) ) ;
#74 = CIRCLE ( 'NONE', #162, 3.500000000000002200 ) ;
#75 =( GEOMETRIC_REPRESENTATION_CONTEXT ( 3 ) GLOBAL_UNCERTAINTY_ASSIGNED_CONTEXT ( ( #960 ) ) GLOBAL_UNIT_ASSIGNED_CONTEXT ( ( #161, #220, #230 ) ) REPRESENTATION_CONTEXT ( 'NONE', 'WORKASPACE' ) );
#76 = SURFACE_STYLE_FILL_AREA ( #177 ) ;
#77 = CARTESIAN_POINT ( 'NONE',  ( 36.80000000000000400, 0.0000000000000000000, -32.64999999999999900 ) ) ;
#78 = CARTESIAN_POINT ( 'NONE',  ( -41.78097245096172700, 2.194255259879979500E-015, -40.00000000000000000 ) ) ;
#79 = VECTOR ( 'NONE', #845, 1000.000000000000100 ) ;
#80 = DIRECTION ( 'NONE',  ( -6.123233995736766000E-017, -1.000000000000000000, 0.0000000000000000000 ) ) ;
#81 = VERTEX_POINT ( 'NONE', #867 ) ;
#82 = EDGE_LOOP ( 'NONE', ( #232, #252, #541, #362 ) ) ;
#83 = EDGE_CURVE ( 'NONE', #645, #95, #74, .T. ) ;
#84 = ORIENTED_EDGE ( 'NONE', *, *, #358, .T. ) ;
#85 = ADVANCED_FACE ( 'NONE', ( #120 ), #715, .F. ) ;
#86 = CARTESIAN_POINT ( 'NONE',  ( 62.20000000000000300, 0.0000000000000000000, 94.14999999999999100 ) ) ;
#87 = AXIS2_PLACEMENT_3D ( 'NONE', #672, #159, #683 ) ;
#88 = ADVANCED_FACE ( 'NONE', ( #213 ), #123, .F. ) ;
#89 = DIRECTION ( 'NONE',  ( 0.0000000000000000000, 1.000000000000000000, 0.0000000000000000000 ) ) ;
#90 = CARTESIAN_POINT ( 'NONE',  ( -41.78097245096172700, 5.000000000000002700, -4.999999999999990200 ) ) ;
#91 = ORIENTED_EDGE ( 'NONE', *, *, #2, .T. ) ;
#92 = STYLED_ITEM ( 'NONE', ( #42 ), #771 ) ;
#93 = CARTESIAN_POINT ( 'NONE',  ( 62.20000000000000300, 5.000000000000000000, 90.84999999999999400 ) ) ;
#94 = CARTESIAN_POINT ( 'NONE',  ( -41.78097245096172700, 5.000000000000002700, -4.999999999999990200 ) ) ;
#95 = VERTEX_POINT ( 'NONE', #732 ) ;
#96 = STYLED_ITEM ( 'NONE', ( #570 ), #97 ) ;
#97 = ADVANCED_FACE ( 'NONE', ( #173 ), #868, .F. ) ;
#98 = EDGE_CURVE ( 'NONE', #323, #808, #880, .T. ) ;
#99 = DIRECTION ( 'NONE',  ( 0.0000000000000000000, 0.0000000000000000000, -1.000000000000000000 ) ) ;
#100 = CIRCLE ( 'NONE', #403, 1.649999999999998600 ) ;
#101 = MECHANICAL_DESIGN_GEOMETRIC_PRESENTATION_REPRESENTATION (  '', ( #659 ), #917 ) ;
#102 = FACE_BOUND ( 'NONE', #617, .T. ) ;
#103 = FILL_AREA_STYLE ('',( #483 ) ) ;
#104 = ORIENTED_EDGE ( 'NONE', *, *, #72, .T. ) ;
#105 = ORIENTED_EDGE ( 'NONE', *, *, #424, .F. ) ;
#106 = ORIENTED_EDGE ( 'NONE', *, *, #333, .F. ) ;
#107 = DIRECTION ( 'NONE',  ( 1.000000000000000000, -6.123233995736766000E-017, 0.0000000000000000000 ) ) ;
#108 = CIRCLE ( 'NONE', #238, 1.649999999999998600 ) ;
#109 =( NAMED_UNIT ( * ) PLANE_ANGLE_UNIT ( ) SI_UNIT ( $, .RADIAN. ) );
#110 = EDGE_CURVE ( 'NONE', #859, #353, #100, .T. ) ;
#111 = AXIS2_PLACEMENT_3D ( 'NONE', #69, #234, #764 ) ;
#112 = VECTOR ( 'NONE', #185, 1000.000000000000000 ) ;
#113 = FILL_AREA_STYLE_COLOUR ( '', #344 ) ;
#114 = CYLINDRICAL_SURFACE ( 'NONE', #46, 1.649999999999998600 ) ;
#115 = CLOSED_SHELL ( 'NONE', ( #381, #237, #688, #771, #860, #97, #766, #616, #164, #692, #377, #386, #249, #3, #171, #88, #620, #999, #85, #309, #544, #19, #303 ) ) ;
#116 = CARTESIAN_POINT ( 'NONE',  ( 62.20000000000000300, 0.0000000000000000000, 90.84999999999999400 ) ) ;
#117 = FACE_OUTER_BOUND ( 'NONE', #697, .T. ) ;
#118 = FILL_AREA_STYLE_COLOUR ( '', #751 ) ;
#119 = CARTESIAN_POINT ( 'NONE',  ( 69.50000000000000000, 0.0000000000000000000, -40.00000000000000000 ) ) ;
#120 = FACE_OUTER_BOUND ( 'NONE', #128, .T. ) ;
#121 = FACE_OUTER_BOUND ( 'NONE', #553, .T. ) ;
#122 = CARTESIAN_POINT ( 'NONE',  ( 0.0000000000000000000, 0.0000000000000000000, 0.0000000000000000000 ) ) ;
#123 = PLANE ( 'NONE',  #985 ) ;
#124 = VERTEX_POINT ( 'NONE', #891 ) ;
#125 = VECTOR ( 'NONE', #1001, 1000.000000000000000 ) ;
#126 = MECHANICAL_DESIGN_GEOMETRIC_PRESENTATION_REPRESENTATION (  '', ( #561 ), #181 ) ;
#127 = UNCERTAINTY_MEASURE_WITH_UNIT (LENGTH_MEASURE( 1.000000000000000100E-005 ), #769, 'distance_accuracy_value', 'NONE');
#128 = EDGE_LOOP ( 'NONE', ( #337, #760, #486, #562 ) ) ;
#129 = EDGE_LOOP ( 'NONE', ( #674, #874, #733, #676, #770, #206, #598, #1003, #84 ) ) ;
#130 = CARTESIAN_POINT ( 'NONE',  ( -31.78097245096172300, 1.581931860306302800E-015, -26.50000000000000000 ) ) ;
#131 = CARTESIAN_POINT ( 'NONE',  ( -31.78097245096172300, 10.00000000000000200, -9.999999999999998200 ) ) ;
#132 = SURFACE_STYLE_FILL_AREA ( #331 ) ;
#133 = CARTESIAN_POINT ( 'NONE',  ( 62.20000000000000300, 5.000000000000000000, 92.50000000000000000 ) ) ;
#134 = EDGE_CURVE ( 'NONE', #636, #591, #370, .T. ) ;
#135 = CARTESIAN_POINT ( 'NONE',  ( 69.50000000000000000, 5.000000000000000000, -40.00000000000000000 ) ) ;
#136 =( NAMED_UNIT ( * ) SI_UNIT ( $, .STERADIAN. ) SOLID_ANGLE_UNIT ( ) );
#137 = APPLICATION_PROTOCOL_DEFINITION ( 'draft international standard', 'automotive_design', 1998, #740 ) ;
#138 = SURFACE_STYLE_FILL_AREA ( #285 ) ;
#139 = VERTEX_POINT ( 'NONE', #192 ) ;
#140 = PRESENTATION_LAYER_ASSIGNMENT (  '', '', ( #92 ) ) ;
#141 = LINE ( 'NONE', #440, #935 ) ;
#142 = CARTESIAN_POINT ( 'NONE',  ( -31.78097245096172300, 1.581931860306302800E-015, -30.00000000000000000 ) ) ;
#143 = ORIENTED_EDGE ( 'NONE', *, *, #892, .T. ) ;
#144 = DIRECTION ( 'NONE',  ( 0.0000000000000000000, 1.000000000000000000, 0.0000000000000000000 ) ) ;
#145 = FILL_AREA_STYLE_COLOUR ( '', #183 ) ;
#146 = DIRECTION ( 'NONE',  ( 0.0000000000000000000, 0.0000000000000000000, 1.000000000000000000 ) ) ;
#147 = UNCERTAINTY_MEASURE_WITH_UNIT (LENGTH_MEASURE( 1.000000000000000100E-005 ), #343, 'distance_accuracy_value', 'NONE');
#148 = PRESENTATION_LAYER_ASSIGNMENT (  '', '', ( #561 ) ) ;
#149 = EDGE_CURVE ( 'NONE', #229, #965, #359, .T. ) ;
#150 = CARTESIAN_POINT ( 'NONE',  ( 62.20000000000000300, -5.000000000000000000, -34.29999999999999700 ) ) ;
#151 = LINE ( 'NONE', #863, #729 ) ;
#152 = DIRECTION ( 'NONE',  ( 1.000000000000000000, -6.123233995736766000E-017, -0.0000000000000000000 ) ) ;
#153 = ORIENTED_EDGE ( 'NONE', *, *, #797, .F. ) ;
#154 = CYLINDRICAL_SURFACE ( 'NONE', #1000, 1.649999999999998600 ) ;
#155 = ORIENTED_EDGE ( 'NONE', *, *, #149, .F. ) ;
#156 = MECHANICAL_DESIGN_GEOMETRIC_PRESENTATION_REPRESENTATION (  '', ( #340 ), #543 ) ;
#157 = CARTESIAN_POINT ( 'NONE',  ( -1.780972450961723300, 9.999999999999998200, -40.00000000000000000 ) ) ;
#158 =( NAMED_UNIT ( * ) PLANE_ANGLE_UNIT ( ) SI_UNIT ( $, .RADIAN. ) );
#159 = DIRECTION ( 'NONE',  ( 3.469446951953615200E-016, 0.0000000000000000000, 1.000000000000000000 ) ) ;
#160 = DIRECTION ( 'NONE',  ( 0.0000000000000000000, 1.000000000000000000, 0.0000000000000000000 ) ) ;
#161 =( LENGTH_UNIT ( ) NAMED_UNIT ( * ) SI_UNIT ( .MILLI., .METRE. ) );
#162 = AXIS2_PLACEMENT_3D ( 'NONE', #423, #572, #650 ) ;
#163 = ORIENTED_EDGE ( 'NONE', *, *, #779, .F. ) ;
#164 = ADVANCED_FACE ( 'NONE', ( #857 ), #545, .F. ) ;
#165 = LINE ( 'NONE', #47, #540 ) ;
#166 = ORIENTED_EDGE ( 'NONE', *, *, #569, .T. ) ;
#167 = LINE ( 'NONE', #511, #748 ) ;
#168 = DIRECTION ( 'NONE',  ( 0.0000000000000000000, 0.0000000000000000000, -1.000000000000000000 ) ) ;
#169 = DIRECTION ( 'NONE',  ( 0.0000000000000000000, 0.0000000000000000000, 1.000000000000000000 ) ) ;
#170 = DIRECTION ( 'NONE',  ( -6.123233995736766000E-017, -1.000000000000000000, -0.0000000000000000000 ) ) ;
#171 = ADVANCED_FACE ( 'NONE', ( #291 ), #409, .F. ) ;
#172 = ORIENTED_EDGE ( 'NONE', *, *, #72, .F. ) ;
#173 = FACE_OUTER_BOUND ( 'NONE', #964, .T. ) ;
#174 = AXIS2_PLACEMENT_3D ( 'NONE', #62, #49, #582 ) ;
#175 = FACE_BOUND ( 'NONE', #549, .T. ) ;
#176 = ORIENTED_EDGE ( 'NONE', *, *, #212, .T. ) ;
#177 = FILL_AREA_STYLE ('',( #795 ) ) ;
#178 = ORIENTED_EDGE ( 'NONE', *, *, #925, .T. ) ;
#179 = FACE_OUTER_BOUND ( 'NONE', #504, .T. ) ;
#180 = EDGE_CURVE ( 'NONE', #266, #856, #525, .T. ) ;
#181 =( GEOMETRIC_REPRESENTATION_CONTEXT ( 3 ) GLOBAL_UNCERTAINTY_ASSIGNED_CONTEXT ( ( #474 ) ) GLOBAL_UNIT_ASSIGNED_CONTEXT ( ( #605, #158, #301 ) ) REPRESENTATION_CONTEXT ( 'NONE', 'WORKASPACE' ) );
#182 = SURFACE_STYLE_FILL_AREA ( #922 ) ;
#183 = COLOUR_RGB ( '',1.000000000000000000, 0.0000000000000000000, 0.0000000000000000000 ) ;
#184 = EDGE_LOOP ( 'NONE', ( #853, #883 ) ) ;
#185 = DIRECTION ( 'NONE',  ( 1.000000000000000000, -6.123233995736766000E-017, 0.0000000000000000000 ) ) ;
#186 = AXIS2_PLACEMENT_3D ( 'NONE', #663, #971, #444 ) ;
#187 = DIRECTION ( 'NONE',  ( 0.0000000000000000000, -1.000000000000000000, 0.0000000000000000000 ) ) ;
#188 = PRODUCT_DEFINITION_SHAPE ( 'NONE', 'NONE',  #334 ) ;
#189 = VERTEX_POINT ( 'NONE', #799 ) ;
#190 = DIRECTION ( 'NONE',  ( 0.0000000000000000000, 1.000000000000000000, 0.0000000000000000000 ) ) ;
#191 = SURFACE_STYLE_FILL_AREA ( #811 ) ;
#192 = CARTESIAN_POINT ( 'NONE',  ( 36.80000000000000400, 5.000000000000000000, 90.84999999999999400 ) ) ;
#193 = STYLED_ITEM ( 'NONE', ( #940 ), #85 ) ;
#194 = ORIENTED_EDGE ( 'NONE', *, *, #333, .T. ) ;
#195 = DIRECTION ( 'NONE',  ( -1.000000000000000000, 0.0000000000000000000, 0.0000000000000000000 ) ) ;
#196 = ORIENTED_EDGE ( 'NONE', *, *, #596, .F. ) ;
#197 = EDGE_CURVE ( 'NONE', #139, #530, #741, .T. ) ;
#198 = CARTESIAN_POINT ( 'NONE',  ( 69.49999999999997200, 0.0000000000000000000, 97.00000000000001400 ) ) ;
#199 = DIRECTION ( 'NONE',  ( -6.123233995736766000E-017, -1.000000000000000000, -0.0000000000000000000 ) ) ;
#200 =( NAMED_UNIT ( * ) PLANE_ANGLE_UNIT ( ) SI_UNIT ( $, .RADIAN. ) );
#201 =( LENGTH_UNIT ( ) NAMED_UNIT ( * ) SI_UNIT ( .MILLI., .METRE. ) );
#202 = VECTOR ( 'NONE', #30, 1000.000000000000000 ) ;
#203 = CARTESIAN_POINT ( 'NONE',  ( 36.80000000000000400, 5.000000000000000000, -35.94999999999999600 ) ) ;
#204 = PRESENTATION_LAYER_ASSIGNMENT (  '', '', ( #360 ) ) ;
#205 = CYLINDRICAL_SURFACE ( 'NONE', #614, 1.649999999999998600 ) ;
#206 = ORIENTED_EDGE ( 'NONE', *, *, #957, .T. ) ;
#207 =( NAMED_UNIT ( * ) PLANE_ANGLE_UNIT ( ) SI_UNIT ( $, .RADIAN. ) );
#208 = VECTOR ( 'NONE', #505, 1000.000000000000000 ) ;
#209 = DIRECTION ( 'NONE',  ( 1.000000000000000000, 0.0000000000000000000, -3.469446951953614700E-016 ) ) ;
#210 = PLANE ( 'NONE',  #17 ) ;
#211 = PLANE ( 'NONE',  #712 ) ;
#212 = EDGE_CURVE ( 'NONE', #461, #612, #726, .T. ) ;
#213 = FACE_OUTER_BOUND ( 'NONE', #774, .T. ) ;
#214 = DIRECTION ( 'NONE',  ( 0.0000000000000000000, 0.0000000000000000000, 1.000000000000000000 ) ) ;
#215 = VECTOR ( 'NONE', #365, 1000.000000000000000 ) ;
#216 = ORIENTED_EDGE ( 'NONE', *, *, #484, .T. ) ;
#217 = AXIS2_PLACEMENT_3D ( 'NONE', #150, #221, #997 ) ;
#218 = CIRCLE ( 'NONE', #886, 5.000000000000000000 ) ;
#219 = ORIENTED_EDGE ( 'NONE', *, *, #532, .F. ) ;
#220 =( NAMED_UNIT ( * ) PLANE_ANGLE_UNIT ( ) SI_UNIT ( $, .RADIAN. ) );
#221 = DIRECTION ( 'NONE',  ( 0.0000000000000000000, 1.000000000000000000, 0.0000000000000000000 ) ) ;
#222 = AXIS2_PLACEMENT_3D ( 'NONE', #711, #521, #995 ) ;
#223 = CARTESIAN_POINT ( 'NONE',  ( 36.80000000000000400, 5.000000000000000000, 94.14999999999999100 ) ) ;
#224 = COLOUR_RGB ( '',1.000000000000000000, 0.0000000000000000000, 0.0000000000000000000 ) ;
#225 = FILL_AREA_STYLE_COLOUR ( '', #989 ) ;
#226 = DIRECTION ( 'NONE',  ( -6.123233995736766000E-017, -1.000000000000000000, 0.0000000000000000000 ) ) ;
#227 = DIRECTION ( 'NONE',  ( -0.0000000000000000000, 1.000000000000000000, -0.0000000000000000000 ) ) ;
#228 = COLOUR_RGB ( '',1.000000000000000000, 0.0000000000000000000, 0.0000000000000000000 ) ;
#229 = VERTEX_POINT ( 'NONE', #35 ) ;
#230 =( NAMED_UNIT ( * ) SI_UNIT ( $, .STERADIAN. ) SOLID_ANGLE_UNIT ( ) );
#231 = ORIENTED_EDGE ( 'NONE', *, *, #2, .F. ) ;
#232 = ORIENTED_EDGE ( 'NONE', *, *, #21, .F. ) ;
#233 = ORIENTED_EDGE ( 'NONE', *, *, #242, .T. ) ;
#234 = DIRECTION ( 'NONE',  ( -6.123233995736766000E-017, -1.000000000000000000, 0.0000000000000000000 ) ) ;
#235 = CARTESIAN_POINT ( 'NONE',  ( 24.49999999999997500, 5.000000000000000000, 0.0000000000000000000 ) ) ;
#236 = DIRECTION ( 'NONE',  ( 0.0000000000000000000, 0.0000000000000000000, 1.000000000000000000 ) ) ;
#237 = ADVANCED_FACE ( 'NONE', ( #121 ), #378, .F. ) ;
#238 = AXIS2_PLACEMENT_3D ( 'NONE', #133, #144, #214 ) ;
#239 = ORIENTED_EDGE ( 'NONE', *, *, #569, .F. ) ;
#240 = DIRECTION ( 'NONE',  ( -6.123233995736766000E-017, -1.000000000000000000, -0.0000000000000000000 ) ) ;
#241 = CARTESIAN_POINT ( 'NONE',  ( 36.80000000000000400, 0.0000000000000000000, 92.50000000000000000 ) ) ;
#242 = EDGE_CURVE ( 'NONE', #323, #622, #847, .T. ) ;
#243 = FACE_OUTER_BOUND ( 'NONE', #271, .T. ) ;
#244 = CARTESIAN_POINT ( 'NONE',  ( -31.78097245096172300, 5.000000000000001800, -33.50000000000000000 ) ) ;
#245 = EDGE_LOOP ( 'NONE', ( #196, #546, #269, #106 ) ) ;
#246 = LINE ( 'NONE', #855, #708 ) ;
#247 = MECHANICAL_DESIGN_GEOMETRIC_PRESENTATION_REPRESENTATION (  '', ( #193 ), #581 ) ;
#248 = FILL_AREA_STYLE_COLOUR ( '', #628 ) ;
#249 = ADVANCED_FACE ( 'NONE', ( #798 ), #210, .F. ) ;
#250 = STYLED_ITEM ( 'NONE', ( #1002 ), #544 ) ;
#251 = FILL_AREA_STYLE ('',( #225 ) ) ;
#252 = ORIENTED_EDGE ( 'NONE', *, *, #882, .T. ) ;
#253 = ORIENTED_EDGE ( 'NONE', *, *, #212, .F. ) ;
#254 = ORIENTED_EDGE ( 'NONE', *, *, #665, .T. ) ;
#255 = CARTESIAN_POINT ( 'NONE',  ( 29.49999999999998200, 0.0000000000000000000, 97.00000000000002800 ) ) ;
#256 = PRESENTATION_LAYER_ASSIGNMENT (  '', '', ( #920 ) ) ;
#257 = SURFACE_SIDE_STYLE ('',( #76 ) ) ;
#258 = SURFACE_SIDE_STYLE ('',( #307 ) ) ;
#259 = DIRECTION ( 'NONE',  ( -6.123233995736766000E-017, -1.000000000000000000, -0.0000000000000000000 ) ) ;
#260 = CARTESIAN_POINT ( 'NONE',  ( 62.20000000000000300, 0.0000000000000000000, -34.29999999999999700 ) ) ;
#261 = EDGE_LOOP ( 'NONE', ( #455, #791, #262, #417 ) ) ;
#262 = ORIENTED_EDGE ( 'NONE', *, *, #180, .T. ) ;
#263 = COLOUR_RGB ( '',1.000000000000000000, 0.0000000000000000000, 0.0000000000000000000 ) ;
#264 = SURFACE_STYLE_USAGE ( .BOTH. , #328 ) ;
#265 =( GEOMETRIC_REPRESENTATION_CONTEXT ( 3 ) GLOBAL_UNCERTAINTY_ASSIGNED_CONTEXT ( ( #388 ) ) GLOBAL_UNIT_ASSIGNED_CONTEXT ( ( #821, #512, #906 ) ) REPRESENTATION_CONTEXT ( 'NONE', 'WORKASPACE' ) );
#266 = VERTEX_POINT ( 'NONE', #441 ) ;
#267 = FILL_AREA_STYLE ('',( #113 ) ) ;
#268 = MECHANICAL_DESIGN_GEOMETRIC_PRESENTATION_REPRESENTATION (  '', ( #96 ), #602 ) ;
#269 = ORIENTED_EDGE ( 'NONE', *, *, #470, .T. ) ;
#270 = PRODUCT_DEFINITION_FORMATION_WITH_SPECIFIED_SOURCE ( '任何', '', #33, .NOT_KNOWN. ) ;
#271 = EDGE_LOOP ( 'NONE', ( #408, #902, #913, #414 ) ) ;
#272 = DIRECTION ( 'NONE',  ( 0.0000000000000000000, 0.0000000000000000000, -1.000000000000000000 ) ) ;
#273 = ORIENTED_EDGE ( 'NONE', *, *, #369, .T. ) ;
#274 = EDGE_LOOP ( 'NONE', ( #104, #514, #14, #296 ) ) ;
#275 = SURFACE_STYLE_FILL_AREA ( #251 ) ;
#276 = ORIENTED_EDGE ( 'NONE', *, *, #83, .F. ) ;
#277 = VECTOR ( 'NONE', #240, 1000.000000000000000 ) ;
#278 = EDGE_LOOP ( 'NONE', ( #609, #706 ) ) ;
#279 = DIRECTION ( 'NONE',  ( 0.0000000000000000000, 0.0000000000000000000, 1.000000000000000000 ) ) ;
#280 = FILL_AREA_STYLE ('',( #48 ) ) ;
#281 = DIRECTION ( 'NONE',  ( 0.0000000000000000000, -0.0000000000000000000, 1.000000000000000000 ) ) ;
#282 = UNCERTAINTY_MEASURE_WITH_UNIT (LENGTH_MEASURE( 1.000000000000000100E-005 ), #421, 'distance_accuracy_value', 'NONE');
#283 =( GEOMETRIC_REPRESENTATION_CONTEXT ( 3 ) GLOBAL_UNCERTAINTY_ASSIGNED_CONTEXT ( ( #127 ) ) GLOBAL_UNIT_ASSIGNED_CONTEXT ( ( #769, #454, #843 ) ) REPRESENTATION_CONTEXT ( 'NONE', 'WORKASPACE' ) );
#284 = SURFACE_STYLE_USAGE ( .BOTH. , #517 ) ;
#285 = FILL_AREA_STYLE ('',( #815 ) ) ;
#286 = ORIENTED_EDGE ( 'NONE', *, *, #837, .T. ) ;
#287 = LINE ( 'NONE', #410, #366 ) ;
#288 =( GEOMETRIC_REPRESENTATION_CONTEXT ( 3 ) GLOBAL_UNCERTAINTY_ASSIGNED_CONTEXT ( ( #16 ) ) GLOBAL_UNIT_ASSIGNED_CONTEXT ( ( #627, #487, #710 ) ) REPRESENTATION_CONTEXT ( 'NONE', 'WORKASPACE' ) );
#289 = CARTESIAN_POINT ( 'NONE',  ( 36.80000000000000400, 0.0000000000000000000, 92.50000000000000000 ) ) ;
#290 = EDGE_CURVE ( 'NONE', #13, #636, #631, .T. ) ;
#291 = FACE_OUTER_BOUND ( 'NONE', #703, .T. ) ;
#292 = SURFACE_STYLE_USAGE ( .BOTH. , #927 ) ;
#293 = SURFACE_SIDE_STYLE ('',( #786 ) ) ;
#294 = UNCERTAINTY_MEASURE_WITH_UNIT (LENGTH_MEASURE( 1.000000000000000100E-005 ), #201, 'distance_accuracy_value', 'NONE');
#295 = CYLINDRICAL_SURFACE ( 'NONE', #931, 1.649999999999998600 ) ;
#296 = ORIENTED_EDGE ( 'NONE', *, *, #405, .F. ) ;
#297 = ORIENTED_EDGE ( 'NONE', *, *, #405, .T. ) ;
#298 = STYLED_ITEM ( 'NONE', ( #790 ), #580 ) ;
#299 = CIRCLE ( 'NONE', #222, 3.499999999999999600 ) ;
#300 = ORIENTED_EDGE ( 'NONE', *, *, #197, .F. ) ;
#301 =( NAMED_UNIT ( * ) SI_UNIT ( $, .STERADIAN. ) SOLID_ANGLE_UNIT ( ) );
#302 = DIRECTION ( 'NONE',  ( -0.0000000000000000000, -1.000000000000000000, -0.0000000000000000000 ) ) ;
#303 = ADVANCED_FACE ( 'NONE', ( #429 ), #154, .F. ) ;
#304 = EDGE_CURVE ( 'NONE', #488, #40, #901, .T. ) ;
#305 =( GEOMETRIC_REPRESENTATION_CONTEXT ( 3 ) GLOBAL_UNCERTAINTY_ASSIGNED_CONTEXT ( ( #841 ) ) GLOBAL_UNIT_ASSIGNED_CONTEXT ( ( #481, #109, #396 ) ) REPRESENTATION_CONTEXT ( 'NONE', 'WORKASPACE' ) );
#306 = CARTESIAN_POINT ( 'NONE',  ( 29.49999999999997900, 0.0000000000000000000, 5.000000000000000000 ) ) ;
#307 = SURFACE_STYLE_FILL_AREA ( #951 ) ;
#308 = PRESENTATION_STYLE_ASSIGNMENT (( #58 ) ) ;
#309 = ADVANCED_FACE ( 'NONE', ( #600 ), #205, .F. ) ;
#310 = CARTESIAN_POINT ( 'NONE',  ( -31.78097245096172300, 5.000000000000001800, -6.499999999999996400 ) ) ;
#311 = DIRECTION ( 'NONE',  ( 0.0000000000000000000, 1.000000000000000000, 0.0000000000000000000 ) ) ;
#312 = ORIENTED_EDGE ( 'NONE', *, *, #1005, .F. ) ;
#313 = PRODUCT_RELATED_PRODUCT_CATEGORY ( 'part', '', ( #33 ) ) ;
#314 = DIRECTION ( 'NONE',  ( 0.0000000000000000000, 0.0000000000000000000, -1.000000000000000000 ) ) ;
#315 = VECTOR ( 'NONE', #415, 1000.000000000000000 ) ;
#316 = EDGE_CURVE ( 'NONE', #612, #461, #299, .T. ) ;
#317 = DIRECTION ( 'NONE',  ( 3.576749435003725000E-017, 0.0000000000000000000, 1.000000000000000000 ) ) ;
#318 = CARTESIAN_POINT ( 'NONE',  ( 36.80000000000000400, 0.0000000000000000000, -34.29999999999999700 ) ) ;
#319 = AXIS2_PLACEMENT_3D ( 'NONE', #422, #571, #45 ) ;
#320 =( NAMED_UNIT ( * ) PLANE_ANGLE_UNIT ( ) SI_UNIT ( $, .RADIAN. ) );
#321 = SURFACE_STYLE_FILL_AREA ( #490 ) ;
#322 =( NAMED_UNIT ( * ) PLANE_ANGLE_UNIT ( ) SI_UNIT ( $, .RADIAN. ) );
#323 = VERTEX_POINT ( 'NONE', #77 ) ;
#324 = CIRCLE ( 'NONE', #728, 1.649999999999998600 ) ;
#325 = ORIENTED_EDGE ( 'NONE', *, *, #928, .T. ) ;
#326 = AXIS2_PLACEMENT_3D ( 'NONE', #956, #953, #329 ) ;
#327 = CIRCLE ( 'NONE', #186, 1.649999999999998600 ) ;
#328 = SURFACE_SIDE_STYLE ('',( #132 ) ) ;
#329 = DIRECTION ( 'NONE',  ( 0.0000000000000000000, 0.0000000000000000000, 1.000000000000000000 ) ) ;
#330 = EDGE_CURVE ( 'NONE', #373, #432, #862, .T. ) ;
#331 = FILL_AREA_STYLE ('',( #945 ) ) ;
#332 = ORIENTED_EDGE ( 'NONE', *, *, #680, .T. ) ;
#333 = EDGE_CURVE ( 'NONE', #456, #645, #684, .T. ) ;
#334 = PRODUCT_DEFINITION ( '未知', '', #270, #619 ) ;
#335 = COLOUR_RGB ( '',1.000000000000000000, 0.0000000000000000000, 0.0000000000000000000 ) ;
#336 = FACE_BOUND ( 'NONE', #374, .T. ) ;
#337 = ORIENTED_EDGE ( 'NONE', *, *, #358, .F. ) ;
#338 = SURFACE_SIDE_STYLE ('',( #31 ) ) ;
#339 = LINE ( 'NONE', #603, #383 ) ;
#340 = STYLED_ITEM ( 'NONE', ( #720 ), #860 ) ;
#341 =( NAMED_UNIT ( * ) PLANE_ANGLE_UNIT ( ) SI_UNIT ( $, .RADIAN. ) );
#342 = CARTESIAN_POINT ( 'NONE',  ( 69.49999999999997200, -104.9237818609299400, 97.00000000000001400 ) ) ;
#343 =( LENGTH_UNIT ( ) NAMED_UNIT ( * ) SI_UNIT ( .MILLI., .METRE. ) );
#344 = COLOUR_RGB ( '',1.000000000000000000, 0.0000000000000000000, 0.0000000000000000000 ) ;
#345 = MECHANICAL_DESIGN_GEOMETRIC_PRESENTATION_REPRESENTATION (  '', ( #738 ), #288 ) ;
#346 = PRESENTATION_STYLE_ASSIGNMENT (( #18 ) ) ;
#347 = DIRECTION ( 'NONE',  ( -6.123233995736766000E-017, -1.000000000000000000, 0.0000000000000000000 ) ) ;
#348 = SURFACE_STYLE_USAGE ( .BOTH. , #500 ) ;
#349 = EDGE_CURVE ( 'NONE', #456, #538, #457, .T. ) ;
#350 = LINE ( 'NONE', #1008, #79 ) ;
#351 = ORIENTED_EDGE ( 'NONE', *, *, #987, .T. ) ;
#352 = SURFACE_SIDE_STYLE ('',( #138 ) ) ;
#353 = VERTEX_POINT ( 'NONE', #691 ) ;
#354 = LINE ( 'NONE', #723, #993 ) ;
#355 = DIRECTION ( 'NONE',  ( 0.0000000000000000000, 0.0000000000000000000, 1.000000000000000000 ) ) ;
#356 = PLANE ( 'NONE',  #879 ) ;
#357 = AXIS2_PLACEMENT_3D ( 'NONE', #818, #65, #978 ) ;
#358 = EDGE_CURVE ( 'NONE', #432, #856, #218, .T. ) ;
#359 = LINE ( 'NONE', #15, #7 ) ;
#360 = STYLED_ITEM ( 'NONE', ( #23 ), #303 ) ;
#361 = CARTESIAN_POINT ( 'NONE',  ( 62.20000000000000300, 5.000000000000000000, 92.50000000000000000 ) ) ;
#362 = ORIENTED_EDGE ( 'NONE', *, *, #870, .T. ) ;
#363 = DIRECTION ( 'NONE',  ( 1.000000000000000000, 0.0000000000000000000, 0.0000000000000000000 ) ) ;
#364 = ORIENTED_EDGE ( 'NONE', *, *, #928, .F. ) ;
#365 = DIRECTION ( 'NONE',  ( 0.0000000000000000000, 1.000000000000000000, 0.0000000000000000000 ) ) ;
#366 = VECTOR ( 'NONE', #199, 1000.000000000000000 ) ;
#367 = DIRECTION ( 'NONE',  ( 6.123233995736766000E-017, 1.000000000000000000, 0.0000000000000000000 ) ) ;
#368 = SURFACE_SIDE_STYLE ('',( #182 ) ) ;
#369 = EDGE_CURVE ( 'NONE', #81, #189, #379, .T. ) ;
#370 = LINE ( 'NONE', #397, #63 ) ;
#371 = AXIS2_PLACEMENT_3D ( 'NONE', #510, #584, #279 ) ;
#372 = CIRCLE ( 'NONE', #895, 3.500000000000002200 ) ;
#373 = VERTEX_POINT ( 'NONE', #527 ) ;
#374 = EDGE_LOOP ( 'NONE', ( #954, #253 ) ) ;
#375 = EDGE_CURVE ( 'NONE', #189, #139, #835, .T. ) ;
#376 = CARTESIAN_POINT ( 'NONE',  ( 24.49999999999997500, 5.000000000000000000, 5.000000000000000000 ) ) ;
#377 = ADVANCED_FACE ( 'NONE', ( #822 ), #611, .F. ) ;
#378 = CYLINDRICAL_SURFACE ( 'NONE', #56, 1.649999999999998600 ) ;
#379 = CIRCLE ( 'NONE', #877, 1.649999999999998600 ) ;
#380 = ORIENTED_EDGE ( 'NONE', *, *, #648, .F. ) ;
#381 = ADVANCED_FACE ( 'NONE', ( #416 ), #506, .F. ) ;
#382 = DIRECTION ( 'NONE',  ( -0.7071067811865465700, 4.329780281177460900E-017, 0.7071067811865485700 ) ) ;
#383 = VECTOR ( 'NONE', #535, 1000.000000000000000 ) ;
#384 = COLOUR_RGB ( '',1.000000000000000000, 1.000000000000000000, 1.000000000000000000 ) ;
#385 = EDGE_LOOP ( 'NONE', ( #899, #593, #332, #216 ) ) ;
#386 = ADVANCED_FACE ( 'NONE', ( #660 ), #6, .T. ) ;
#387 = MECHANICAL_DESIGN_GEOMETRIC_PRESENTATION_REPRESENTATION (  '', ( #92 ), #768 ) ;
#388 = UNCERTAINTY_MEASURE_WITH_UNIT (LENGTH_MEASURE( 1.000000000000000100E-005 ), #821, 'distance_accuracy_value', 'NONE');
#389 = SURFACE_STYLE_FILL_AREA ( #792 ) ;
#390 = VERTEX_POINT ( 'NONE', #547 ) ;
#391 = AXIS2_PLACEMENT_3D ( 'NONE', #260, #885, #579 ) ;
#392 = ORIENTED_EDGE ( 'NONE', *, *, #648, .T. ) ;
#393 = DIRECTION ( 'NONE',  ( 0.0000000000000000000, 0.0000000000000000000, -1.000000000000000000 ) ) ;
#394 = VECTOR ( 'NONE', #918, 1000.000000000000000 ) ;
#395 = ORIENTED_EDGE ( 'NONE', *, *, #316, .T. ) ;
#396 =( NAMED_UNIT ( * ) SI_UNIT ( $, .STERADIAN. ) SOLID_ANGLE_UNIT ( ) );
#397 = CARTESIAN_POINT ( 'NONE',  ( 62.20000000000000300, -5.000000000000000000, 94.14999999999999100 ) ) ;
#398 = PRESENTATION_LAYER_ASSIGNMENT (  '', '', ( #298 ) ) ;
#399 = SURFACE_STYLE_USAGE ( .BOTH. , #258 ) ;
#400 = DIRECTION ( 'NONE',  ( 1.000000000000000000, -6.123233995736766000E-017, 0.0000000000000000000 ) ) ;
#401 = DIRECTION ( 'NONE',  ( -6.123233995736766000E-017, -1.000000000000000000, -0.0000000000000000000 ) ) ;
#402 = ORIENTED_EDGE ( 'NONE', *, *, #110, .T. ) ;
#403 = AXIS2_PLACEMENT_3D ( 'NONE', #557, #707, #471 ) ;
#404 = SURFACE_SIDE_STYLE ('',( #389 ) ) ;
#405 = EDGE_CURVE ( 'NONE', #353, #124, #246, .T. ) ;
#406 = CARTESIAN_POINT ( 'NONE',  ( -31.78097245096172300, 10.00000000000000200, -30.00000000000000000 ) ) ;
#407 = DIRECTION ( 'NONE',  ( 0.0000000000000000000, 1.000000000000000000, 0.0000000000000000000 ) ) ;
#408 = ORIENTED_EDGE ( 'NONE', *, *, #753, .F. ) ;
#409 = CYLINDRICAL_SURFACE ( 'NONE', #702, 3.500000000000002200 ) ;
#410 = CARTESIAN_POINT ( 'NONE',  ( -31.78097245096172300, 10.00000000000000200, -13.50000000000000200 ) ) ;
#411 = CARTESIAN_POINT ( 'NONE',  ( -31.78097245096172300, 10.00000000000000200, -30.00000000000000000 ) ) ;
#412 = EDGE_CURVE ( 'NONE', #189, #81, #324, .T. ) ;
#413 = CARTESIAN_POINT ( 'NONE',  ( 36.80000000000000400, -5.000000000000000000, 92.50000000000000000 ) ) ;
#414 = ORIENTED_EDGE ( 'NONE', *, *, #750, .T. ) ;
#415 = DIRECTION ( 'NONE',  ( 0.0000000000000000000, 1.000000000000000000, 0.0000000000000000000 ) ) ;
#416 = FACE_OUTER_BOUND ( 'NONE', #274, .T. ) ;
#417 = ORIENTED_EDGE ( 'NONE', *, *, #524, .T. ) ;
#418 = CIRCLE ( 'NONE', #371, 1.649999999999998600 ) ;
#419 = SURFACE_SIDE_STYLE ('',( #321 ) ) ;
#420 =( GEOMETRIC_REPRESENTATION_CONTEXT ( 3 ) GLOBAL_UNCERTAINTY_ASSIGNED_CONTEXT ( ( #282 ) ) GLOBAL_UNIT_ASSIGNED_CONTEXT ( ( #421, #713, #29 ) ) REPRESENTATION_CONTEXT ( 'NONE', 'WORKASPACE' ) );
#421 =( LENGTH_UNIT ( ) NAMED_UNIT ( * ) SI_UNIT ( .MILLI., .METRE. ) );
#422 = CARTESIAN_POINT ( 'NONE',  ( 29.49999999999997900, -104.9237818609299400, 0.0000000000000000000 ) ) ;
#423 = CARTESIAN_POINT ( 'NONE',  ( -31.78097245096172300, 1.581931860306302800E-015, -9.999999999999998200 ) ) ;
#424 = EDGE_CURVE ( 'NONE', #390, #488, #41, .T. ) ;
#425 = PRESENTATION_LAYER_ASSIGNMENT (  '', '', ( #738 ) ) ;
#426 = DIRECTION ( 'NONE',  ( 6.123233995736766000E-017, 1.000000000000000000, 0.0000000000000000000 ) ) ;
#427 = ORIENTED_EDGE ( 'NONE', *, *, #667, .F. ) ;
#428 = PLANE ( 'NONE',  #87 ) ;
#429 = FACE_OUTER_BOUND ( 'NONE', #431, .T. ) ;
#430 = DIRECTION ( 'NONE',  ( 0.0000000000000000000, 1.000000000000000000, 0.0000000000000000000 ) ) ;
#431 = EDGE_LOOP ( 'NONE', ( #785, #402, #297, #757 ) ) ;
#432 = VERTEX_POINT ( 'NONE', #778 ) ;
#433 = SURFACE_STYLE_FILL_AREA ( #71 ) ;
#434 = ORIENTED_EDGE ( 'NONE', *, *, #970, .F. ) ;
#435 = DIRECTION ( 'NONE',  ( 0.0000000000000000000, 0.0000000000000000000, 1.000000000000000000 ) ) ;
#436 = EDGE_CURVE ( 'NONE', #636, #13, #943, .T. ) ;
#437 = CARTESIAN_POINT ( 'NONE',  ( 69.50000000000000000, 0.0000000000000000000, -40.00000000000000000 ) ) ;
#438 = CARTESIAN_POINT ( 'NONE',  ( 36.80000000000000400, -5.000000000000000000, -32.64999999999999900 ) ) ;
#439 =( NAMED_UNIT ( * ) SI_UNIT ( $, .STERADIAN. ) SOLID_ANGLE_UNIT ( ) );
#440 = CARTESIAN_POINT ( 'NONE',  ( -31.78097245096172300, 10.00000000000000200, -26.50000000000000000 ) ) ;
#441 = CARTESIAN_POINT ( 'NONE',  ( -36.78097245096170600, 1.888093560093140000E-015, 0.0000000000000000000 ) ) ;
#442 = ORIENTED_EDGE ( 'NONE', *, *, #987, .F. ) ;
#443 = PRESENTATION_LAYER_ASSIGNMENT (  '', '', ( #340 ) ) ;
#444 = DIRECTION ( 'NONE',  ( 0.0000000000000000000, 0.0000000000000000000, 1.000000000000000000 ) ) ;
#445 = EDGE_LOOP ( 'NONE', ( #351, #900, #849, #876, #743, #719, #231, #155, #392 ) ) ;
#446 = CIRCLE ( 'NONE', #607, 1.649999999999998600 ) ;
#447 = VECTOR ( 'NONE', #226, 1000.000000000000000 ) ;
#448 = EDGE_CURVE ( 'NONE', #981, #465, #731, .T. ) ;
#449 = STYLED_ITEM ( 'NONE', ( #670 ), #19 ) ;
#450 = DIRECTION ( 'NONE',  ( 0.0000000000000000000, -0.0000000000000000000, 1.000000000000000000 ) ) ;
#451 = CARTESIAN_POINT ( 'NONE',  ( 36.80000000000000400, -5.000000000000000000, -34.29999999999999700 ) ) ;
#452 = ORIENTED_EDGE ( 'NONE', *, *, #797, .T. ) ;
#453 = SURFACE_STYLE_USAGE ( .BOTH. , #368 ) ;
#454 =( NAMED_UNIT ( * ) PLANE_ANGLE_UNIT ( ) SI_UNIT ( $, .RADIAN. ) );
#455 = ORIENTED_EDGE ( 'NONE', *, *, #304, .F. ) ;
#456 = VERTEX_POINT ( 'NONE', #310 ) ;
#457 = CIRCLE ( 'NONE', #111, 3.500000000000002200 ) ;
#458 = ORIENTED_EDGE ( 'NONE', *, *, #484, .F. ) ;
#459 = PRESENTATION_LAYER_ASSIGNMENT (  '', '', ( #96 ) ) ;
#460 = CARTESIAN_POINT ( 'NONE',  ( 29.49999999999998200, -104.9237818609299400, 97.00000000000002800 ) ) ;
#461 = VERTEX_POINT ( 'NONE', #700 ) ;
#462 = UNCERTAINTY_MEASURE_WITH_UNIT (LENGTH_MEASURE( 1.000000000000000100E-005 ), #44, 'distance_accuracy_value', 'NONE');
#463 = EDGE_CURVE ( 'NONE', #40, #373, #479, .T. ) ;
#464 = DIRECTION ( 'NONE',  ( -0.7071067811865455700, 4.329780281177454700E-017, 0.7071067811865495700 ) ) ;
#465 = VERTEX_POINT ( 'NONE', #244 ) ;
#466 = DIRECTION ( 'NONE',  ( 0.0000000000000000000, 0.0000000000000000000, -1.000000000000000000 ) ) ;
#467 = ORIENTED_EDGE ( 'NONE', *, *, #772, .F. ) ;
#468 = CIRCLE ( 'NONE', #526, 1.649999999999998600 ) ;
#469 = DIRECTION ( 'NONE',  ( 0.0000000000000000000, 1.000000000000000000, 0.0000000000000000000 ) ) ;
#470 = EDGE_CURVE ( 'NONE', #95, #645, #852, .T. ) ;
#471 = DIRECTION ( 'NONE',  ( 0.0000000000000000000, 0.0000000000000000000, -1.000000000000000000 ) ) ;
#472 = AXIS2_PLACEMENT_3D ( 'NONE', #78, #604, #844 ) ;
#473 = CIRCLE ( 'NONE', #391, 1.649999999999998600 ) ;
#474 = UNCERTAINTY_MEASURE_WITH_UNIT (LENGTH_MEASURE( 1.000000000000000100E-005 ), #605, 'distance_accuracy_value', 'NONE');
#475 = FACE_BOUND ( 'NONE', #278, .T. ) ;
#476 = MECHANICAL_DESIGN_GEOMETRIC_PRESENTATION_REPRESENTATION (  '', ( #449 ), #630 ) ;
#477 = ORIENTED_EDGE ( 'NONE', *, *, #522, .T. ) ;
#478 = EDGE_LOOP ( 'NONE', ( #551, #944 ) ) ;
#479 = CIRCLE ( 'NONE', #699, 5.000000000000000000 ) ;
#480 = EDGE_LOOP ( 'NONE', ( #312, #163 ) ) ;
#481 =( LENGTH_UNIT ( ) NAMED_UNIT ( * ) SI_UNIT ( .MILLI., .METRE. ) );
#482 = LINE ( 'NONE', #135, #208 ) ;
#483 = FILL_AREA_STYLE_COLOUR ( '', #816 ) ;
#484 = EDGE_CURVE ( 'NONE', #530, #139, #875, .T. ) ;
#485 = VERTEX_POINT ( 'NONE', #93 ) ;
#486 = ORIENTED_EDGE ( 'NONE', *, *, #463, .F. ) ;
#487 =( NAMED_UNIT ( * ) PLANE_ANGLE_UNIT ( ) SI_UNIT ( $, .RADIAN. ) );
#488 = VERTEX_POINT ( 'NONE', #542 ) ;
#489 = COLOUR_RGB ( '',1.000000000000000000, 0.0000000000000000000, 0.0000000000000000000 ) ;
#490 = FILL_AREA_STYLE ('',( #8 ) ) ;
#491 = ORIENTED_EDGE ( 'NONE', *, *, #98, .T. ) ;
#492 = AXIS2_PLACEMENT_3D ( 'NONE', #961, #347, #893 ) ;
#493 = SURFACE_SIDE_STYLE ('',( #275 ) ) ;
#494 = LINE ( 'NONE', #727, #777 ) ;
#495 = CARTESIAN_POINT ( 'NONE',  ( 29.49999999999998200, 5.000000000000000000, 97.00000000000002800 ) ) ;
#496 = DIRECTION ( 'NONE',  ( 0.0000000000000000000, 0.0000000000000000000, 1.000000000000000000 ) ) ;
#497 = DIRECTION ( 'NONE',  ( 0.0000000000000000000, 0.0000000000000000000, -1.000000000000000000 ) ) ;
#498 = COLOUR_RGB ( '',1.000000000000000000, 0.0000000000000000000, 0.0000000000000000000 ) ;
#499 = DIRECTION ( 'NONE',  ( 3.576749435003725000E-017, 0.0000000000000000000, 1.000000000000000000 ) ) ;
#500 = SURFACE_SIDE_STYLE ('',( #191 ) ) ;
#501 = CARTESIAN_POINT ( 'NONE',  ( -36.78097245096173400, 10.00000000000000200, -40.00000000000000000 ) ) ;
#502 = FACE_BOUND ( 'NONE', #480, .T. ) ;
#503 = ORIENTED_EDGE ( 'NONE', *, *, #772, .T. ) ;
#504 = EDGE_LOOP ( 'NONE', ( #519, #25, #661, #254 ) ) ;
#505 = DIRECTION ( 'NONE',  ( 0.0000000000000000000, -1.000000000000000000, 0.0000000000000000000 ) ) ;
#506 = CYLINDRICAL_SURFACE ( 'NONE', #217, 1.649999999999998600 ) ;
#507 = ORIENTED_EDGE ( 'NONE', *, *, #870, .F. ) ;
#508 = CYLINDRICAL_SURFACE ( 'NONE', #174, 1.649999999999998600 ) ;
#509 = UNCERTAINTY_MEASURE_WITH_UNIT (LENGTH_MEASURE( 1.000000000000000100E-005 ), #666, 'distance_accuracy_value', 'NONE');
#510 = CARTESIAN_POINT ( 'NONE',  ( 62.20000000000000300, 5.000000000000000000, -34.29999999999999700 ) ) ;
#511 = CARTESIAN_POINT ( 'NONE',  ( 62.20000000000000300, -5.000000000000000000, 90.84999999999999400 ) ) ;
#512 =( NAMED_UNIT ( * ) PLANE_ANGLE_UNIT ( ) SI_UNIT ( $, .RADIAN. ) );
#513 = AXIS2_PLACEMENT_3D ( 'NONE', #534, #840, #986 ) ;
#514 = ORIENTED_EDGE ( 'NONE', *, *, #690, .T. ) ;
#515 = VECTOR ( 'NONE', #107, 1000.000000000000000 ) ;
#516 = ORIENTED_EDGE ( 'NONE', *, *, #925, .F. ) ;
#517 = SURFACE_SIDE_STYLE ('',( #878 ) ) ;
#518 = ORIENTED_EDGE ( 'NONE', *, *, #753, .T. ) ;
#519 = ORIENTED_EDGE ( 'NONE', *, *, #629, .F. ) ;
#520 = CARTESIAN_POINT ( 'NONE',  ( 69.49999999999997200, 5.000000000000000000, 97.00000000000001400 ) ) ;
#521 = DIRECTION ( 'NONE',  ( -6.123233995736766000E-017, -1.000000000000000000, 0.0000000000000000000 ) ) ;
#522 = EDGE_CURVE ( 'NONE', #622, #873, #446, .T. ) ;
#523 = CARTESIAN_POINT ( 'NONE',  ( 36.80000000000000400, -5.000000000000000000, 90.84999999999999400 ) ) ;
#524 = EDGE_CURVE ( 'NONE', #856, #40, #587, .T. ) ;
#525 = LINE ( 'NONE', #554, #515 ) ;
#526 = AXIS2_PLACEMENT_3D ( 'NONE', #361, #430, #749 ) ;
#527 = CARTESIAN_POINT ( 'NONE',  ( 29.49999999999997900, 5.000000000000000000, 5.000000000000000000 ) ) ;
#528 = ORIENTED_EDGE ( 'NONE', *, *, #349, .F. ) ;
#529 = VECTOR ( 'NONE', #160, 1000.000000000000000 ) ;
#530 = VERTEX_POINT ( 'NONE', #223 ) ;
#531 = LINE ( 'NONE', #119, #578 ) ;
#532 = EDGE_CURVE ( 'NONE', #266, #923, #350, .T. ) ;
#533 = DIRECTION ( 'NONE',  ( 0.0000000000000000000, -1.000000000000000000, 0.0000000000000000000 ) ) ;
#534 = CARTESIAN_POINT ( 'NONE',  ( 62.20000000000000300, 0.0000000000000000000, 92.50000000000000000 ) ) ;
#535 = DIRECTION ( 'NONE',  ( 1.000000000000000000, 0.0000000000000000000, -3.469446951953615200E-016 ) ) ;
#536 = LINE ( 'NONE', #556, #202 ) ;
#537 = DIRECTION ( 'NONE',  ( 0.7071067811865495700, -4.329780281177478800E-017, 0.7071067811865455700 ) ) ;
#538 = VERTEX_POINT ( 'NONE', #693 ) ;
#539 = EDGE_LOOP ( 'NONE', ( #219, #657, #105, #427 ) ) ;
#540 = VECTOR ( 'NONE', #64, 1000.000000000000000 ) ;
#541 = ORIENTED_EDGE ( 'NONE', *, *, #149, .T. ) ;
#542 = CARTESIAN_POINT ( 'NONE',  ( -36.78097245096170600, 5.000000000000001800, 0.0000000000000000000 ) ) ;
#543 =( GEOMETRIC_REPRESENTATION_CONTEXT ( 3 ) GLOBAL_UNCERTAINTY_ASSIGNED_CONTEXT ( ( #763 ) ) GLOBAL_UNIT_ASSIGNED_CONTEXT ( ( #969, #817, #653 ) ) REPRESENTATION_CONTEXT ( 'NONE', 'WORKASPACE' ) );
#544 = ADVANCED_FACE ( 'NONE', ( #243 ), #114, .F. ) ;
#545 = PLANE ( 'NONE',  #812 ) ;
#546 = ORIENTED_EDGE ( 'NONE', *, *, #952, .T. ) ;
#547 = CARTESIAN_POINT ( 'NONE',  ( -41.78097245096172700, 5.000000000000002700, -4.999999999999990200 ) ) ;
#548 = AXIS2_PLACEMENT_3D ( 'NONE', #406, #401, #640 ) ;
#549 = EDGE_LOOP ( 'NONE', ( #682, #325 ) ) ;
#550 = FACE_BOUND ( 'NONE', #851, .T. ) ;
#551 = ORIENTED_EDGE ( 'NONE', *, *, #98, .F. ) ;
#552 = VECTOR ( 'NONE', #152, 1000.000000000000000 ) ;
#553 = EDGE_LOOP ( 'NONE', ( #273, #577, #635, #823 ) ) ;
#554 = CARTESIAN_POINT ( 'NONE',  ( -41.78097245096172700, 2.194255259879979500E-015, 0.0000000000000000000 ) ) ;
#555 = EDGE_CURVE ( 'NONE', #747, #923, #165, .T. ) ;
#556 = CARTESIAN_POINT ( 'NONE',  ( 69.50000000000000000, 5.000000000000000000, -40.00000000000000000 ) ) ;
#557 = CARTESIAN_POINT ( 'NONE',  ( 62.20000000000000300, 0.0000000000000000000, -34.29999999999999700 ) ) ;
#558 = AXIS2_PLACEMENT_3D ( 'NONE', #122, #435, #363 ) ;
#559 = CARTESIAN_POINT ( 'NONE',  ( 24.49999999999997500, 5.000000000000000000, 0.0000000000000000000 ) ) ;
#560 = DIRECTION ( 'NONE',  ( 0.0000000000000000000, -1.000000000000000000, 0.0000000000000000000 ) ) ;
#561 = STYLED_ITEM ( 'NONE', ( #54 ), #309 ) ;
#562 = ORIENTED_EDGE ( 'NONE', *, *, #524, .F. ) ;
#563 = VECTOR ( 'NONE', #884, 1000.000000000000000 ) ;
#564 = FILL_AREA_STYLE_COLOUR ( '', #224 ) ;
#565 = UNCERTAINTY_MEASURE_WITH_UNIT (LENGTH_MEASURE( 1.000000000000000100E-005 ), #872, 'distance_accuracy_value', 'NONE');
#566 = AXIS2_PLACEMENT_3D ( 'NONE', #142, #826, #980 ) ;
#567 = CARTESIAN_POINT ( 'NONE',  ( -41.78097245096172700, 5.000000000000002700, -34.99999999999999300 ) ) ;
#568 =( NAMED_UNIT ( * ) SI_UNIT ( $, .STERADIAN. ) SOLID_ANGLE_UNIT ( ) );
#569 = EDGE_CURVE ( 'NONE', #909, #747, #912, .T. ) ;
#570 = PRESENTATION_STYLE_ASSIGNMENT (( #348 ) ) ;
#571 = DIRECTION ( 'NONE',  ( -1.000000000000000000, 0.0000000000000000000, 3.576749435003725000E-017 ) ) ;
#572 = DIRECTION ( 'NONE',  ( -6.123233995736766000E-017, -1.000000000000000000, 0.0000000000000000000 ) ) ;
#573 = EDGE_CURVE ( 'NONE', #808, #323, #574, .T. ) ;
#574 = CIRCLE ( 'NONE', #842, 1.649999999999998600 ) ;
#575 = ORIENTED_EDGE ( 'NONE', *, *, #436, .T. ) ;
#576 = MECHANICAL_DESIGN_GEOMETRIC_PRESENTATION_REPRESENTATION (  '', ( #789 ), #283 ) ;
#577 = ORIENTED_EDGE ( 'NONE', *, *, #375, .T. ) ;
#578 = VECTOR ( 'NONE', #496, 1000.000000000000000 ) ;
#579 = DIRECTION ( 'NONE',  ( 0.0000000000000000000, 0.0000000000000000000, -1.000000000000000000 ) ) ;
#580 = ADVANCED_BREP_SHAPE_REPRESENTATION ( 'Q235-5.0-BAN6-N1', ( #34, #558 ), #805 ) ;
#581 =( GEOMETRIC_REPRESENTATION_CONTEXT ( 3 ) GLOBAL_UNCERTAINTY_ASSIGNED_CONTEXT ( ( #147 ) ) GLOBAL_UNIT_ASSIGNED_CONTEXT ( ( #343, #200, #568 ) ) REPRESENTATION_CONTEXT ( 'NONE', 'WORKASPACE' ) );
#582 = DIRECTION ( 'NONE',  ( 0.0000000000000000000, 0.0000000000000000000, 1.000000000000000000 ) ) ;
#583 = LINE ( 'NONE', #948, #112 ) ;
#584 = DIRECTION ( 'NONE',  ( 0.0000000000000000000, 1.000000000000000000, 0.0000000000000000000 ) ) ;
#585 =( NAMED_UNIT ( * ) PLANE_ANGLE_UNIT ( ) SI_UNIT ( $, .RADIAN. ) );
#586 =( NAMED_UNIT ( * ) PLANE_ANGLE_UNIT ( ) SI_UNIT ( $, .RADIAN. ) );
#587 = LINE ( 'NONE', #235, #858 ) ;
#588 = ORIENTED_EDGE ( 'NONE', *, *, #882, .F. ) ;
#589 = CARTESIAN_POINT ( 'NONE',  ( 3.219027549038279400, 9.999999999999998200, 0.0000000000000000000 ) ) ;
#590 = LINE ( 'NONE', #668, #447 ) ;
#591 = VERTEX_POINT ( 'NONE', #736 ) ;
#592 =( LENGTH_UNIT ( ) NAMED_UNIT ( * ) SI_UNIT ( .MILLI., .METRE. ) );
#593 = ORIENTED_EDGE ( 'NONE', *, *, #412, .T. ) ;
#594 = AXIS2_PLACEMENT_3D ( 'NONE', #131, #259, #53 ) ;
#595 = CARTESIAN_POINT ( 'NONE',  ( -31.78097245096172300, 10.00000000000000200, -33.50000000000000000 ) ) ;
#596 = EDGE_CURVE ( 'NONE', #538, #456, #372, .T. ) ;
#597 = PRESENTATION_STYLE_ASSIGNMENT (( #734 ) ) ;
#598 = ORIENTED_EDGE ( 'NONE', *, *, #832, .F. ) ;
#599 = CARTESIAN_POINT ( 'NONE',  ( 36.80000000000000400, 5.000000000000000000, -32.64999999999999900 ) ) ;
#600 = FACE_OUTER_BOUND ( 'NONE', #725, .T. ) ;
#601 = VERTEX_POINT ( 'NONE', #198 ) ;
#602 =( GEOMETRIC_REPRESENTATION_CONTEXT ( 3 ) GLOBAL_UNCERTAINTY_ASSIGNED_CONTEXT ( ( #462 ) ) GLOBAL_UNIT_ASSIGNED_CONTEXT ( ( #44, #341, #894 ) ) REPRESENTATION_CONTEXT ( 'NONE', 'WORKASPACE' ) );
#603 = CARTESIAN_POINT ( 'NONE',  ( 69.49999999999997200, 0.0000000000000000000, 97.00000000000001400 ) ) ;
#604 = DIRECTION ( 'NONE',  ( -6.123233995736766000E-017, -1.000000000000000000, 0.0000000000000000000 ) ) ;
#605 =( LENGTH_UNIT ( ) NAMED_UNIT ( * ) SI_UNIT ( .MILLI., .METRE. ) );
#606 = DIRECTION ( 'NONE',  ( 0.0000000000000000000, 1.000000000000000000, 0.0000000000000000000 ) ) ;
#607 = AXIS2_PLACEMENT_3D ( 'NONE', #762, #776, #169 ) ;
#608 = CARTESIAN_POINT ( 'NONE',  ( -31.78097245096172300, 10.00000000000000200, -6.499999999999996400 ) ) ;
#609 = ORIENTED_EDGE ( 'NONE', *, *, #349, .T. ) ;
#610 = COLOUR_RGB ( '',1.000000000000000000, 0.0000000000000000000, 0.0000000000000000000 ) ;
#611 = PLANE ( 'NONE',  #929 ) ;
#612 = VERTEX_POINT ( 'NONE', #130 ) ;
#613 = LINE ( 'NONE', #737, #563 ) ;
#614 = AXIS2_PLACEMENT_3D ( 'NONE', #451, #73, #689 ) ;
#615 = DIRECTION ( 'NONE',  ( -6.123233995736766000E-017, -1.000000000000000000, 0.0000000000000000000 ) ) ;
#616 = ADVANCED_FACE ( 'NONE', ( #66, #336, #696, #102, #756, #550, #933 ), #754, .T. ) ;
#617 = EDGE_LOOP ( 'NONE', ( #172, #730 ) ) ;
#618 = MECHANICAL_DESIGN_GEOMETRIC_PRESENTATION_REPRESENTATION (  '', ( #920 ), #966 ) ;
#619 = PRODUCT_DEFINITION_CONTEXT ( 'detailed design', #740, 'design' ) ;
#620 = ADVANCED_FACE ( 'NONE', ( #644 ), #428, .T. ) ;
#621 = CARTESIAN_POINT ( 'NONE',  ( -31.78097245096172300, 1.581931860306302800E-015, -9.999999999999998200 ) ) ;
#622 = VERTEX_POINT ( 'NONE', #599 ) ;
#623 =( LENGTH_UNIT ( ) NAMED_UNIT ( * ) SI_UNIT ( .MILLI., .METRE. ) );
#624 = EDGE_LOOP ( 'NONE', ( #685, #467 ) ) ;
#625 = VECTOR ( 'NONE', #499, 1000.000000000000000 ) ;
#626 = PRESENTATION_LAYER_ASSIGNMENT (  '', '', ( #789 ) ) ;
#627 =( LENGTH_UNIT ( ) NAMED_UNIT ( * ) SI_UNIT ( .MILLI., .METRE. ) );
#628 = COLOUR_RGB ( '',1.000000000000000000, 1.000000000000000000, 1.000000000000000000 ) ;
#629 = EDGE_CURVE ( 'NONE', #373, #992, #963, .T. ) ;
#630 =( GEOMETRIC_REPRESENTATION_CONTEXT ( 3 ) GLOBAL_UNCERTAINTY_ASSIGNED_CONTEXT ( ( #565 ) ) GLOBAL_UNIT_ASSIGNED_CONTEXT ( ( #872, #322, #638 ) ) REPRESENTATION_CONTEXT ( 'NONE', 'WORKASPACE' ) );
#631 = CIRCLE ( 'NONE', #513, 1.649999999999998600 ) ;
#632 = CARTESIAN_POINT ( 'NONE',  ( 24.49999999999997500, 0.0000000000000000000, 0.0000000000000000000 ) ) ;
#633 = ORIENTED_EDGE ( 'NONE', *, *, #573, .T. ) ;
#634 = VERTEX_POINT ( 'NONE', #773 ) ;
#635 = ORIENTED_EDGE ( 'NONE', *, *, #197, .T. ) ;
#636 = VERTEX_POINT ( 'NONE', #86 ) ;
#637 = DIRECTION ( 'NONE',  ( 1.000000000000000000, -6.123233995736766000E-017, -0.0000000000000000000 ) ) ;
#638 =( NAMED_UNIT ( * ) SI_UNIT ( $, .STERADIAN. ) SOLID_ANGLE_UNIT ( ) );
#639 = PRESENTATION_STYLE_ASSIGNMENT (( #399 ) ) ;
#640 = DIRECTION ( 'NONE',  ( 0.0000000000000000000, 0.0000000000000000000, 1.000000000000000000 ) ) ;
#641 =( NAMED_UNIT ( * ) PLANE_ANGLE_UNIT ( ) SI_UNIT ( $, .RADIAN. ) );
#642 = AXIS2_PLACEMENT_3D ( 'NONE', #1, #936, #466 ) ;
#643 = CARTESIAN_POINT ( 'NONE',  ( 36.80000000000000400, 5.000000000000000000, 92.50000000000000000 ) ) ;
#644 = FACE_OUTER_BOUND ( 'NONE', #990, .T. ) ;
#645 = VERTEX_POINT ( 'NONE', #694 ) ;
#646 = CARTESIAN_POINT ( 'NONE',  ( -41.78097245096172700, 2.194255259879979500E-015, -4.999999999999990200 ) ) ;
#647 = DIRECTION ( 'NONE',  ( 0.0000000000000000000, 1.000000000000000000, 0.0000000000000000000 ) ) ;
#648 = EDGE_CURVE ( 'NONE', #229, #909, #151, .T. ) ;
#649 = CARTESIAN_POINT ( 'NONE',  ( -41.78097245096172700, 5.000000000000002700, -40.00000000000000000 ) ) ;
#650 = DIRECTION ( 'NONE',  ( 0.0000000000000000000, 0.0000000000000000000, 1.000000000000000000 ) ) ;
#651 = STYLED_ITEM ( 'NONE', ( #346 ), #171 ) ;
#652 = UNCERTAINTY_MEASURE_WITH_UNIT (LENGTH_MEASURE( 1.000000000000000100E-005 ), #623, 'distance_accuracy_value', 'NONE');
#653 =( NAMED_UNIT ( * ) SI_UNIT ( $, .STERADIAN. ) SOLID_ANGLE_UNIT ( ) );
#654 = SURFACE_STYLE_USAGE ( .BOTH. , #803 ) ;
#655 = LINE ( 'NONE', #460, #10 ) ;
#656 = CARTESIAN_POINT ( 'NONE',  ( 0.0000000000000000000, 5.000000000000000000, -40.00000000000000000 ) ) ;
#657 = ORIENTED_EDGE ( 'NONE', *, *, #814, .F. ) ;
#658 = EDGE_LOOP ( 'NONE', ( #24, #153 ) ) ;
#659 = STYLED_ITEM ( 'NONE', ( #597 ), #688 ) ;
#660 = FACE_OUTER_BOUND ( 'NONE', #539, .T. ) ;
#661 = ORIENTED_EDGE ( 'NONE', *, *, #988, .T. ) ;
#662 = CARTESIAN_POINT ( 'NONE',  ( -31.78097245096172300, 5.000000000000001800, -9.999999999999998200 ) ) ;
#663 = CARTESIAN_POINT ( 'NONE',  ( 36.80000000000000400, 5.000000000000000000, -34.29999999999999700 ) ) ;
#664 = DIRECTION ( 'NONE',  ( 0.0000000000000000000, -1.000000000000000000, 0.0000000000000000000 ) ) ;
#665 = EDGE_CURVE ( 'NONE', #61, #992, #655, .T. ) ;
#666 =( LENGTH_UNIT ( ) NAMED_UNIT ( * ) SI_UNIT ( .MILLI., .METRE. ) );
#667 = EDGE_CURVE ( 'NONE', #923, #390, #745, .T. ) ;
#668 = CARTESIAN_POINT ( 'NONE',  ( -36.78097245096170600, 1.888093560093140000E-015, 0.0000000000000000000 ) ) ;
#669 = DIRECTION ( 'NONE',  ( 0.0000000000000000000, 1.000000000000000000, 0.0000000000000000000 ) ) ;
#670 = PRESENTATION_STYLE_ASSIGNMENT (( #793 ) ) ;
#671 = CARTESIAN_POINT ( 'NONE',  ( 62.20000000000000300, -5.000000000000000000, -35.94999999999999600 ) ) ;
#672 = CARTESIAN_POINT ( 'NONE',  ( 69.49999999999997200, -104.9237818609299400, 97.00000000000001400 ) ) ;
#673 = PRESENTATION_LAYER_ASSIGNMENT (  '', '', ( #651 ) ) ;
#674 = ORIENTED_EDGE ( 'NONE', *, *, #180, .F. ) ;
#675 = DIRECTION ( 'NONE',  ( 0.0000000000000000000, 0.0000000000000000000, 1.000000000000000000 ) ) ;
#676 = ORIENTED_EDGE ( 'NONE', *, *, #970, .T. ) ;
#677 = AXIS2_PLACEMENT_3D ( 'NONE', #1004, #89, #4 ) ;
#678 = LINE ( 'NONE', #671, #215 ) ;
#679 = ORIENTED_EDGE ( 'NONE', *, *, #837, .F. ) ;
#680 = EDGE_CURVE ( 'NONE', #81, #530, #807, .T. ) ;
#681 = CARTESIAN_POINT ( 'NONE',  ( -41.78097245096172700, 5.000000000000002700, 0.0000000000000000000 ) ) ;
#682 = ORIENTED_EDGE ( 'NONE', *, *, #448, .T. ) ;
#683 = DIRECTION ( 'NONE',  ( 1.000000000000000000, 0.0000000000000000000, -3.469446951953615200E-016 ) ) ;
#684 = LINE ( 'NONE', #608, #394 ) ;
#685 = ORIENTED_EDGE ( 'NONE', *, *, #522, .F. ) ;
#686 = AXIS2_PLACEMENT_3D ( 'NONE', #318, #560, #393 ) ;
#687 = CARTESIAN_POINT ( 'NONE',  ( 24.49999999999997500, 0.0000000000000000000, 5.000000000000000000 ) ) ;
#688 = ADVANCED_FACE ( 'NONE', ( #717 ), #295, .F. ) ;
#689 = DIRECTION ( 'NONE',  ( 0.0000000000000000000, 0.0000000000000000000, 1.000000000000000000 ) ) ;
#690 = EDGE_CURVE ( 'NONE', #859, #714, #678, .T. ) ;
#691 = CARTESIAN_POINT ( 'NONE',  ( 62.20000000000000300, 0.0000000000000000000, -32.64999999999999900 ) ) ;
#692 = ADVANCED_FACE ( 'NONE', ( #475, #175, #704, #502, #871, #755, #28 ), #211, .F. ) ;
#693 = CARTESIAN_POINT ( 'NONE',  ( -31.78097245096172300, 5.000000000000001800, -13.50000000000000200 ) ) ;
#694 = CARTESIAN_POINT ( 'NONE',  ( -31.78097245096172300, 1.581931860306302800E-015, -6.499999999999996400 ) ) ;
#695 = ORIENTED_EDGE ( 'NONE', *, *, #470, .F. ) ;
#696 = FACE_OUTER_BOUND ( 'NONE', #129, .T. ) ;
#697 = EDGE_LOOP ( 'NONE', ( #491, #143, #503, #968 ) ) ;
#698 = LINE ( 'NONE', #595, #277 ) ;
#699 = AXIS2_PLACEMENT_3D ( 'NONE', #376, #533, #168 ) ;
#700 = CARTESIAN_POINT ( 'NONE',  ( -31.78097245096172300, 1.581931860306302800E-015, -33.50000000000000000 ) ) ;
#701 = SURFACE_STYLE_FILL_AREA ( #267 ) ;
#702 = AXIS2_PLACEMENT_3D ( 'NONE', #865, #869, #947 ) ;
#703 = EDGE_LOOP ( 'NONE', ( #709, #528, #194, #934 ) ) ;
#704 = FACE_OUTER_BOUND ( 'NONE', #445, .T. ) ;
#705 = EDGE_LOOP ( 'NONE', ( #458, #300 ) ) ;
#706 = ORIENTED_EDGE ( 'NONE', *, *, #596, .T. ) ;
#707 = DIRECTION ( 'NONE',  ( 0.0000000000000000000, -1.000000000000000000, 0.0000000000000000000 ) ) ;
#708 = VECTOR ( 'NONE', #469, 1000.000000000000000 ) ;
#709 = ORIENTED_EDGE ( 'NONE', *, *, #952, .F. ) ;
#710 =( NAMED_UNIT ( * ) SI_UNIT ( $, .STERADIAN. ) SOLID_ANGLE_UNIT ( ) );
#711 = CARTESIAN_POINT ( 'NONE',  ( -31.78097245096172300, 1.581931860306302800E-015, -30.00000000000000000 ) ) ;
#712 = AXIS2_PLACEMENT_3D ( 'NONE', #656, #983, #824 ) ;
#713 =( NAMED_UNIT ( * ) PLANE_ANGLE_UNIT ( ) SI_UNIT ( $, .RADIAN. ) );
#714 = VERTEX_POINT ( 'NONE', #744 ) ;
#715 = CYLINDRICAL_SURFACE ( 'NONE', #39, 5.000000000000000000 ) ;
#716 = MECHANICAL_DESIGN_GEOMETRIC_PRESENTATION_REPRESENTATION (  '', ( #360 ), #75 ) ;
#717 = FACE_OUTER_BOUND ( 'NONE', #830, .T. ) ;
#718 = CARTESIAN_POINT ( 'NONE',  ( 62.20000000000000300, -5.000000000000000000, 92.50000000000000000 ) ) ;
#719 = ORIENTED_EDGE ( 'NONE', *, *, #784, .T. ) ;
#720 = PRESENTATION_STYLE_ASSIGNMENT (( #264 ) ) ;
#721 = DIRECTION ( 'NONE',  ( -6.123233995736766000E-017, -1.000000000000000000, -0.0000000000000000000 ) ) ;
#722 = AXIS2_PLACEMENT_3D ( 'NONE', #411, #721, #958 ) ;
#723 = CARTESIAN_POINT ( 'NONE',  ( -39.28097245096172700, 2.041174409986560600E-015, -37.50000000000000700 ) ) ;
#724 = SURFACE_STYLE_USAGE ( .BOTH. , #493 ) ;
#725 = EDGE_LOOP ( 'NONE', ( #22, #633, #233, #477 ) ) ;
#726 = CIRCLE ( 'NONE', #566, 3.499999999999999600 ) ;
#727 = CARTESIAN_POINT ( 'NONE',  ( -36.78097245096173400, 10.00000000000000200, -40.00000000000000000 ) ) ;
#728 = AXIS2_PLACEMENT_3D ( 'NONE', #241, #12, #314 ) ;
#729 = VECTOR ( 'NONE', #382, 1000.000000000000000 ) ;
#730 = ORIENTED_EDGE ( 'NONE', *, *, #110, .F. ) ;
#731 = CIRCLE ( 'NONE', #975, 3.499999999999999600 ) ;
#732 = CARTESIAN_POINT ( 'NONE',  ( -31.78097245096172300, 1.581931860306302800E-015, -13.50000000000000200 ) ) ;
#733 = ORIENTED_EDGE ( 'NONE', *, *, #555, .F. ) ;
#734 = SURFACE_STYLE_USAGE ( .BOTH. , #419 ) ;
#735 = LINE ( 'NONE', #520, #915 ) ;
#736 = CARTESIAN_POINT ( 'NONE',  ( 62.20000000000000300, 5.000000000000000000, 94.14999999999999100 ) ) ;
#737 = CARTESIAN_POINT ( 'NONE',  ( 36.80000000000000400, -5.000000000000000000, -35.94999999999999600 ) ) ;
#738 = STYLED_ITEM ( 'NONE', ( #998 ), #3 ) ;
#739 = CARTESIAN_POINT ( 'NONE',  ( -41.78097245096172700, 2.194255259879979500E-015, -34.99999999999999300 ) ) ;
#740 = APPLICATION_CONTEXT ( 'automotive_design' ) ;
#741 = CIRCLE ( 'NONE', #794, 1.649999999999998600 ) ;
#742 = APPLICATION_CONTEXT ( 'automotive_design' ) ;
#743 = ORIENTED_EDGE ( 'NONE', *, *, #629, .T. ) ;
#744 = CARTESIAN_POINT ( 'NONE',  ( 62.20000000000000300, 5.000000000000000000, -35.94999999999999600 ) ) ;
#745 = LINE ( 'NONE', #94, #833 ) ;
#746 = DIRECTION ( 'NONE',  ( 0.7071067811865485700, -4.329780281177473200E-017, 0.7071067811865464600 ) ) ;
#747 = VERTEX_POINT ( 'NONE', #739 ) ;
#748 = VECTOR ( 'NONE', #898, 1000.000000000000000 ) ;
#749 = DIRECTION ( 'NONE',  ( 0.0000000000000000000, 0.0000000000000000000, 1.000000000000000000 ) ) ;
#750 = EDGE_CURVE ( 'NONE', #591, #485, #468, .T. ) ;
#751 = COLOUR_RGB ( '',1.000000000000000000, 0.0000000000000000000, 0.0000000000000000000 ) ;
#752 = DIRECTION ( 'NONE',  ( 6.123233995736766000E-017, 1.000000000000000000, 0.0000000000000000000 ) ) ;
#753 = EDGE_CURVE ( 'NONE', #13, #485, #167, .T. ) ;
#754 = PLANE ( 'NONE',  #472 ) ;
#755 = FACE_BOUND ( 'NONE', #658, .T. ) ;
#756 = FACE_BOUND ( 'NONE', #184, .T. ) ;
#757 = ORIENTED_EDGE ( 'NONE', *, *, #1005, .T. ) ;
#758 = CARTESIAN_POINT ( 'NONE',  ( -36.78097245096173400, 1.888093560093142000E-015, -40.00000000000000000 ) ) ;
#759 = DIRECTION ( 'NONE',  ( 0.0000000000000000000, 0.0000000000000000000, -1.000000000000000000 ) ) ;
#760 = ORIENTED_EDGE ( 'NONE', *, *, #330, .F. ) ;
#761 = LINE ( 'NONE', #813, #625 ) ;
#762 = CARTESIAN_POINT ( 'NONE',  ( 36.80000000000000400, 5.000000000000000000, -34.29999999999999700 ) ) ;
#763 = UNCERTAINTY_MEASURE_WITH_UNIT (LENGTH_MEASURE( 1.000000000000000100E-005 ), #969, 'distance_accuracy_value', 'NONE');
#764 = DIRECTION ( 'NONE',  ( 0.0000000000000000000, 0.0000000000000000000, 1.000000000000000000 ) ) ;
#765 = DIRECTION ( 'NONE',  ( 0.0000000000000000000, 1.000000000000000000, 0.0000000000000000000 ) ) ;
#766 = ADVANCED_FACE ( 'NONE', ( #1007 ), #356, .T. ) ;
#767 = CARTESIAN_POINT ( 'NONE',  ( 62.20000000000000300, -5.000000000000000000, 92.50000000000000000 ) ) ;
#768 =( GEOMETRIC_REPRESENTATION_CONTEXT ( 3 ) GLOBAL_UNCERTAINTY_ASSIGNED_CONTEXT ( ( #796 ) ) GLOBAL_UNIT_ASSIGNED_CONTEXT ( ( #592, #585, #831 ) ) REPRESENTATION_CONTEXT ( 'NONE', 'WORKASPACE' ) );
#769 =( LENGTH_UNIT ( ) NAMED_UNIT ( * ) SI_UNIT ( .MILLI., .METRE. ) );
#770 = ORIENTED_EDGE ( 'NONE', *, *, #21, .T. ) ;
#771 = ADVANCED_FACE ( 'NONE', ( #117 ), #508, .F. ) ;
#772 = EDGE_CURVE ( 'NONE', #873, #622, #327, .T. ) ;
#773 = CARTESIAN_POINT ( 'NONE',  ( 69.49999999999997200, 5.000000000000000000, 97.00000000000001400 ) ) ;
#774 = EDGE_LOOP ( 'NONE', ( #91, #516, #926, #507 ) ) ;
#775 = PRESENTATION_LAYER_ASSIGNMENT (  '', '', ( #949 ) ) ;
#776 = DIRECTION ( 'NONE',  ( 0.0000000000000000000, 1.000000000000000000, 0.0000000000000000000 ) ) ;
#777 = VECTOR ( 'NONE', #806, 1000.000000000000000 ) ;
#778 = CARTESIAN_POINT ( 'NONE',  ( 29.49999999999997900, 0.0000000000000000000, 5.000000000000000000 ) ) ;
#779 = EDGE_CURVE ( 'NONE', #714, #124, #838, .T. ) ;
#780 = MECHANICAL_DESIGN_GEOMETRIC_PRESENTATION_REPRESENTATION (  '', ( #651 ), #864 ) ;
#781 = FACE_OUTER_BOUND ( 'NONE', #385, .T. ) ;
#782 = DIRECTION ( 'NONE',  ( -6.123233995736766000E-017, -1.000000000000000000, 0.0000000000000000000 ) ) ;
#783 = CARTESIAN_POINT ( 'NONE',  ( 36.80000000000000400, -5.000000000000000000, 94.14999999999999100 ) ) ;
#784 = EDGE_CURVE ( 'NONE', #992, #634, #735, .T. ) ;
#785 = ORIENTED_EDGE ( 'NONE', *, *, #690, .F. ) ;
#786 = SURFACE_STYLE_FILL_AREA ( #916 ) ;
#787 = VERTEX_POINT ( 'NONE', #437 ) ;
#788 = LINE ( 'NONE', #649, #967 ) ;
#789 = STYLED_ITEM ( 'NONE', ( #979 ), #381 ) ;
#790 = PRESENTATION_STYLE_ASSIGNMENT (( #827 ) ) ;
#791 = ORIENTED_EDGE ( 'NONE', *, *, #814, .T. ) ;
#792 = FILL_AREA_STYLE ('',( #564 ) ) ;
#793 = SURFACE_STYLE_USAGE ( .BOTH. , #404 ) ;
#794 = AXIS2_PLACEMENT_3D ( 'NONE', #643, #190, #889 ) ;
#795 = FILL_AREA_STYLE_COLOUR ( '', #498 ) ;
#796 = UNCERTAINTY_MEASURE_WITH_UNIT (LENGTH_MEASURE( 1.000000000000000100E-005 ), #592, 'distance_accuracy_value', 'NONE');
#797 = EDGE_CURVE ( 'NONE', #485, #591, #108, .T. ) ;
#798 = FACE_OUTER_BOUND ( 'NONE', #50, .T. ) ;
#799 = CARTESIAN_POINT ( 'NONE',  ( 36.80000000000000400, 0.0000000000000000000, 90.84999999999999400 ) ) ;
#800 = VECTOR ( 'NONE', #537, 1000.000000000000100 ) ;
#801 = ORIENTED_EDGE ( 'NONE', *, *, #436, .F. ) ;
#802 = EDGE_LOOP ( 'NONE', ( #67, #930, #442, #166 ) ) ;
#803 = SURFACE_SIDE_STYLE ('',( #701 ) ) ;
#804 = FACE_OUTER_BOUND ( 'NONE', #27, .T. ) ;
#805 =( GEOMETRIC_REPRESENTATION_CONTEXT ( 3 ) GLOBAL_UNCERTAINTY_ASSIGNED_CONTEXT ( ( #509 ) ) GLOBAL_UNIT_ASSIGNED_CONTEXT ( ( #666, #207, #439 ) ) REPRESENTATION_CONTEXT ( 'NONE', 'WORKASPACE' ) );
#806 = DIRECTION ( 'NONE',  ( 6.123233995736766000E-017, 1.000000000000000000, 0.0000000000000000000 ) ) ;
#807 = LINE ( 'NONE', #783, #125 ) ;
#808 = VERTEX_POINT ( 'NONE', #829 ) ;
#809 = ORIENTED_EDGE ( 'NONE', *, *, #848, .T. ) ;
#810 = SURFACE_STYLE_FILL_AREA ( #280 ) ;
#811 = FILL_AREA_STYLE ('',( #118 ) ) ;
#812 = AXIS2_PLACEMENT_3D ( 'NONE', #941, #400, #99 ) ;
#813 = CARTESIAN_POINT ( 'NONE',  ( 29.49999999999997900, 0.0000000000000000000, 0.0000000000000000000 ) ) ;
#814 = EDGE_CURVE ( 'NONE', #488, #266, #590, .T. ) ;
#815 = FILL_AREA_STYLE_COLOUR ( '', #335 ) ;
#816 = COLOUR_RGB ( '',1.000000000000000000, 0.0000000000000000000, 0.0000000000000000000 ) ;
#817 =( NAMED_UNIT ( * ) PLANE_ANGLE_UNIT ( ) SI_UNIT ( $, .RADIAN. ) );
#818 = CARTESIAN_POINT ( 'NONE',  ( 62.20000000000000300, 5.000000000000000000, -34.29999999999999700 ) ) ;
#819 = AXIS2_PLACEMENT_3D ( 'NONE', #1006, #464, #782 ) ;
#820 = DIRECTION ( 'NONE',  ( -6.123233995736766000E-017, -1.000000000000000000, 0.0000000000000000000 ) ) ;
#821 =( LENGTH_UNIT ( ) NAMED_UNIT ( * ) SI_UNIT ( .MILLI., .METRE. ) );
#822 = FACE_OUTER_BOUND ( 'NONE', #82, .T. ) ;
#823 = ORIENTED_EDGE ( 'NONE', *, *, #680, .F. ) ;
#824 = DIRECTION ( 'NONE',  ( 0.0000000000000000000, 0.0000000000000000000, -1.000000000000000000 ) ) ;
#825 = CIRCLE ( 'NONE', #492, 3.499999999999999600 ) ;
#826 = DIRECTION ( 'NONE',  ( -6.123233995736766000E-017, -1.000000000000000000, 0.0000000000000000000 ) ) ;
#827 = SURFACE_STYLE_USAGE ( .BOTH. , #59 ) ;
#828 = PRESENTATION_LAYER_ASSIGNMENT (  '', '', ( #449 ) ) ;
#829 = CARTESIAN_POINT ( 'NONE',  ( 36.80000000000000400, 0.0000000000000000000, -35.94999999999999600 ) ) ;
#830 = EDGE_LOOP ( 'NONE', ( #575, #518, #452, #52 ) ) ;
#831 =( NAMED_UNIT ( * ) SI_UNIT ( $, .STERADIAN. ) SOLID_ANGLE_UNIT ( ) );
#832 = EDGE_CURVE ( 'NONE', #61, #601, #339, .T. ) ;
#833 = VECTOR ( 'NONE', #937, 1000.000000000000000 ) ;
#834 = VERTEX_POINT ( 'NONE', #758 ) ;
#835 = LINE ( 'NONE', #523, #529 ) ;
#836 = EDGE_LOOP ( 'NONE', ( #276, #695 ) ) ;
#837 = EDGE_CURVE ( 'NONE', #981, #612, #141, .T. ) ;
#838 = CIRCLE ( 'NONE', #357, 1.649999999999998600 ) ;
#839 = DIRECTION ( 'NONE',  ( 0.0000000000000000000, 0.0000000000000000000, -1.000000000000000000 ) ) ;
#840 = DIRECTION ( 'NONE',  ( 0.0000000000000000000, -1.000000000000000000, 0.0000000000000000000 ) ) ;
#841 = UNCERTAINTY_MEASURE_WITH_UNIT (LENGTH_MEASURE( 1.000000000000000100E-005 ), #481, 'distance_accuracy_value', 'NONE');
#842 = AXIS2_PLACEMENT_3D ( 'NONE', #60, #664, #272 ) ;
#843 =( NAMED_UNIT ( * ) SI_UNIT ( $, .STERADIAN. ) SOLID_ANGLE_UNIT ( ) );
#844 = DIRECTION ( 'NONE',  ( 0.0000000000000000000, 0.0000000000000000000, 1.000000000000000000 ) ) ;
#845 = DIRECTION ( 'NONE',  ( -0.7071067811865495700, 4.329780281177478800E-017, -0.7071067811865455700 ) ) ;
#846 = CYLINDRICAL_SURFACE ( 'NONE', #548, 3.499999999999999600 ) ;
#847 = LINE ( 'NONE', #438, #977 ) ;
#848 = EDGE_CURVE ( 'NONE', #465, #461, #698, .T. ) ;
#849 = ORIENTED_EDGE ( 'NONE', *, *, #304, .T. ) ;
#850 = ORIENTED_EDGE ( 'NONE', *, *, #665, .F. ) ;
#851 = EDGE_LOOP ( 'NONE', ( #801, #976 ) ) ;
#852 = CIRCLE ( 'NONE', #959, 3.500000000000002200 ) ;
#853 = ORIENTED_EDGE ( 'NONE', *, *, #369, .F. ) ;
#854 = COLOUR_RGB ( '',1.000000000000000000, 0.0000000000000000000, 0.0000000000000000000 ) ;
#855 = CARTESIAN_POINT ( 'NONE',  ( 62.20000000000000300, -5.000000000000000000, -32.64999999999999900 ) ) ;
#856 = VERTEX_POINT ( 'NONE', #632 ) ;
#857 = FACE_OUTER_BOUND ( 'NONE', #802, .T. ) ;
#858 = VECTOR ( 'NONE', #606, 1000.000000000000000 ) ;
#859 = VERTEX_POINT ( 'NONE', #11 ) ;
#860 = ADVANCED_FACE ( 'NONE', ( #57 ), #887, .F. ) ;
#861 = MECHANICAL_DESIGN_GEOMETRIC_PRESENTATION_REPRESENTATION (  '', ( #298 ), #265 ) ;
#862 = LINE ( 'NONE', #306, #924 ) ;
#863 = CARTESIAN_POINT ( 'NONE',  ( -36.78097245096173400, 5.000000000000001800, -40.00000000000000000 ) ) ;
#864 =( GEOMETRIC_REPRESENTATION_CONTEXT ( 3 ) GLOBAL_UNCERTAINTY_ASSIGNED_CONTEXT ( ( #652 ) ) GLOBAL_UNIT_ASSIGNED_CONTEXT ( ( #623, #320, #950 ) ) REPRESENTATION_CONTEXT ( 'NONE', 'WORKASPACE' ) );
#865 = CARTESIAN_POINT ( 'NONE',  ( -31.78097245096172300, 10.00000000000000200, -9.999999999999998200 ) ) ;
#866 = DIRECTION ( 'NONE',  ( 0.0000000000000000000, 1.000000000000000000, 0.0000000000000000000 ) ) ;
#867 = CARTESIAN_POINT ( 'NONE',  ( 36.80000000000000400, 0.0000000000000000000, 94.14999999999999100 ) ) ;
#868 = CYLINDRICAL_SURFACE ( 'NONE', #722, 3.499999999999999600 ) ;
#869 = DIRECTION ( 'NONE',  ( -6.123233995736766000E-017, -1.000000000000000000, -0.0000000000000000000 ) ) ;
#870 = EDGE_CURVE ( 'NONE', #965, #787, #482, .T. ) ;
#871 = FACE_BOUND ( 'NONE', #705, .T. ) ;
#872 =( LENGTH_UNIT ( ) NAMED_UNIT ( * ) SI_UNIT ( .MILLI., .METRE. ) );
#873 = VERTEX_POINT ( 'NONE', #203 ) ;
#874 = ORIENTED_EDGE ( 'NONE', *, *, #532, .T. ) ;
#875 = CIRCLE ( 'NONE', #677, 1.649999999999998600 ) ;
#876 = ORIENTED_EDGE ( 'NONE', *, *, #463, .T. ) ;
#877 = AXIS2_PLACEMENT_3D ( 'NONE', #289, #921, #839 ) ;
#878 = SURFACE_STYLE_FILL_AREA ( #914 ) ;
#879 = AXIS2_PLACEMENT_3D ( 'NONE', #589, #281, #426 ) ;
#880 = CIRCLE ( 'NONE', #686, 1.649999999999998600 ) ;
#881 = CARTESIAN_POINT ( 'NONE',  ( 24.49999999999997500, 10.00000000000000200, 5.000000000000000000 ) ) ;
#882 = EDGE_CURVE ( 'NONE', #834, #229, #494, .T. ) ;
#883 = ORIENTED_EDGE ( 'NONE', *, *, #412, .F. ) ;
#884 = DIRECTION ( 'NONE',  ( 0.0000000000000000000, 1.000000000000000000, 0.0000000000000000000 ) ) ;
#885 = DIRECTION ( 'NONE',  ( 0.0000000000000000000, -1.000000000000000000, 0.0000000000000000000 ) ) ;
#886 = AXIS2_PLACEMENT_3D ( 'NONE', #687, #227, #759 ) ;
#887 = CYLINDRICAL_SURFACE ( 'NONE', #594, 3.500000000000002200 ) ;
#888 =( NAMED_UNIT ( * ) SI_UNIT ( $, .STERADIAN. ) SOLID_ANGLE_UNIT ( ) );
#889 = DIRECTION ( 'NONE',  ( 0.0000000000000000000, 0.0000000000000000000, 1.000000000000000000 ) ) ;
#890 = PLANE ( 'NONE',  #319 ) ;
#891 = CARTESIAN_POINT ( 'NONE',  ( 62.20000000000000300, 5.000000000000000000, -32.64999999999999900 ) ) ;
#892 = EDGE_CURVE ( 'NONE', #808, #873, #613, .T. ) ;
#893 = DIRECTION ( 'NONE',  ( 0.0000000000000000000, 0.0000000000000000000, 1.000000000000000000 ) ) ;
#894 =( NAMED_UNIT ( * ) SI_UNIT ( $, .STERADIAN. ) SOLID_ANGLE_UNIT ( ) );
#895 = AXIS2_PLACEMENT_3D ( 'NONE', #662, #820, #146 ) ;
#896 = DIRECTION ( 'NONE',  ( 0.0000000000000000000, 0.0000000000000000000, 1.000000000000000000 ) ) ;
#897 = VECTOR ( 'NONE', #317, 1000.000000000000000 ) ;
#898 = DIRECTION ( 'NONE',  ( 0.0000000000000000000, 1.000000000000000000, 0.0000000000000000000 ) ) ;
#899 = ORIENTED_EDGE ( 'NONE', *, *, #375, .F. ) ;
#900 = ORIENTED_EDGE ( 'NONE', *, *, #424, .T. ) ;
#901 = LINE ( 'NONE', #681, #552 ) ;
#902 = ORIENTED_EDGE ( 'NONE', *, *, #290, .T. ) ;
#903 = CARTESIAN_POINT ( 'NONE',  ( 29.49999999999997900, 5.000000000000000000, 0.0000000000000000000 ) ) ;
#904 = PRESENTATION_LAYER_ASSIGNMENT (  '', '', ( #193 ) ) ;
#905 = DIRECTION ( 'NONE',  ( -6.123233995736766000E-017, -1.000000000000000000, 0.0000000000000000000 ) ) ;
#906 =( NAMED_UNIT ( * ) SI_UNIT ( $, .STERADIAN. ) SOLID_ANGLE_UNIT ( ) );
#907 = FILL_AREA_STYLE_COLOUR ( '', #263 ) ;
#908 = CARTESIAN_POINT ( 'NONE',  ( -41.78097245096172700, 2.194255259879979500E-015, -34.99999999999999300 ) ) ;
#909 = VERTEX_POINT ( 'NONE', #567 ) ;
#910 = APPLICATION_PROTOCOL_DEFINITION ( 'draft international standard', 'automotive_design', 1998, #742 ) ;
#911 = FILL_AREA_STYLE_COLOUR ( '', #228 ) ;
#912 = LINE ( 'NONE', #908, #38 ) ;
#913 = ORIENTED_EDGE ( 'NONE', *, *, #134, .T. ) ;
#914 = FILL_AREA_STYLE ('',( #907 ) ) ;
#915 = VECTOR ( 'NONE', #209, 1000.000000000000000 ) ;
#916 = FILL_AREA_STYLE ('',( #145 ) ) ;
#917 =( GEOMETRIC_REPRESENTATION_CONTEXT ( 3 ) GLOBAL_UNCERTAINTY_ASSIGNED_CONTEXT ( ( #946 ) ) GLOBAL_UNIT_ASSIGNED_CONTEXT ( ( #32, #641, #888 ) ) REPRESENTATION_CONTEXT ( 'NONE', 'WORKASPACE' ) );
#918 = DIRECTION ( 'NONE',  ( -6.123233995736766000E-017, -1.000000000000000000, -0.0000000000000000000 ) ) ;
#919 = DIRECTION ( 'NONE',  ( 0.0000000000000000000, 0.0000000000000000000, 1.000000000000000000 ) ) ;
#920 = STYLED_ITEM ( 'NONE', ( #308 ), #237 ) ;
#921 = DIRECTION ( 'NONE',  ( 0.0000000000000000000, -1.000000000000000000, 0.0000000000000000000 ) ) ;
#922 = FILL_AREA_STYLE ('',( #911 ) ) ;
#923 = VERTEX_POINT ( 'NONE', #646 ) ;
#924 = VECTOR ( 'NONE', #302, 1000.000000000000000 ) ;
#925 = EDGE_CURVE ( 'NONE', #601, #634, #955, .T. ) ;
#926 = ORIENTED_EDGE ( 'NONE', *, *, #957, .F. ) ;
#927 = SURFACE_SIDE_STYLE ('',( #433 ) ) ;
#928 = EDGE_CURVE ( 'NONE', #465, #981, #825, .T. ) ;
#929 = AXIS2_PLACEMENT_3D ( 'NONE', #157, #450, #752 ) ;
#930 = ORIENTED_EDGE ( 'NONE', *, *, #667, .T. ) ;
#931 = AXIS2_PLACEMENT_3D ( 'NONE', #718, #407, #675 ) ;
#932 = DIRECTION ( 'NONE',  ( 0.0000000000000000000, 0.0000000000000000000, 1.000000000000000000 ) ) ;
#933 = FACE_BOUND ( 'NONE', #478, .T. ) ;
#934 = ORIENTED_EDGE ( 'NONE', *, *, #83, .T. ) ;
#935 = VECTOR ( 'NONE', #170, 1000.000000000000000 ) ;
#936 = DIRECTION ( 'NONE',  ( 0.0000000000000000000, -1.000000000000000000, 0.0000000000000000000 ) ) ;
#937 = DIRECTION ( 'NONE',  ( 6.123233995736766000E-017, 1.000000000000000000, 0.0000000000000000000 ) ) ;
#938 = MECHANICAL_DESIGN_GEOMETRIC_PRESENTATION_REPRESENTATION (  '', ( #949 ), #305 ) ;
#939 = CARTESIAN_POINT ( 'NONE',  ( -31.78097245096172300, 5.000000000000001800, -30.00000000000000000 ) ) ;
#940 = PRESENTATION_STYLE_ASSIGNMENT (( #654 ) ) ;
#941 = CARTESIAN_POINT ( 'NONE',  ( -41.78097245096172700, 2.194255259879979500E-015, -40.00000000000000000 ) ) ;
#942 = ORIENTED_EDGE ( 'NONE', *, *, #448, .F. ) ;
#943 = CIRCLE ( 'NONE', #642, 1.649999999999998600 ) ;
#944 = ORIENTED_EDGE ( 'NONE', *, *, #573, .F. ) ;
#945 = FILL_AREA_STYLE_COLOUR ( '', #854 ) ;
#946 = UNCERTAINTY_MEASURE_WITH_UNIT (LENGTH_MEASURE( 1.000000000000000100E-005 ), #32, 'distance_accuracy_value', 'NONE');
#947 = DIRECTION ( 'NONE',  ( 0.0000000000000000000, 0.0000000000000000000, 1.000000000000000000 ) ) ;
#948 = CARTESIAN_POINT ( 'NONE',  ( -41.78097245096172700, 2.194255259879979500E-015, -40.00000000000000000 ) ) ;
#949 = STYLED_ITEM ( 'NONE', ( #639 ), #34 ) ;
#950 =( NAMED_UNIT ( * ) SI_UNIT ( $, .STERADIAN. ) SOLID_ANGLE_UNIT ( ) );
#951 = FILL_AREA_STYLE ('',( #248 ) ) ;
#952 = EDGE_CURVE ( 'NONE', #538, #95, #287, .T. ) ;
#953 = DIRECTION ( 'NONE',  ( 0.0000000000000000000, 1.000000000000000000, 0.0000000000000000000 ) ) ;
#954 = ORIENTED_EDGE ( 'NONE', *, *, #316, .F. ) ;
#955 = LINE ( 'NONE', #342, #315 ) ;
#956 = CARTESIAN_POINT ( 'NONE',  ( 36.80000000000000400, -5.000000000000000000, 92.50000000000000000 ) ) ;
#957 = EDGE_CURVE ( 'NONE', #787, #601, #531, .T. ) ;
#958 = DIRECTION ( 'NONE',  ( 0.0000000000000000000, 0.0000000000000000000, 1.000000000000000000 ) ) ;
#959 = AXIS2_PLACEMENT_3D ( 'NONE', #621, #80, #932 ) ;
#960 = UNCERTAINTY_MEASURE_WITH_UNIT (LENGTH_MEASURE( 1.000000000000000100E-005 ), #161, 'distance_accuracy_value', 'NONE');
#961 = CARTESIAN_POINT ( 'NONE',  ( -31.78097245096172300, 5.000000000000001800, -30.00000000000000000 ) ) ;
#962 = DIRECTION ( 'NONE',  ( 0.0000000000000000000, 0.0000000000000000000, 1.000000000000000000 ) ) ;
#963 = LINE ( 'NONE', #903, #897 ) ;
#964 = EDGE_LOOP ( 'NONE', ( #364, #809, #176, #679 ) ) ;
#965 = VERTEX_POINT ( 'NONE', #36 ) ;
#966 =( GEOMETRIC_REPRESENTATION_CONTEXT ( 3 ) GLOBAL_UNCERTAINTY_ASSIGNED_CONTEXT ( ( #294 ) ) GLOBAL_UNIT_ASSIGNED_CONTEXT ( ( #201, #586, #136 ) ) REPRESENTATION_CONTEXT ( 'NONE', 'WORKASPACE' ) );
#967 = VECTOR ( 'NONE', #355, 1000.000000000000000 ) ;
#968 = ORIENTED_EDGE ( 'NONE', *, *, #242, .F. ) ;
#969 =( LENGTH_UNIT ( ) NAMED_UNIT ( * ) SI_UNIT ( .MILLI., .METRE. ) );
#970 = EDGE_CURVE ( 'NONE', #747, #834, #354, .T. ) ;
#971 = DIRECTION ( 'NONE',  ( 0.0000000000000000000, 1.000000000000000000, 0.0000000000000000000 ) ) ;
#972 = DIRECTION ( 'NONE',  ( 0.0000000000000000000, 0.0000000000000000000, 1.000000000000000000 ) ) ;
#973 = DIRECTION ( 'NONE',  ( 0.7071067811865465700, -4.329780281177460900E-017, -0.7071067811865485700 ) ) ;
#974 = ORIENTED_EDGE ( 'NONE', *, *, #784, .F. ) ;
#975 = AXIS2_PLACEMENT_3D ( 'NONE', #939, #615, #236 ) ;
#976 = ORIENTED_EDGE ( 'NONE', *, *, #290, .F. ) ;
#977 = VECTOR ( 'NONE', #669, 1000.000000000000000 ) ;
#978 = DIRECTION ( 'NONE',  ( 0.0000000000000000000, 0.0000000000000000000, 1.000000000000000000 ) ) ;
#979 = PRESENTATION_STYLE_ASSIGNMENT (( #292 ) ) ;
#980 = DIRECTION ( 'NONE',  ( 0.0000000000000000000, 0.0000000000000000000, 1.000000000000000000 ) ) ;
#981 = VERTEX_POINT ( 'NONE', #43 ) ;
#982 = PRODUCT_CONTEXT ( 'NONE', #742, 'mechanical' ) ;
#983 = DIRECTION ( 'NONE',  ( 0.0000000000000000000, -1.000000000000000000, 0.0000000000000000000 ) ) ;
#984 = CARTESIAN_POINT ( 'NONE',  ( 62.20000000000000300, -5.000000000000000000, -34.29999999999999700 ) ) ;
#985 = AXIS2_PLACEMENT_3D ( 'NONE', #37, #195, #962 ) ;
#986 = DIRECTION ( 'NONE',  ( 0.0000000000000000000, 0.0000000000000000000, -1.000000000000000000 ) ) ;
#987 = EDGE_CURVE ( 'NONE', #909, #390, #788, .T. ) ;
#988 = EDGE_CURVE ( 'NONE', #432, #61, #761, .T. ) ;
#989 = COLOUR_RGB ( '',1.000000000000000000, 0.0000000000000000000, 0.0000000000000000000 ) ;
#990 = EDGE_LOOP ( 'NONE', ( #850, #55, #178, #974 ) ) ;
#991 = FILL_AREA_STYLE_COLOUR ( '', #610 ) ;
#992 = VERTEX_POINT ( 'NONE', #495 ) ;
#993 = VECTOR ( 'NONE', #973, 1000.000000000000000 ) ;
#994 = PRESENTATION_LAYER_ASSIGNMENT (  '', '', ( #250 ) ) ;
#995 = DIRECTION ( 'NONE',  ( 0.0000000000000000000, 0.0000000000000000000, 1.000000000000000000 ) ) ;
#996 = SURFACE_STYLE_USAGE ( .BOTH. , #293 ) ;
#997 = DIRECTION ( 'NONE',  ( 0.0000000000000000000, 0.0000000000000000000, 1.000000000000000000 ) ) ;
#998 = PRESENTATION_STYLE_ASSIGNMENT (( #20 ) ) ;
#999 = ADVANCED_FACE ( 'NONE', ( #179 ), #890, .T. ) ;
#1000 = AXIS2_PLACEMENT_3D ( 'NONE', #984, #765, #919 ) ;
#1001 = DIRECTION ( 'NONE',  ( 0.0000000000000000000, 1.000000000000000000, 0.0000000000000000000 ) ) ;
#1002 = PRESENTATION_STYLE_ASSIGNMENT (( #724 ) ) ;
#1003 = ORIENTED_EDGE ( 'NONE', *, *, #988, .F. ) ;
#1004 = CARTESIAN_POINT ( 'NONE',  ( 36.80000000000000400, 5.000000000000000000, 92.50000000000000000 ) ) ;
#1005 = EDGE_CURVE ( 'NONE', #124, #714, #418, .T. ) ;
#1006 = CARTESIAN_POINT ( 'NONE',  ( -41.78097245096172700, 2.194255259879979500E-015, -4.999999999999990200 ) ) ;
#1007 = FACE_OUTER_BOUND ( 'NONE', #261, .T. ) ;
#1008 = CARTESIAN_POINT ( 'NONE',  ( -59.28097245096172700, 3.265821209133913600E-015, -22.49999999999989700 ) ) ;
ENDSEC;
END-ISO-10303-21;
